{"glyphs":{"0":{"ha":794,"x_min":68,"x_max":726,"o":"m 726 497 q 693 223 726 338 q 588 47 660 108 q 396 -14 515 -14 q 148 122 228 -14 q 68 497 68 257 q 101 772 68 658 q 206 947 133 886 q 396 1007 278 1007 q 644 873 563 1007 q 726 497 726 739 m 190 497 q 237 192 190 293 q 396 90 283 90 q 555 191 507 90 q 603 497 603 292 q 555 801 603 700 q 396 903 507 903 q 237 801 283 903 q 190 497 190 700 z "},"1":{"ha":794,"x_min":124,"x_max":493,"o":"m 493 0 l 374 0 l 374 693 q 375 789 374 753 q 379 864 376 825 q 339 826 357 842 q 293 788 321 811 l 188 701 l 124 783 l 392 992 l 493 992 l 493 0 z "},"2":{"ha":794,"x_min":67,"x_max":722,"o":"m 722 0 l 67 0 l 67 101 l 326 364 q 453 497 401 439 q 531 612 504 556 q 557 735 557 668 q 508 859 557 817 q 382 901 460 901 q 255 876 310 901 q 143 807 200 851 l 78 889 q 212 972 136 938 q 382 1006 288 1006 q 601 935 521 1006 q 682 742 682 865 q 650 596 682 664 q 561 462 618 528 q 428 321 504 396 l 221 117 l 221 111 l 722 111 l 722 0 z "},"3":{"ha":794,"x_min":63,"x_max":715,"o":"m 685 760 q 629 601 685 660 q 479 522 574 542 l 479 517 q 657 442 599 503 q 715 282 715 381 q 675 128 715 196 q 551 24 635 61 q 335 -14 467 -14 q 190 -2 257 -14 q 63 40 124 10 l 63 154 q 197 106 125 124 q 336 89 269 89 q 528 141 469 89 q 588 285 588 193 q 515 419 588 378 q 310 460 442 460 l 214 460 l 214 564 l 311 564 q 497 615 433 564 q 560 751 560 667 q 511 863 560 824 q 379 903 463 903 q 242 879 299 903 q 129 819 185 856 l 68 903 q 199 975 121 944 q 378 1006 278 1006 q 609 936 533 1006 q 685 760 685 867 z "},"4":{"ha":794,"x_min":29,"x_max":767,"o":"m 767 225 l 622 225 l 622 0 l 504 0 l 504 225 l 29 225 l 29 329 l 496 997 l 622 997 l 622 335 l 767 335 l 767 225 m 504 647 q 507 770 504 719 q 511 867 510 821 l 506 867 q 478 810 494 840 q 446 758 461 779 l 149 335 l 504 335 l 504 647 z "},"5":{"ha":794,"x_min":88,"x_max":715,"o":"m 382 608 q 625 532 535 608 q 715 317 715 456 q 617 74 715 163 q 344 -14 519 -14 q 201 0 268 -14 q 88 40 133 14 l 88 156 q 209 108 138 125 q 346 90 281 90 q 523 142 456 90 q 590 304 590 194 q 531 453 590 401 q 342 506 471 506 q 253 499 303 506 q 172 485 203 492 l 111 524 l 149 992 l 646 992 l 646 881 l 253 881 l 229 593 q 293 603 253 597 q 382 608 333 608 z "},"6":{"ha":794,"x_min":76,"x_max":729,"o":"m 76 424 q 95 634 76 531 q 163 822 114 738 q 301 956 213 906 q 531 1006 390 1006 q 595 1003 560 1006 q 653 993 631 1000 l 653 889 q 597 901 628 897 q 533 906 565 906 q 374 874 438 906 q 273 786 310 842 q 219 658 236 731 q 199 504 203 586 l 207 504 q 296 587 239 553 q 442 621 353 621 q 650 542 571 621 q 729 319 729 464 q 644 75 729 164 q 414 -14 558 -14 q 243 33 319 -14 q 122 178 167 81 q 76 424 76 275 m 413 89 q 554 145 500 89 q 608 319 608 201 q 560 469 608 414 q 417 525 513 525 q 303 498 351 525 q 227 429 254 471 q 200 343 200 388 q 224 224 200 283 q 294 127 247 165 q 413 89 342 89 z "},"7":{"ha":794,"x_min":61,"x_max":726,"o":"m 189 0 l 596 881 l 61 881 l 61 992 l 726 992 l 726 897 l 324 0 l 189 0 z "},"8":{"ha":794,"x_min":68,"x_max":725,"o":"m 396 1006 q 610 944 526 1006 q 693 768 693 883 q 667 664 693 708 q 599 585 642 619 q 504 525 556 551 q 615 459 565 496 q 695 374 665 422 q 725 257 725 325 q 637 59 725 132 q 400 -14 549 -14 q 154 56 240 -14 q 68 253 68 126 q 97 371 68 321 q 172 457 125 421 q 274 518 219 493 q 151 619 201 560 q 100 769 100 678 q 139 898 100 846 q 244 978 178 950 q 396 1006 311 1006 m 394 907 q 269 870 318 907 q 219 764 219 833 q 244 678 219 713 q 310 619 268 643 q 401 572 351 594 q 523 646 474 603 q 572 764 572 689 q 524 870 572 833 q 394 907 475 907 m 188 251 q 239 131 188 179 q 397 83 290 83 q 552 131 499 83 q 606 256 606 179 q 549 376 606 328 q 397 460 492 424 l 375 468 q 235 378 283 429 q 188 251 188 328 z "},"9":{"ha":794,"x_min":69,"x_max":722,"o":"m 722 568 q 703 358 722 461 q 635 170 685 254 q 497 36 586 86 q 267 -14 407 -14 q 202 -10 239 -14 q 142 0 165 -7 l 142 104 q 264 86 196 86 q 424 118 361 86 q 525 205 488 150 q 579 333 563 260 q 599 486 596 406 l 590 486 q 502 405 560 439 q 354 371 444 371 q 148 449 226 371 q 69 671 69 528 q 109 850 69 775 q 219 965 149 925 q 386 1006 290 1006 q 557 958 481 1006 q 678 813 633 910 q 722 568 722 717 m 386 903 q 245 846 300 903 q 190 672 190 789 q 237 522 190 576 q 381 467 283 467 q 496 494 447 467 q 572 563 544 521 q 599 649 599 604 q 575 767 599 708 q 504 864 551 825 q 386 903 457 903 z "},"\u0000":{"ha":0,"x_min":0,"x_max":0,"o":""},"\r":{"ha":361,"x_min":0,"x_max":0,"o":""}," ":{"ha":361,"x_min":0,"x_max":0,"o":""},"!":{"ha":374,"x_min":100,"x_max":272,"o":"m 226 279 l 147 279 l 113 992 l 261 992 l 226 279 m 100 75 q 125 147 100 126 q 186 168 150 168 q 247 147 221 168 q 272 75 272 126 q 247 3 272 25 q 186 -19 221 -19 q 125 3 150 -19 q 100 75 100 25 z "},"\"":{"ha":567,"x_min":90,"x_max":476,"o":"m 222 992 l 194 633 l 118 633 l 90 992 l 222 992 m 476 992 l 449 633 l 372 633 l 344 992 l 476 992 z "},"#":{"ha":897,"x_min":35,"x_max":861,"o":"m 667 606 l 624 383 l 814 383 l 814 290 l 606 290 l 549 0 l 450 0 l 507 290 l 308 290 l 254 0 l 157 0 l 210 290 l 35 290 l 35 383 l 228 383 l 272 606 l 86 606 l 86 697 l 289 697 l 344 992 l 444 992 l 389 697 l 589 697 l 644 992 l 740 992 l 685 697 l 861 697 l 861 606 l 667 606 m 326 383 l 525 383 l 568 606 l 369 606 l 326 383 z "},"$":{"ha":794,"x_min":86,"x_max":717,"o":"m 351 68 q 203 81 275 69 q 86 114 131 93 l 86 232 q 207 193 133 210 q 351 175 281 176 l 351 456 q 150 550 214 493 q 86 706 86 607 q 158 867 86 808 q 351 932 229 925 l 351 1054 l 440 1054 l 440 933 q 574 917 514 932 q 685 882 635 903 l 647 779 q 549 810 603 797 q 440 828 496 824 l 440 549 q 593 492 532 522 q 685 419 654 463 q 717 306 717 375 q 644 148 717 208 q 440 74 572 88 l 440 -81 l 351 -81 l 351 68 m 351 825 q 241 790 276 819 q 206 715 206 761 q 237 630 206 660 q 351 579 268 600 l 351 825 m 440 182 q 560 220 522 190 q 597 297 597 250 q 564 377 597 350 q 440 426 531 404 l 440 182 z "},"%":{"ha":1154,"x_min":68,"x_max":1086,"o":"m 271 1006 q 426 924 374 1006 q 479 696 479 843 q 428 466 479 549 q 271 383 378 383 q 120 466 172 383 q 68 696 68 549 q 117 924 68 843 q 271 1006 165 1006 m 906 992 l 356 0 l 249 0 l 799 992 l 906 992 m 271 919 q 194 863 218 919 q 169 696 169 807 q 194 528 169 585 q 271 471 218 471 q 378 696 378 471 q 271 919 378 919 m 878 608 q 1033 527 979 608 q 1086 299 1086 446 q 1035 69 1086 151 q 878 -14 985 -14 q 727 69 779 -14 q 675 299 675 151 q 724 527 675 446 q 878 608 772 608 m 878 521 q 801 465 825 521 q 776 299 776 410 q 801 130 776 186 q 878 74 825 74 q 985 299 985 74 q 878 521 985 521 z "},"&":{"ha":1017,"x_min":74,"x_max":1014,"o":"m 422 1007 q 598 951 533 1007 q 663 793 663 894 q 606 644 663 706 q 464 533 550 583 l 732 275 q 791 374 768 318 q 829 496 814 431 l 953 496 q 897 331 931 407 q 811 197 864 254 l 1014 0 l 849 0 l 728 117 q 582 22 663 58 q 386 -14 501 -14 q 158 57 243 -14 q 74 258 74 128 q 131 430 74 365 q 288 550 189 494 q 205 657 243 600 q 167 790 167 714 q 235 950 167 893 q 422 1007 304 1007 m 418 907 q 323 876 360 907 q 286 792 286 846 q 313 699 286 742 q 389 606 339 657 q 506 695 471 653 q 542 793 542 738 q 508 875 542 843 q 418 907 475 907 m 361 474 q 244 383 286 429 q 201 263 201 338 q 253 140 201 186 q 390 94 304 94 q 543 124 479 94 q 650 193 607 153 l 361 474 z "},"'":{"ha":313,"x_min":90,"x_max":222,"o":"m 222 992 l 194 633 l 118 633 l 90 992 l 222 992 z "},"(":{"ha":417,"x_min":56,"x_max":375,"o":"m 56 381 q 105 708 56 550 q 260 992 154 865 l 375 992 q 228 704 278 861 q 179 382 179 547 q 228 66 179 221 q 374 -219 278 -89 l 260 -219 q 105 58 154 -97 q 56 381 56 213 z "},")":{"ha":417,"x_min":42,"x_max":361,"o":"m 361 381 q 312 58 361 213 q 157 -219 263 -97 l 43 -219 q 188 66 139 -89 q 238 382 238 221 q 188 704 238 547 q 42 992 139 861 l 157 992 q 312 708 263 865 q 361 381 361 550 z "},"*":{"ha":765,"x_min":57,"x_max":706,"o":"m 447 1056 l 419 789 l 686 864 l 706 736 l 450 715 l 615 496 l 496 431 l 378 674 l 271 431 l 147 496 l 310 715 l 57 736 l 76 864 l 340 789 l 311 1056 l 447 1056 z "},"+":{"ha":794,"x_min":69,"x_max":722,"o":"m 446 539 l 722 539 l 722 440 l 446 440 l 446 154 l 346 154 l 346 440 l 69 440 l 69 539 l 346 539 l 346 826 l 446 826 l 446 539 z "},",":{"ha":372,"x_min":57,"x_max":267,"o":"m 267 146 q 215 -16 249 72 q 147 -179 181 -104 l 57 -179 q 97 -6 76 -100 q 126 161 117 89 l 257 161 l 267 146 z "},"-":{"ha":447,"x_min":56,"x_max":392,"o":"m 56 318 l 56 426 l 392 426 l 392 318 l 56 318 z "},".":{"ha":372,"x_min":100,"x_max":272,"o":"m 100 75 q 125 147 100 126 q 185 168 150 168 q 247 147 221 168 q 272 75 272 126 q 247 3 272 25 q 185 -19 221 -19 q 125 3 150 -19 q 100 75 100 25 z "},"/":{"ha":517,"x_min":14,"x_max":503,"o":"m 503 992 l 133 0 l 14 0 l 383 992 l 503 992 z "},":":{"ha":372,"x_min":100,"x_max":272,"o":"m 100 669 q 125 743 100 722 q 185 764 150 764 q 247 743 221 764 q 272 669 272 722 q 247 597 272 619 q 185 575 221 575 q 125 597 150 575 q 100 669 100 619 m 100 75 q 125 147 100 126 q 185 168 150 168 q 247 147 221 168 q 272 75 272 126 q 247 3 272 25 q 185 -19 221 -19 q 125 3 150 -19 q 100 75 100 25 z "},";":{"ha":372,"x_min":43,"x_max":269,"o":"m 97 669 q 122 743 97 722 q 182 764 147 764 q 244 743 218 764 q 269 669 269 722 q 244 597 269 619 q 182 575 218 575 q 122 597 147 575 q 97 669 97 619 m 254 146 q 202 -16 236 74 q 135 -179 168 -106 l 43 -179 q 70 -66 57 -126 q 95 53 83 -6 q 114 161 107 113 l 244 161 l 254 146 z "},"<":{"ha":794,"x_min":69,"x_max":724,"o":"m 724 161 l 69 449 l 69 518 l 724 844 l 724 736 l 200 489 l 724 269 l 724 161 z "},"=":{"ha":794,"x_min":78,"x_max":714,"o":"m 78 578 l 78 676 l 714 676 l 714 578 l 78 578 m 78 301 l 78 400 l 714 400 l 714 301 l 78 301 z "},">":{"ha":794,"x_min":69,"x_max":724,"o":"m 69 269 l 593 488 l 69 736 l 69 844 l 724 518 l 724 449 l 69 161 l 69 269 z "},"?":{"ha":603,"x_min":17,"x_max":567,"o":"m 194 317 q 205 408 194 369 q 241 481 215 446 q 311 553 267 515 q 395 629 365 599 q 438 689 425 660 q 450 760 450 718 q 407 863 450 826 q 282 899 364 899 q 161 881 214 899 q 60 840 108 864 l 17 938 q 140 986 72 967 q 290 1006 207 1006 q 494 940 422 1006 q 567 763 567 875 q 547 656 567 700 q 490 576 526 613 q 403 497 453 539 q 333 429 357 458 q 300 372 308 400 q 292 303 292 343 l 292 279 l 194 279 l 194 317 m 163 75 q 187 147 163 126 q 249 168 211 168 q 308 147 283 168 q 333 75 333 126 q 308 3 333 25 q 249 -19 283 -19 q 187 3 211 -19 q 163 75 163 25 z "},"@":{"ha":1249,"x_min":81,"x_max":1168,"o":"m 1168 496 q 1153 371 1168 432 q 1108 260 1139 310 q 1033 181 1078 211 q 928 151 989 151 q 827 188 864 151 q 782 272 790 225 l 775 272 q 701 186 750 221 q 579 151 653 151 q 416 222 474 151 q 358 410 358 293 q 394 572 358 501 q 497 682 431 642 q 653 722 563 722 q 773 712 714 722 q 865 689 832 701 l 851 407 q 850 372 850 382 q 850 357 850 361 q 876 261 850 285 q 936 238 901 238 q 1009 273 979 238 q 1055 367 1039 308 q 1071 497 1071 426 q 1019 716 1071 626 q 876 853 967 806 q 669 900 785 900 q 402 835 511 900 q 237 655 293 769 q 181 393 181 540 q 289 78 181 188 q 601 -32 397 -32 q 763 -13 686 -32 q 900 28 840 6 l 900 -67 q 766 -108 840 -92 q 601 -124 692 -124 q 321 -62 438 -124 q 142 113 204 -1 q 81 389 81 228 q 121 628 81 518 q 238 820 161 739 q 423 947 314 901 q 669 992 532 992 q 926 932 814 992 q 1103 761 1039 872 q 1168 496 1168 650 m 467 407 q 502 278 467 318 q 597 238 538 238 q 709 296 675 238 q 749 447 743 354 l 757 621 q 711 631 739 626 q 654 635 683 635 q 544 601 586 635 q 485 516 503 568 q 467 407 467 464 z "},"A":{"ha":888,"x_min":0,"x_max":886,"o":"m 757 0 l 638 307 l 244 307 l 126 0 l 0 0 l 388 996 l 500 996 l 886 0 l 757 0 m 489 718 q 475 758 485 729 q 456 819 465 788 q 442 867 447 850 q 419 783 432 824 q 399 718 407 742 l 286 418 l 600 418 l 489 718 z "},"B":{"ha":903,"x_min":135,"x_max":828,"o":"m 418 992 q 699 937 604 992 q 794 746 794 882 q 746 601 794 658 q 606 526 697 543 l 606 519 q 719 483 668 510 q 799 408 769 457 q 828 282 828 360 q 735 74 828 147 q 483 0 643 0 l 135 0 l 135 992 l 418 992 m 443 569 q 618 610 571 569 q 665 732 665 651 q 608 849 665 814 q 424 885 550 885 l 260 885 l 260 569 l 443 569 m 260 465 l 260 106 l 460 106 q 643 157 592 106 q 694 292 694 208 q 641 417 694 369 q 450 465 588 465 l 260 465 z "},"C":{"ha":878,"x_min":85,"x_max":835,"o":"m 560 896 q 308 789 400 896 q 217 496 217 682 q 302 203 217 311 q 558 96 388 96 q 682 107 624 96 q 796 135 740 118 l 796 26 q 681 -4 740 6 q 540 -14 622 -14 q 288 49 389 -14 q 135 226 186 111 q 85 497 85 342 q 140 762 85 647 q 301 941 194 876 q 561 1006 408 1006 q 835 947 718 1006 l 785 842 q 683 879 739 863 q 560 896 626 896 z "},"D":{"ha":1014,"x_min":135,"x_max":929,"o":"m 929 506 q 792 127 929 254 q 411 0 656 0 l 135 0 l 135 992 l 440 992 q 700 936 590 992 q 869 773 810 881 q 929 506 929 665 m 797 501 q 699 792 797 700 q 422 885 601 885 l 260 885 l 260 107 l 394 107 q 797 501 797 107 z "},"E":{"ha":772,"x_min":135,"x_max":689,"o":"m 689 0 l 135 0 l 135 992 l 689 992 l 689 882 l 260 882 l 260 572 l 664 572 l 664 464 l 260 464 l 260 110 l 689 110 l 689 0 z "},"F":{"ha":721,"x_min":135,"x_max":689,"o":"m 260 0 l 135 0 l 135 992 l 689 992 l 689 882 l 260 882 l 260 531 l 663 531 l 663 421 l 260 421 l 260 0 z "},"G":{"ha":1011,"x_min":85,"x_max":908,"o":"m 565 524 l 908 524 l 908 38 q 746 -1 828 11 q 560 -14 664 -14 q 300 48 406 -14 q 140 224 194 110 q 85 496 85 339 q 146 765 85 651 q 322 942 207 879 q 599 1006 436 1006 q 756 990 682 1006 q 894 947 831 975 l 847 839 q 728 879 794 863 q 592 896 663 896 q 315 789 414 896 q 215 496 215 682 q 253 287 215 378 q 374 145 292 196 q 589 94 456 94 q 700 101 654 94 q 783 118 746 108 l 783 413 l 565 413 l 565 524 z "},"H":{"ha":1029,"x_min":135,"x_max":893,"o":"m 893 0 l 768 0 l 768 463 l 260 463 l 260 0 l 135 0 l 135 992 l 260 992 l 260 572 l 768 572 l 768 992 l 893 992 l 893 0 z "},"I":{"ha":471,"x_min":56,"x_max":414,"o":"m 414 0 l 56 0 l 56 72 l 172 99 l 172 892 l 56 919 l 56 992 l 414 992 l 414 919 l 297 892 l 297 99 l 414 72 l 414 0 z "},"J":{"ha":379,"x_min":-108,"x_max":253,"o":"m -6 -264 q -64 -259 -39 -264 q -108 -246 -89 -254 l -108 -140 q -61 -150 -86 -146 q -8 -154 -36 -154 q 58 -140 26 -154 q 108 -92 89 -126 q 128 6 128 -57 l 128 992 l 253 992 l 253 15 q 182 -196 253 -128 q -6 -264 111 -264 z "},"K":{"ha":860,"x_min":135,"x_max":860,"o":"m 860 0 l 713 0 l 361 474 l 260 385 l 260 0 l 135 0 l 135 992 l 260 992 l 260 503 q 344 597 301 550 q 431 692 388 644 l 699 992 l 844 992 l 451 560 l 860 0 z "},"L":{"ha":728,"x_min":135,"x_max":693,"o":"m 135 0 l 135 992 l 260 992 l 260 111 l 693 111 l 693 0 l 135 0 z "},"M":{"ha":1260,"x_min":135,"x_max":1125,"o":"m 572 0 l 246 869 l 240 869 q 247 753 244 826 q 250 601 250 681 l 250 0 l 135 0 l 135 992 l 319 992 l 625 179 l 631 179 l 942 992 l 1125 992 l 1125 0 l 1001 0 l 1001 610 q 1005 753 1001 682 q 1011 868 1008 824 l 1006 868 l 675 0 l 572 0 z "},"N":{"ha":1056,"x_min":135,"x_max":921,"o":"m 921 0 l 775 0 l 244 824 l 239 824 q 246 703 242 775 q 250 554 250 631 l 250 0 l 135 0 l 135 992 l 279 992 l 808 171 l 814 171 q 810 238 813 193 q 806 335 808 282 q 804 432 804 388 l 804 992 l 921 992 l 921 0 z "},"O":{"ha":1085,"x_min":85,"x_max":1000,"o":"m 1000 497 q 948 228 1000 343 q 794 50 896 114 q 543 -14 693 -14 q 287 50 389 -14 q 135 229 185 114 q 85 499 85 344 q 135 765 85 651 q 287 943 185 879 q 544 1007 389 1007 q 794 944 693 1007 q 948 766 896 881 q 1000 497 1000 651 m 217 497 q 296 202 217 310 q 543 94 375 94 q 790 202 713 94 q 868 497 868 310 q 790 791 868 685 q 544 897 713 897 q 297 791 376 897 q 217 497 217 685 z "},"P":{"ha":840,"x_min":135,"x_max":769,"o":"m 397 992 q 681 915 592 992 q 769 700 769 839 q 733 547 769 618 q 609 431 696 475 q 374 386 522 386 l 260 386 l 260 0 l 135 0 l 135 992 l 397 992 m 386 885 l 260 885 l 260 493 l 360 493 q 571 539 501 493 q 640 694 640 585 q 579 838 640 790 q 386 885 518 885 z "},"Q":{"ha":1085,"x_min":85,"x_max":1000,"o":"m 1000 497 q 927 188 1000 315 q 711 11 854 60 l 949 -236 l 769 -236 l 578 -12 q 560 -13 569 -12 q 543 -14 551 -14 q 287 50 389 -14 q 135 229 185 114 q 85 499 85 344 q 135 765 85 651 q 287 943 185 879 q 544 1007 389 1007 q 794 944 693 1007 q 948 766 896 881 q 1000 497 1000 651 m 217 497 q 296 202 217 310 q 543 94 375 94 q 790 202 713 94 q 868 497 868 310 q 790 791 868 685 q 544 897 713 897 q 297 791 376 897 q 217 497 217 685 z "},"R":{"ha":864,"x_min":135,"x_max":843,"o":"m 408 992 q 681 922 593 992 q 769 710 769 851 q 740 578 769 631 q 666 494 711 525 q 571 444 621 463 l 843 0 l 697 0 l 457 410 l 260 410 l 260 0 l 135 0 l 135 992 l 408 992 m 401 883 l 260 883 l 260 515 l 408 515 q 585 563 529 515 q 640 704 640 611 q 582 842 640 801 q 401 883 524 883 z "},"S":{"ha":763,"x_min":71,"x_max":697,"o":"m 697 265 q 601 60 697 133 q 343 -14 506 -14 q 189 -1 260 -14 q 71 33 118 11 l 71 153 q 195 113 121 131 q 349 94 269 94 q 516 138 460 94 q 572 254 572 181 q 551 336 572 303 q 480 398 531 369 q 339 458 429 426 q 148 571 213 504 q 83 753 83 638 q 124 888 83 832 q 235 975 164 944 q 400 1006 307 1006 q 550 990 482 1006 q 674 950 618 975 l 635 843 q 523 881 583 865 q 397 896 463 896 q 257 856 304 896 q 210 751 210 817 q 231 668 210 701 q 299 608 251 635 q 426 551 346 582 q 574 483 514 519 q 666 394 635 446 q 697 265 697 343 z "},"T":{"ha":772,"x_min":14,"x_max":757,"o":"m 449 0 l 324 0 l 324 882 l 14 882 l 14 992 l 757 992 l 757 882 l 449 882 l 449 0 z "},"U":{"ha":1015,"x_min":125,"x_max":889,"o":"m 889 350 q 847 165 889 247 q 720 34 806 82 q 503 -14 635 -14 q 222 87 318 -14 q 125 353 125 188 l 125 992 l 250 992 l 250 349 q 315 161 250 228 q 510 94 379 94 q 705 166 644 94 q 765 350 765 238 l 765 992 l 889 992 l 889 350 z "},"V":{"ha":833,"x_min":0,"x_max":833,"o":"m 833 992 l 479 0 l 354 0 l 0 992 l 131 992 l 354 356 q 392 241 376 294 q 417 139 407 188 q 442 242 426 188 q 479 358 457 296 l 701 992 l 833 992 z "},"W":{"ha":1292,"x_min":17,"x_max":1274,"o":"m 1274 992 l 1010 0 l 883 0 l 690 650 q 668 731 679 690 q 650 802 657 771 q 640 846 643 833 q 626 769 639 828 q 593 646 613 710 l 406 0 l 279 0 l 17 992 l 147 992 l 301 386 q 330 263 318 322 q 349 150 342 203 q 369 268 356 204 q 401 393 383 332 l 576 992 l 706 992 l 888 389 q 921 262 907 325 q 942 150 935 199 q 961 262 949 201 q 990 388 974 322 l 1143 992 l 1274 992 z "},"X":{"ha":814,"x_min":6,"x_max":808,"o":"m 808 0 l 667 0 l 404 431 l 138 0 l 6 0 l 335 517 l 26 992 l 165 992 l 408 603 l 653 992 l 785 992 l 478 519 l 808 0 z "},"Y":{"ha":786,"x_min":0,"x_max":786,"o":"m 393 504 l 651 992 l 786 992 l 456 385 l 456 0 l 331 0 l 331 379 l 0 992 l 136 992 l 393 504 z "},"Z":{"ha":794,"x_min":53,"x_max":740,"o":"m 740 0 l 53 0 l 53 94 l 575 881 l 69 881 l 69 992 l 726 992 l 726 897 l 204 111 l 740 111 l 740 0 z "},"[":{"ha":457,"x_min":111,"x_max":422,"o":"m 422 -219 l 111 -219 l 111 992 l 422 992 l 422 892 l 231 892 l 231 -119 l 422 -119 l 422 -219 z "},"\\":{"ha":517,"x_min":14,"x_max":504,"o":"m 133 992 l 504 0 l 383 0 l 14 992 l 133 992 z "},"]":{"ha":457,"x_min":35,"x_max":346,"o":"m 35 -119 l 226 -119 l 226 892 l 35 892 l 35 992 l 346 992 l 346 -219 l 35 -219 l 35 -119 z "},"^":{"ha":794,"x_min":53,"x_max":742,"o":"m 53 371 l 347 999 l 417 999 l 742 371 l 633 371 l 383 869 l 161 371 l 53 371 z "},"_":{"ha":617,"x_min":-3,"x_max":619,"o":"m 619 -214 l -3 -214 l -3 -125 l 619 -125 l 619 -214 z "},"`":{"ha":390,"x_min":56,"x_max":335,"o":"m 201 1064 q 240 995 217 1033 q 288 921 263 957 q 335 858 314 885 l 335 842 l 253 842 q 181 906 221 867 q 106 985 140 946 q 56 1050 72 1025 l 56 1064 l 201 1064 z "},"a":{"ha":779,"x_min":64,"x_max":667,"o":"m 400 757 q 601 697 536 757 q 667 507 667 638 l 667 0 l 578 0 l 554 106 l 549 106 q 447 15 500 44 q 299 -14 393 -14 q 131 40 197 -14 q 64 207 64 93 q 151 378 64 318 q 421 444 239 439 l 547 449 l 547 493 q 507 622 547 586 q 393 658 467 658 q 282 641 335 658 q 183 601 229 624 l 146 693 q 261 738 194 719 q 400 757 328 757 m 436 360 q 244 315 297 354 q 190 206 190 276 q 228 114 190 143 q 326 85 267 85 q 483 137 421 85 q 546 297 546 189 l 546 364 l 436 360 z "},"b":{"ha":854,"x_min":118,"x_max":778,"o":"m 240 799 q 238 710 240 751 q 233 646 236 669 l 240 646 q 328 725 272 693 q 471 757 383 757 q 694 660 610 757 q 778 372 778 564 q 693 83 778 181 q 471 -14 608 -14 q 328 18 383 -14 q 240 94 272 50 l 231 94 l 206 0 l 118 0 l 118 1056 l 240 1056 l 240 799 m 450 656 q 286 588 332 656 q 240 376 240 519 l 240 371 q 285 160 240 233 q 453 88 331 88 q 602 161 553 88 q 651 374 651 235 q 450 656 651 656 z "},"c":{"ha":667,"x_min":76,"x_max":621,"o":"m 417 -14 q 241 26 318 -14 q 120 151 164 67 q 76 368 76 236 q 122 592 76 506 q 247 718 168 678 q 425 758 325 758 q 535 747 482 758 q 621 718 588 735 l 583 617 q 506 640 550 629 q 422 651 461 651 q 203 369 203 651 q 256 163 203 235 q 415 92 310 92 q 523 104 476 92 q 608 135 569 117 l 608 26 q 526 -3 571 7 q 417 -14 481 -14 z "},"d":{"ha":854,"x_min":76,"x_max":736,"o":"m 382 -14 q 160 83 243 -14 q 76 371 76 179 q 160 660 76 563 q 383 758 244 758 q 524 726 469 758 q 614 649 579 694 l 622 649 q 617 702 621 667 q 614 758 614 738 l 614 1056 l 736 1056 l 736 0 l 638 0 l 619 100 l 614 100 q 525 19 581 53 q 382 -14 469 -14 m 401 88 q 567 152 519 88 q 615 347 615 217 l 615 369 q 569 583 615 508 q 400 657 524 657 q 252 578 301 657 q 203 368 203 500 q 252 161 203 235 q 401 88 301 88 z "},"e":{"ha":783,"x_min":76,"x_max":713,"o":"m 406 758 q 570 717 501 758 q 676 599 639 675 q 713 422 713 524 l 713 349 l 203 349 q 267 156 206 222 q 440 90 329 90 q 566 103 511 90 q 679 142 621 117 l 679 35 q 567 -2 622 10 q 435 -14 511 -14 q 248 29 329 -14 q 122 158 167 72 q 76 367 76 243 q 117 576 76 489 q 233 711 158 664 q 406 758 307 758 m 404 658 q 266 602 317 658 q 206 446 215 546 l 585 446 q 540 599 583 540 q 404 658 497 658 z "},"f":{"ha":478,"x_min":21,"x_max":538,"o":"m 461 650 l 274 650 l 274 0 l 151 0 l 151 650 l 21 650 l 21 707 l 151 749 l 151 792 q 215 999 151 936 q 393 1063 279 1063 q 474 1055 438 1063 q 538 1038 511 1047 l 506 942 q 454 956 483 949 q 394 963 425 963 q 303 922 333 963 q 274 793 274 881 l 274 744 l 461 744 l 461 650 z "},"g":{"ha":854,"x_min":76,"x_max":736,"o":"m 382 758 q 515 731 456 758 q 615 646 574 703 l 622 646 l 639 744 l 736 744 l 736 -12 q 655 -253 736 -172 q 403 -333 574 -333 q 135 -286 239 -333 l 135 -174 q 410 -232 244 -232 q 560 -176 506 -232 q 615 -22 615 -119 l 615 7 q 617 55 615 24 q 619 99 618 86 l 614 99 q 383 -14 539 -14 q 158 88 239 -14 q 76 371 76 189 q 158 653 76 549 q 382 758 239 758 m 399 656 q 254 581 306 656 q 203 369 203 507 q 253 159 203 232 q 401 86 304 86 q 565 147 514 86 q 617 342 617 207 l 617 371 q 564 590 617 524 q 399 656 511 656 z "},"h":{"ha":858,"x_min":118,"x_max":746,"o":"m 240 746 q 233 642 240 690 l 242 642 q 340 728 278 699 q 474 757 401 757 q 678 692 610 757 q 746 485 746 628 l 746 0 l 625 0 l 625 476 q 458 656 625 656 q 287 585 333 656 q 240 385 240 515 l 240 0 l 118 0 l 118 1056 l 240 1056 l 240 746 z "},"i":{"ha":358,"x_min":108,"x_max":251,"o":"m 181 1024 q 230 1005 208 1024 q 251 946 251 986 q 230 888 251 907 q 181 868 208 868 q 129 888 150 868 q 108 946 108 907 q 129 1005 108 986 q 181 1024 150 1024 m 240 744 l 240 0 l 118 0 l 118 744 l 240 744 z "},"j":{"ha":358,"x_min":-76,"x_max":251,"o":"m 108 946 q 129 1005 108 986 q 181 1024 150 1024 q 230 1005 208 1024 q 251 946 251 986 q 230 888 251 907 q 181 868 208 868 q 129 888 150 868 q 108 946 108 907 m 31 -333 q -31 -328 -4 -333 q -76 -317 -57 -324 l -76 -218 q -33 -228 -56 -224 q 15 -232 -11 -232 q 89 -208 60 -232 q 118 -115 118 -183 l 118 744 l 240 744 l 240 -111 q 190 -274 240 -215 q 31 -333 140 -333 z "},"k":{"ha":742,"x_min":118,"x_max":729,"o":"m 239 504 q 237 446 239 482 q 233 383 235 410 l 239 383 q 264 415 247 394 q 298 458 281 436 q 328 493 315 479 l 565 744 l 708 744 l 407 426 l 729 0 l 582 0 l 324 347 l 239 274 l 239 0 l 118 0 l 118 1056 l 239 1056 l 239 504 z "},"l":{"ha":358,"x_min":118,"x_max":240,"o":"m 240 0 l 118 0 l 118 1056 l 240 1056 l 240 0 z "},"m":{"ha":1299,"x_min":118,"x_max":1186,"o":"m 935 758 q 1124 694 1061 758 q 1186 485 1186 629 l 1186 0 l 1065 0 l 1065 479 q 914 656 1065 656 q 759 593 806 656 q 713 411 713 531 l 713 0 l 592 0 l 592 479 q 439 656 592 656 q 283 586 326 656 q 240 386 240 517 l 240 0 l 118 0 l 118 744 l 217 744 l 235 643 l 242 643 q 335 730 276 701 q 461 758 394 758 q 689 633 636 758 l 696 633 q 798 728 733 697 q 935 758 863 758 z "},"n":{"ha":858,"x_min":118,"x_max":746,"o":"m 476 758 q 678 694 610 758 q 746 485 746 629 l 746 0 l 625 0 l 625 476 q 458 656 625 656 q 288 586 335 656 q 240 386 240 517 l 240 0 l 118 0 l 118 744 l 217 744 l 235 643 l 242 643 q 342 730 278 701 q 476 758 406 758 z "},"o":{"ha":840,"x_min":76,"x_max":765,"o":"m 765 374 q 672 88 765 189 q 418 -14 578 -14 q 242 31 319 -14 q 121 163 165 76 q 76 374 76 250 q 169 658 76 558 q 422 758 263 758 q 601 713 524 758 q 722 583 678 668 q 765 374 765 497 m 203 374 q 255 165 203 242 q 421 88 307 88 q 586 165 533 88 q 639 374 639 242 q 586 581 639 506 q 419 656 533 656 q 254 581 306 656 q 203 374 203 506 z "},"p":{"ha":854,"x_min":118,"x_max":778,"o":"m 472 758 q 694 663 610 758 q 778 374 778 567 q 694 85 778 183 q 471 -14 610 -14 q 328 19 385 -14 q 240 94 272 51 l 232 94 q 238 35 235 71 q 240 -28 240 -1 l 240 -333 l 118 -333 l 118 744 l 218 744 l 235 643 l 240 643 q 328 725 274 692 q 472 758 382 758 m 450 656 q 290 592 336 656 q 240 397 243 528 l 240 374 q 285 162 240 236 q 453 88 331 88 q 565 125 521 88 q 630 227 608 163 q 651 375 651 292 q 602 579 651 503 q 450 656 553 656 z "},"q":{"ha":854,"x_min":76,"x_max":736,"o":"m 614 -15 q 615 43 614 10 q 621 100 617 76 l 613 100 q 524 19 581 53 q 379 -14 468 -14 q 160 83 244 -14 q 76 371 76 179 q 162 660 76 563 q 383 758 247 758 q 526 725 471 758 q 615 643 582 692 l 621 643 l 639 744 l 736 744 l 736 -333 l 614 -333 l 614 -15 m 403 88 q 566 151 518 88 q 615 344 614 214 l 615 369 q 568 584 615 511 q 400 657 521 657 q 251 578 300 657 q 203 368 203 500 q 252 162 203 236 q 403 88 301 88 z "},"r":{"ha":574,"x_min":118,"x_max":553,"o":"m 465 758 q 510 756 486 758 q 553 750 535 754 l 538 638 q 498 644 519 642 q 457 647 476 647 q 350 616 400 647 q 270 528 300 585 q 240 397 240 472 l 240 0 l 118 0 l 118 744 l 218 744 l 232 608 l 238 608 q 331 714 274 669 q 465 758 388 758 z "},"s":{"ha":665,"x_min":71,"x_max":603,"o":"m 603 206 q 522 42 603 97 q 306 -14 442 -14 q 172 -1 228 -14 q 72 33 115 11 l 72 144 q 180 103 117 122 q 308 85 243 85 q 443 115 401 85 q 485 194 485 144 q 469 244 485 222 q 415 289 454 267 q 301 339 375 311 q 178 394 229 367 q 99 461 126 422 q 71 561 71 500 q 148 707 71 656 q 350 758 225 758 q 477 745 418 758 q 588 708 536 732 l 546 611 q 447 644 499 631 q 342 658 396 658 q 227 634 267 658 q 188 568 188 610 q 206 516 188 538 q 266 474 224 494 q 379 426 308 454 q 500 372 450 400 q 576 305 550 344 q 603 206 603 265 z "},"t":{"ha":501,"x_min":22,"x_max":471,"o":"m 367 86 q 424 91 394 86 q 471 101 453 96 l 471 8 q 415 -8 451 -1 q 346 -14 379 -14 q 238 6 288 -14 q 158 76 189 26 q 128 217 128 126 l 128 650 l 22 650 l 22 708 l 129 757 l 178 915 l 250 915 l 250 744 l 465 744 l 465 650 l 250 650 l 250 219 q 283 119 250 151 q 367 86 315 86 z "},"u":{"ha":858,"x_min":110,"x_max":740,"o":"m 740 744 l 740 0 l 640 0 l 622 99 l 617 99 q 517 13 581 40 q 381 -14 453 -14 q 178 51 246 -14 q 110 257 110 115 l 110 744 l 233 744 l 233 265 q 399 88 233 88 q 570 157 522 88 q 618 357 618 226 l 618 744 l 740 744 z "},"v":{"ha":706,"x_min":0,"x_max":706,"o":"m 282 0 l 0 744 l 131 744 l 289 306 q 313 238 300 275 q 335 166 325 200 q 349 108 344 132 l 354 108 q 370 167 360 132 q 394 239 381 201 q 417 306 407 276 l 575 744 l 706 744 l 422 0 l 282 0 z "},"w":{"ha":1092,"x_min":15,"x_max":1076,"o":"m 599 421 q 567 533 581 478 q 547 618 554 588 l 542 618 q 524 533 536 588 q 492 419 511 478 l 358 1 l 219 1 l 15 746 l 142 746 l 244 349 q 274 228 260 289 q 293 126 288 167 l 299 126 q 312 185 304 150 q 329 258 319 219 q 349 326 339 296 l 481 746 l 614 746 l 742 326 q 772 224 757 279 q 792 128 786 168 l 797 128 q 816 224 801 163 q 847 349 831 285 l 951 746 l 1076 746 l 869 1 l 726 1 l 599 421 z "},"x":{"ha":735,"x_min":25,"x_max":710,"o":"m 294 381 l 38 744 l 176 744 l 368 464 l 558 744 l 696 744 l 439 381 l 710 0 l 571 0 l 368 297 l 163 0 l 25 0 l 294 381 z "},"y":{"ha":708,"x_min":1,"x_max":708,"o":"m 1 744 l 132 744 l 293 321 q 331 215 314 265 q 356 118 347 164 l 361 118 q 388 209 369 153 q 425 322 406 265 l 576 744 l 708 744 l 388 -103 q 287 -271 349 -208 q 117 -333 225 -333 q 58 -330 83 -333 q 15 -322 33 -326 l 15 -225 q 52 -231 31 -228 q 97 -233 74 -233 q 201 -197 161 -233 q 263 -101 240 -161 l 301 -3 l 1 744 z "},"z":{"ha":653,"x_min":54,"x_max":599,"o":"m 599 0 l 54 0 l 54 81 l 454 650 l 78 650 l 78 744 l 589 744 l 589 653 l 194 94 l 599 94 l 599 0 z "},"{":{"ha":528,"x_min":39,"x_max":483,"o":"m 483 -219 q 282 -164 356 -218 q 208 1 208 -110 l 208 206 q 165 306 208 276 q 39 336 121 336 l 39 438 q 165 468 121 439 q 208 567 208 497 l 208 772 q 285 938 208 883 q 483 992 361 992 l 483 892 q 370 860 411 890 q 329 761 329 829 l 329 561 q 178 392 329 418 l 178 383 q 329 214 329 357 l 329 10 q 369 -88 329 -58 q 483 -119 410 -118 l 483 -219 z "},"|":{"ha":765,"x_min":332,"x_max":433,"o":"m 332 1056 l 433 1056 l 433 -335 l 332 -335 l 332 1056 z "},"}":{"ha":528,"x_min":44,"x_max":489,"o":"m 44 -119 q 158 -87 117 -117 q 199 11 199 -57 l 199 213 q 350 382 199 356 l 350 390 q 199 560 199 417 l 199 763 q 158 860 199 831 q 44 892 118 890 l 44 992 q 246 936 172 990 q 319 771 319 882 l 319 568 q 363 467 319 497 q 489 438 407 438 l 489 336 q 363 306 407 335 q 319 207 319 276 l 319 0 q 243 -165 319 -110 q 44 -219 167 -219 l 44 -119 z "},"~":{"ha":794,"x_min":69,"x_max":724,"o":"m 374 443 q 291 473 324 465 q 228 481 258 481 q 146 457 189 481 q 69 399 103 433 l 69 507 q 236 581 136 581 q 316 572 276 581 q 419 536 356 564 q 502 506 469 514 q 564 499 535 499 q 647 522 604 499 q 724 581 690 546 l 724 474 q 557 399 656 399 q 477 408 518 399 q 374 443 436 417 z "}," ":{"ha":361,"x_min":0,"x_max":0,"o":""},"¡":{"ha":374,"x_min":100,"x_max":272,"o":"m 272 664 q 247 592 272 613 q 186 571 222 571 q 126 592 151 571 q 100 664 100 613 q 126 736 100 714 q 186 758 151 758 q 247 736 222 758 q 272 664 272 714 m 144 458 l 225 458 l 260 -253 l 110 -253 l 144 458 z "},"¢":{"ha":794,"x_min":126,"x_max":674,"o":"m 490 894 q 591 881 543 893 q 674 854 639 869 l 638 753 q 556 778 601 767 q 472 789 510 789 q 305 719 358 789 q 251 504 251 649 q 306 294 251 360 q 467 228 361 228 q 573 240 528 228 q 661 269 618 251 l 661 163 q 583 134 624 144 q 489 121 543 124 l 489 -14 l 396 -14 l 396 125 q 253 179 314 138 q 160 300 193 221 q 126 503 126 379 q 160 710 126 629 q 254 833 193 790 q 396 889 315 876 l 396 1006 l 490 1006 l 490 894 z "},"£":{"ha":794,"x_min":44,"x_max":743,"o":"m 464 1004 q 601 988 540 1004 q 710 947 663 971 l 667 850 q 574 886 625 869 q 467 903 524 903 q 346 862 388 903 q 304 729 304 821 l 304 536 l 588 536 l 588 444 l 304 444 l 304 300 q 275 174 304 215 q 210 111 246 133 l 743 111 l 743 0 l 44 0 l 44 103 q 143 163 104 118 q 182 299 182 207 l 182 444 l 49 444 l 49 536 l 182 536 l 182 742 q 259 935 182 865 q 464 1004 336 1004 z "},"¤":{"ha":794,"x_min":82,"x_max":710,"o":"m 125 490 q 138 572 125 532 q 174 643 151 611 l 82 738 l 150 803 l 242 714 q 314 750 274 738 q 397 763 354 763 q 478 750 440 763 q 550 714 517 738 l 643 803 l 710 738 l 621 644 q 656 573 642 613 q 669 490 669 533 q 621 335 669 403 l 708 243 l 643 178 l 550 267 q 479 232 518 244 q 397 219 440 219 q 242 268 308 219 l 150 179 l 83 244 l 174 336 q 138 408 151 368 q 125 490 125 447 m 218 490 q 242 400 218 440 q 306 335 265 360 q 397 311 347 311 q 489 335 449 311 q 553 400 529 360 q 578 490 578 440 q 553 583 578 542 q 489 648 529 624 q 397 672 449 672 q 306 648 347 672 q 242 583 265 624 q 218 490 218 542 z "},"¥":{"ha":794,"x_min":19,"x_max":772,"o":"m 396 507 l 644 992 l 772 992 l 493 471 l 665 471 l 665 382 l 456 382 l 456 268 l 665 268 l 665 179 l 456 179 l 456 0 l 336 0 l 336 179 l 126 179 l 126 268 l 336 268 l 336 382 l 126 382 l 126 471 l 296 471 l 19 992 l 149 992 l 396 507 z "},"¦":{"ha":765,"x_min":332,"x_max":433,"o":"m 332 1056 l 433 1056 l 433 526 l 332 526 l 332 1056 m 332 194 l 433 194 l 433 -335 l 332 -335 l 332 194 z "},"§":{"ha":713,"x_min":82,"x_max":621,"o":"m 93 549 q 126 660 93 618 q 203 724 160 703 q 125 790 153 751 q 97 883 97 828 q 168 1015 97 967 q 371 1063 239 1063 q 503 1049 449 1063 q 608 1015 557 1036 l 571 922 q 476 955 524 942 q 363 968 429 968 q 245 947 279 968 q 211 886 211 925 q 250 820 211 847 q 394 754 289 793 q 561 665 501 715 q 621 532 621 615 q 589 416 621 461 q 517 347 557 371 q 592 284 565 321 q 619 194 619 247 q 540 46 619 99 q 317 -7 460 -7 q 183 5 240 -7 q 82 39 126 17 l 82 143 q 192 104 126 122 q 322 86 257 86 q 464 116 425 86 q 503 185 503 146 q 490 231 503 211 q 438 272 476 250 q 324 321 400 293 q 199 378 251 349 q 120 447 147 407 q 93 549 93 488 m 197 563 q 241 476 197 511 q 396 399 285 440 l 426 388 q 487 437 458 407 q 515 514 515 467 q 497 576 515 549 q 431 630 478 604 q 297 682 383 656 q 228 640 258 672 q 197 563 197 608 z "},"¨":{"ha":806,"x_min":207,"x_max":597,"o":"m 207 946 q 226 998 207 982 q 272 1014 246 1014 q 318 998 299 1014 q 338 946 338 982 q 318 894 338 911 q 272 876 299 876 q 226 894 246 876 q 207 946 207 911 m 468 946 q 487 998 468 982 q 532 1014 506 1014 q 578 998 558 1014 q 597 946 597 982 q 578 894 597 911 q 532 876 558 876 q 487 894 506 876 q 468 946 468 911 z "},"©":{"ha":1156,"x_min":68,"x_max":1088,"o":"m 578 -14 q 374 24 467 -14 q 212 130 281 61 q 106 292 143 199 q 68 496 68 385 q 106 700 68 607 q 212 862 143 793 q 374 968 281 931 q 578 1006 467 1006 q 776 968 683 1006 q 938 862 868 931 q 1048 700 1008 793 q 1088 496 1088 607 q 1050 292 1088 385 q 944 130 1013 199 q 782 24 875 61 q 578 -14 689 -14 m 578 60 q 744 92 667 60 q 882 183 822 124 q 975 321 942 242 q 1008 496 1008 400 q 976 665 1008 586 q 887 804 944 744 q 751 898 829 864 q 578 932 672 932 q 355 876 453 932 q 201 722 257 819 q 146 496 146 624 q 178 326 146 406 q 267 188 210 247 q 404 94 325 128 q 578 60 483 60 m 599 185 q 393 270 461 185 q 325 496 325 356 q 357 656 325 586 q 451 766 389 726 q 604 806 514 806 q 775 764 694 806 l 735 679 q 606 715 665 715 q 478 657 524 715 q 433 496 433 599 q 473 333 433 390 q 604 275 513 275 q 676 284 636 275 q 750 307 715 293 l 750 218 q 682 194 717 204 q 599 185 647 185 z "},"ª":{"ha":496,"x_min":44,"x_max":428,"o":"m 246 1003 q 382 965 336 1003 q 428 846 428 928 l 428 540 l 363 540 l 346 599 q 279 551 318 569 q 188 532 240 532 q 83 566 122 532 q 44 669 44 600 q 264 815 44 807 l 342 818 l 342 849 q 313 913 342 894 q 243 931 283 931 q 169 920 204 931 q 103 894 135 910 l 72 963 q 153 992 108 981 q 246 1003 199 1003 m 275 753 q 163 728 192 750 q 133 669 133 707 q 153 619 133 635 q 208 603 174 603 q 310 635 279 603 q 342 724 342 668 l 342 756 l 275 753 z "},"«":{"ha":707,"x_min":56,"x_max":653,"o":"m 56 375 l 289 654 l 376 604 l 182 367 l 376 129 l 289 78 l 56 357 l 56 375 m 331 375 l 567 654 l 653 604 l 458 367 l 653 129 l 567 78 l 331 357 l 331 375 z "},"¬":{"ha":794,"x_min":69,"x_max":722,"o":"m 722 539 l 722 178 l 624 178 l 624 440 l 69 440 l 69 539 l 722 539 z "},"­":{"ha":447,"x_min":56,"x_max":392,"o":"m 56 318 l 56 426 l 392 426 l 392 318 l 56 318 z "},"®":{"ha":1156,"x_min":68,"x_max":1088,"o":"m 578 -14 q 374 24 467 -14 q 212 130 281 61 q 106 292 143 199 q 68 496 68 385 q 106 700 68 607 q 212 862 143 793 q 374 968 281 931 q 578 1006 467 1006 q 776 968 683 1006 q 938 862 868 931 q 1048 700 1008 793 q 1088 496 1088 607 q 1050 292 1088 385 q 944 130 1013 199 q 782 24 875 61 q 578 -14 689 -14 m 578 60 q 744 92 667 60 q 882 183 822 124 q 975 321 942 242 q 1008 496 1008 400 q 976 665 1008 586 q 887 804 944 744 q 751 898 829 864 q 578 932 672 932 q 355 876 453 932 q 201 722 257 819 q 146 496 146 624 q 178 326 146 406 q 267 188 210 247 q 404 94 325 128 q 578 60 483 60 m 388 192 l 388 799 l 565 799 q 732 754 679 799 q 785 619 785 710 q 751 516 785 554 q 676 461 718 478 l 838 192 l 718 192 l 579 432 l 493 432 l 493 192 l 388 192 m 563 518 q 647 546 617 518 q 678 617 678 574 q 650 688 678 665 q 561 710 622 710 l 493 710 l 493 518 l 563 518 z "},"¯":{"ha":694,"x_min":-4,"x_max":699,"o":"m 699 1056 l -4 1056 l -4 1147 l 699 1147 l 699 1056 z "},"°":{"ha":594,"x_min":76,"x_max":518,"o":"m 297 579 q 137 638 197 579 q 76 792 76 697 q 136 946 76 886 q 297 1006 196 1006 q 457 946 396 1006 q 518 792 518 886 q 457 638 518 697 q 297 579 396 579 m 299 661 q 397 697 365 661 q 428 792 428 733 q 395 889 428 853 q 299 925 363 925 q 199 889 231 925 q 167 792 167 853 q 199 697 167 733 q 299 661 231 661 z "},"±":{"ha":794,"x_min":69,"x_max":724,"o":"m 446 543 l 722 543 l 722 444 l 446 444 l 446 158 l 346 158 l 346 444 l 69 444 l 69 543 l 346 543 l 346 831 l 446 831 l 446 543 m 69 0 l 69 99 l 724 99 l 724 0 l 69 0 z "},"²":{"ha":486,"x_min":33,"x_max":426,"o":"m 425 578 l 33 578 l 33 653 l 193 808 q 278 897 250 863 q 317 958 307 931 q 328 1015 328 985 q 302 1082 328 1060 q 235 1104 276 1104 q 159 1088 193 1104 q 89 1044 125 1072 l 40 1108 q 128 1164 81 1143 q 236 1185 176 1185 q 376 1141 325 1185 q 426 1021 426 1097 q 385 899 426 953 q 267 771 344 844 l 154 664 l 425 664 l 425 578 z "},"³":{"ha":486,"x_min":24,"x_max":446,"o":"m 229 1185 q 378 1142 328 1185 q 428 1032 428 1099 q 398 940 428 976 q 326 890 368 904 l 326 886 q 413 841 381 876 q 446 749 446 806 q 388 617 446 668 q 206 567 329 567 q 110 576 154 567 q 24 606 65 585 l 24 693 q 207 646 121 646 q 313 674 279 646 q 346 751 346 703 q 306 824 346 801 q 193 847 265 847 l 114 847 l 114 924 l 193 924 q 295 951 263 924 q 328 1021 328 978 q 299 1085 328 1065 q 231 1106 271 1106 q 151 1091 188 1106 q 76 1053 114 1076 l 26 1117 q 117 1167 69 1149 q 229 1185 165 1185 z "},"´":{"ha":390,"x_min":56,"x_max":335,"o":"m 335 1050 q 283 985 318 1025 q 209 906 249 946 q 136 842 169 867 l 56 842 l 56 858 q 101 921 76 885 q 149 995 125 957 q 188 1064 172 1033 l 335 1064 l 335 1050 z "},"µ":{"ha":865,"x_min":118,"x_max":747,"o":"m 747 744 l 747 0 l 649 0 l 629 100 l 622 100 q 532 15 588 44 q 399 -14 476 -14 q 306 3 344 -14 q 239 49 267 21 l 233 49 q 238 -18 236 24 q 240 -117 240 -60 l 240 -333 l 118 -333 l 118 744 l 240 744 l 240 264 q 407 88 240 88 q 578 157 531 88 q 625 357 625 226 l 625 744 l 747 744 z "},"¶":{"ha":910,"x_min":76,"x_max":763,"o":"m 763 -176 l 682 -176 l 682 978 l 540 978 l 540 -176 l 460 -176 l 460 379 q 412 370 439 374 q 361 367 385 367 q 211 399 275 367 q 112 506 147 431 q 76 707 76 581 q 115 916 76 840 q 222 1024 153 992 q 382 1056 292 1056 l 763 1056 l 763 -176 z "},"·":{"ha":372,"x_min":100,"x_max":272,"o":"m 100 490 q 125 563 100 542 q 185 583 150 583 q 247 563 221 583 q 272 490 272 542 q 247 418 272 440 q 185 396 221 396 q 125 418 150 396 q 100 490 100 440 z "},"¸":{"ha":313,"x_min":19,"x_max":294,"o":"m 294 -193 q 243 -297 294 -260 q 89 -333 192 -333 q 19 -326 44 -333 l 19 -250 q 53 -255 32 -253 q 93 -257 74 -257 q 169 -244 143 -257 q 196 -196 196 -231 q 159 -143 196 -160 q 69 -119 122 -126 l 129 0 l 210 0 l 174 -74 q 259 -112 224 -85 q 294 -193 294 -140 z "},"¹":{"ha":486,"x_min":51,"x_max":333,"o":"m 333 1172 l 333 578 l 235 578 l 235 961 q 237 1026 235 997 q 240 1085 239 1056 q 210 1058 226 1072 q 175 1031 193 1043 l 100 976 l 51 1044 l 232 1172 l 333 1172 z "},"º":{"ha":522,"x_min":44,"x_max":479,"o":"m 479 768 q 419 594 479 656 q 260 532 360 532 q 106 592 167 532 q 44 768 44 653 q 103 942 44 882 q 263 1003 161 1003 q 420 943 361 1003 q 479 768 479 883 m 132 768 q 163 647 132 688 q 261 606 193 606 q 360 647 329 606 q 390 768 390 688 q 360 890 390 850 q 261 929 329 929 q 163 890 193 929 q 132 768 132 850 z "},"»":{"ha":707,"x_min":54,"x_max":651,"o":"m 651 357 l 415 78 l 329 129 l 524 367 l 329 604 l 415 654 l 651 375 l 651 357 m 375 357 l 140 78 l 54 129 l 249 367 l 54 604 l 140 654 l 375 375 l 375 357 z "},"¼":{"ha":1035,"x_min":47,"x_max":1022,"o":"m 175 0 l 781 992 l 885 992 l 279 0 l 175 0 m 231 781 q 233 846 231 817 q 236 904 235 875 q 206 877 222 892 q 171 850 189 863 l 96 796 l 47 864 l 228 992 l 329 992 l 329 397 l 231 397 l 231 781 m 833 0 l 833 133 l 563 133 l 563 206 l 836 599 l 938 599 l 938 217 l 1022 217 l 1022 133 l 938 133 l 938 0 l 833 0 m 660 217 l 833 217 l 833 346 q 835 414 833 375 q 838 486 836 453 q 808 437 831 471 q 771 379 786 403 l 660 217 z "},"½":{"ha":1071,"x_min":31,"x_max":1011,"o":"m 133 0 l 739 992 l 843 992 l 238 0 l 133 0 m 214 781 q 216 846 214 817 q 219 904 218 875 q 189 877 206 892 q 154 850 172 863 l 79 796 l 31 864 l 211 992 l 313 992 l 313 397 l 214 397 l 214 781 m 618 0 l 618 75 l 778 231 q 863 319 835 285 q 902 380 892 353 q 913 438 913 407 q 887 504 913 482 q 819 526 861 526 q 744 510 778 526 q 674 467 710 494 l 625 531 q 713 586 665 565 q 821 607 761 607 q 960 563 910 607 q 1011 443 1011 519 q 970 321 1011 375 q 851 193 929 267 l 739 86 l 1010 86 l 1010 0 l 618 0 z "},"¾":{"ha":1085,"x_min":21,"x_max":1072,"o":"m 203 386 q 107 395 151 386 q 21 425 63 404 l 21 513 q 204 465 118 465 q 310 494 276 465 q 343 571 343 522 q 303 644 343 621 q 190 667 263 667 l 111 667 l 111 743 l 190 743 q 292 770 260 743 q 325 840 325 797 q 297 905 325 885 q 228 925 268 925 q 148 910 185 925 q 74 872 111 896 l 24 936 q 115 986 67 968 q 226 1004 163 1004 q 375 961 325 1004 q 425 851 425 918 q 395 760 425 796 q 324 710 365 724 l 324 706 q 410 660 378 696 q 443 568 443 625 q 385 437 443 488 q 203 386 326 386 m 236 0 l 842 992 l 946 992 l 340 0 l 236 0 m 883 0 l 883 133 l 613 133 l 613 206 l 886 599 l 988 599 l 988 217 l 1072 217 l 1072 133 l 988 133 l 988 0 l 883 0 m 710 217 l 883 217 l 883 346 q 885 414 883 375 q 888 486 886 453 q 858 437 881 471 q 821 379 836 403 l 710 217 z "},"¿":{"ha":603,"x_min":33,"x_max":583,"o":"m 438 664 q 413 592 438 613 q 351 571 389 571 q 292 592 317 571 q 267 664 267 613 q 292 736 267 714 q 351 758 317 758 q 413 736 389 758 q 438 664 438 714 m 406 422 q 395 332 406 371 q 360 259 385 293 q 289 186 335 225 q 206 110 236 142 q 163 50 175 79 q 150 -21 150 21 q 194 -124 150 -87 q 318 -160 238 -160 q 440 -142 388 -160 q 540 -101 493 -124 l 583 -199 q 460 -247 528 -228 q 310 -267 393 -267 q 106 -201 178 -267 q 33 -24 33 -136 q 53 83 33 39 q 110 163 74 126 q 197 242 147 200 q 268 310 244 282 q 300 368 292 339 q 308 436 308 397 l 308 460 l 406 460 l 406 422 z "},"À":{"ha":888,"x_min":0,"x_max":886,"o":"m 757 0 l 638 307 l 244 307 l 126 0 l 0 0 l 388 996 l 500 996 l 886 0 l 757 0 m 489 718 q 475 758 485 729 q 456 819 465 788 q 442 867 447 850 q 419 783 432 824 q 399 718 407 742 l 286 418 l 600 418 l 489 718 m 407 1311 q 445 1242 422 1281 q 494 1168 468 1204 q 540 1106 519 1132 l 540 1089 l 458 1089 q 386 1153 426 1114 q 312 1233 346 1193 q 261 1297 278 1272 l 261 1311 l 407 1311 z "},"Á":{"ha":888,"x_min":0,"x_max":886,"o":"m 757 0 l 638 307 l 244 307 l 126 0 l 0 0 l 388 996 l 500 996 l 886 0 l 757 0 m 489 718 q 475 758 485 729 q 456 819 465 788 q 442 867 447 850 q 419 783 432 824 q 399 718 407 742 l 286 418 l 600 418 l 489 718 m 647 1297 q 596 1233 631 1272 q 522 1153 561 1193 q 449 1089 482 1114 l 368 1089 l 368 1106 q 413 1168 389 1132 q 461 1242 438 1204 q 500 1311 485 1281 l 647 1311 l 647 1297 z "},"Â":{"ha":888,"x_min":0,"x_max":886,"o":"m 757 0 l 638 307 l 244 307 l 126 0 l 0 0 l 388 996 l 500 996 l 886 0 l 757 0 m 489 718 q 475 758 485 729 q 456 819 465 788 q 442 867 447 850 q 419 783 432 824 q 399 718 407 742 l 286 418 l 600 418 l 489 718 m 503 1311 q 551 1242 519 1281 q 616 1167 582 1204 q 676 1104 650 1131 l 676 1089 l 590 1089 q 515 1144 554 1111 q 439 1214 476 1176 q 364 1144 401 1176 q 290 1089 326 1113 l 207 1089 l 207 1104 q 266 1168 233 1132 q 329 1242 299 1204 q 378 1311 360 1281 l 503 1311 z "},"Ã":{"ha":888,"x_min":0,"x_max":886,"o":"m 757 0 l 638 307 l 244 307 l 126 0 l 0 0 l 388 996 l 500 996 l 886 0 l 757 0 m 489 718 q 475 758 485 729 q 456 819 465 788 q 442 867 447 850 q 419 783 432 824 q 399 718 407 742 l 286 418 l 600 418 l 489 718 m 188 1089 q 235 1219 196 1171 q 340 1267 275 1267 q 419 1247 382 1267 q 489 1207 456 1226 q 551 1188 522 1188 q 601 1208 583 1188 q 628 1268 618 1228 l 697 1268 q 650 1139 689 1188 q 546 1090 611 1090 q 470 1110 507 1090 q 399 1149 433 1129 q 335 1169 365 1169 q 285 1149 301 1169 q 258 1089 268 1129 l 188 1089 z "},"Ä":{"ha":888,"x_min":0,"x_max":886,"o":"m 757 0 l 638 307 l 244 307 l 126 0 l 0 0 l 388 996 l 500 996 l 886 0 l 757 0 m 489 718 q 475 758 485 729 q 456 819 465 788 q 442 867 447 850 q 419 783 432 824 q 399 718 407 742 l 286 418 l 600 418 l 489 718 m 247 1193 q 267 1245 247 1229 q 313 1261 286 1261 q 358 1245 339 1261 q 378 1193 378 1229 q 358 1141 378 1158 q 313 1124 339 1124 q 267 1141 286 1124 q 247 1193 247 1158 m 508 1193 q 527 1245 508 1229 q 572 1261 546 1261 q 618 1245 599 1261 q 638 1193 638 1229 q 618 1141 638 1158 q 572 1124 599 1124 q 527 1141 546 1124 q 508 1193 508 1158 z "},"Å":{"ha":888,"x_min":0,"x_max":886,"o":"m 757 0 l 638 307 l 244 307 l 126 0 l 0 0 l 388 996 l 500 996 l 886 0 l 757 0 m 489 718 q 475 758 485 729 q 456 819 465 788 q 442 867 447 850 q 419 783 432 824 q 399 718 407 742 l 286 418 l 600 418 l 489 718 m 440 926 q 331 965 372 926 q 289 1074 289 1004 q 331 1181 289 1143 q 440 1219 372 1219 q 550 1181 506 1219 q 594 1075 594 1143 q 551 965 594 1004 q 440 926 507 926 m 440 996 q 497 1017 475 996 q 518 1074 518 1038 q 496 1131 518 1110 q 440 1151 474 1151 q 385 1131 407 1151 q 363 1074 363 1110 q 383 1017 363 1038 q 440 996 403 996 z "},"Æ":{"ha":1224,"x_min":-1,"x_max":1140,"o":"m 1140 0 l 624 0 l 624 307 l 276 307 l 128 0 l -1 0 l 469 992 l 1140 992 l 1140 882 l 749 882 l 749 572 l 1114 572 l 1114 464 l 749 464 l 749 110 l 1140 110 l 1140 0 m 325 418 l 624 418 l 624 881 l 543 881 l 325 418 z "},"Ç":{"ha":878,"x_min":85,"x_max":835,"o":"m 560 896 q 308 789 400 896 q 217 496 217 682 q 302 203 217 311 q 558 96 388 96 q 682 107 624 96 q 796 135 740 118 l 796 26 q 681 -4 740 6 q 540 -14 622 -14 q 288 49 389 -14 q 135 226 186 111 q 85 497 85 342 q 140 762 85 647 q 301 941 194 876 q 561 1006 408 1006 q 835 947 718 1006 l 785 842 q 683 879 739 863 q 560 896 626 896 m 657 -193 q 606 -297 657 -260 q 451 -333 554 -333 q 382 -326 407 -333 l 382 -250 q 415 -255 394 -253 q 456 -257 436 -257 q 532 -244 506 -257 q 558 -196 558 -231 q 522 -143 558 -160 q 432 -119 485 -126 l 492 0 l 572 0 l 536 -74 q 622 -112 586 -85 q 657 -193 657 -140 z "},"È":{"ha":772,"x_min":135,"x_max":689,"o":"m 689 0 l 135 0 l 135 992 l 689 992 l 689 882 l 260 882 l 260 572 l 664 572 l 664 464 l 260 464 l 260 110 l 689 110 l 689 0 m 389 1311 q 427 1242 404 1281 q 476 1168 450 1204 q 522 1106 501 1132 l 522 1089 l 440 1089 q 368 1153 408 1114 q 294 1233 328 1193 q 243 1297 260 1272 l 243 1311 l 389 1311 z "},"É":{"ha":772,"x_min":135,"x_max":689,"o":"m 689 0 l 135 0 l 135 992 l 689 992 l 689 882 l 260 882 l 260 572 l 664 572 l 664 464 l 260 464 l 260 110 l 689 110 l 689 0 m 629 1297 q 578 1233 613 1272 q 503 1153 543 1193 q 431 1089 464 1114 l 350 1089 l 350 1106 q 395 1168 371 1132 q 443 1242 419 1204 q 482 1311 467 1281 l 629 1311 l 629 1297 z "},"Ê":{"ha":772,"x_min":135,"x_max":689,"o":"m 689 0 l 135 0 l 135 992 l 689 992 l 689 882 l 260 882 l 260 572 l 664 572 l 664 464 l 260 464 l 260 110 l 689 110 l 689 0 m 485 1311 q 533 1242 501 1281 q 598 1167 564 1204 q 658 1104 632 1131 l 658 1089 l 572 1089 q 497 1144 536 1111 q 421 1214 458 1176 q 346 1144 383 1176 q 272 1089 308 1113 l 189 1089 l 189 1104 q 248 1168 215 1132 q 311 1242 281 1204 q 360 1311 342 1281 l 485 1311 z "},"Ë":{"ha":772,"x_min":135,"x_max":689,"o":"m 689 0 l 135 0 l 135 992 l 689 992 l 689 882 l 260 882 l 260 572 l 664 572 l 664 464 l 260 464 l 260 110 l 689 110 l 689 0 m 229 1193 q 249 1245 229 1229 q 294 1261 268 1261 q 340 1245 321 1261 q 360 1193 360 1229 q 340 1141 360 1158 q 294 1124 321 1124 q 249 1141 268 1124 q 229 1193 229 1158 m 490 1193 q 509 1245 490 1229 q 554 1261 528 1261 q 600 1245 581 1261 q 619 1193 619 1229 q 600 1141 619 1158 q 554 1124 581 1124 q 509 1141 528 1124 q 490 1193 490 1158 z "},"Ì":{"ha":471,"x_min":56,"x_max":414,"o":"m 414 0 l 56 0 l 56 72 l 172 99 l 172 892 l 56 919 l 56 992 l 414 992 l 414 919 l 297 892 l 297 99 l 414 72 l 414 0 m 201 1311 q 240 1242 217 1281 q 288 1168 263 1204 q 335 1106 314 1132 l 335 1089 l 253 1089 q 181 1153 221 1114 q 106 1233 140 1193 q 56 1297 72 1272 l 56 1311 l 201 1311 z "},"Í":{"ha":471,"x_min":56,"x_max":442,"o":"m 414 0 l 56 0 l 56 72 l 172 99 l 172 892 l 56 919 l 56 992 l 414 992 l 414 919 l 297 892 l 297 99 l 414 72 l 414 0 m 442 1297 q 390 1233 425 1272 q 316 1153 356 1193 q 243 1089 276 1114 l 163 1089 l 163 1106 q 208 1168 183 1132 q 256 1242 232 1204 q 294 1311 279 1281 l 442 1311 l 442 1297 z "},"Î":{"ha":471,"x_min":1,"x_max":471,"o":"m 414 0 l 56 0 l 56 72 l 172 99 l 172 892 l 56 919 l 56 992 l 414 992 l 414 919 l 297 892 l 297 99 l 414 72 l 414 0 m 297 1311 q 345 1242 314 1281 q 410 1167 376 1204 q 471 1104 444 1131 l 471 1089 l 385 1089 q 310 1144 349 1111 q 233 1214 271 1176 q 158 1144 196 1176 q 85 1089 121 1113 l 1 1089 l 1 1104 q 60 1168 28 1132 q 124 1242 93 1204 q 172 1311 154 1281 l 297 1311 z "},"Ï":{"ha":471,"x_min":42,"x_max":432,"o":"m 414 0 l 56 0 l 56 72 l 172 99 l 172 892 l 56 919 l 56 992 l 414 992 l 414 919 l 297 892 l 297 99 l 414 72 l 414 0 m 42 1193 q 61 1245 42 1229 q 107 1261 81 1261 q 153 1245 133 1261 q 172 1193 172 1229 q 153 1141 172 1158 q 107 1124 133 1124 q 61 1141 81 1124 q 42 1193 42 1158 m 303 1193 q 322 1245 303 1229 q 367 1261 340 1261 q 413 1245 393 1261 q 432 1193 432 1229 q 413 1141 432 1158 q 367 1124 393 1124 q 322 1141 340 1124 q 303 1193 303 1158 z "},"Ð":{"ha":1014,"x_min":42,"x_max":929,"o":"m 440 992 q 699 936 589 992 q 869 773 808 881 q 929 506 929 665 q 792 127 929 254 q 410 0 656 0 l 144 0 l 144 436 l 42 436 l 42 544 l 144 544 l 144 992 l 440 992 m 422 885 l 269 885 l 269 544 l 517 544 l 517 436 l 269 436 l 269 107 l 394 107 q 797 501 797 107 q 699 792 797 700 q 422 885 600 885 z "},"Ñ":{"ha":1056,"x_min":135,"x_max":921,"o":"m 921 0 l 775 0 l 244 824 l 239 824 q 246 703 242 775 q 250 554 250 631 l 250 0 l 135 0 l 135 992 l 279 992 l 808 171 l 814 171 q 810 238 813 193 q 806 335 808 282 q 804 432 804 388 l 804 992 l 921 992 l 921 0 m 274 1089 q 322 1219 282 1171 q 426 1267 361 1267 q 505 1247 468 1267 q 575 1207 542 1226 q 638 1188 608 1188 q 687 1208 669 1188 q 714 1268 704 1228 l 783 1268 q 736 1139 775 1188 q 632 1090 697 1090 q 556 1110 593 1090 q 485 1149 519 1129 q 421 1169 451 1169 q 371 1149 388 1169 q 344 1089 354 1129 l 274 1089 z "},"Ò":{"ha":1085,"x_min":85,"x_max":1000,"o":"m 1000 497 q 948 228 1000 343 q 794 50 896 114 q 543 -14 693 -14 q 287 50 389 -14 q 135 229 185 114 q 85 499 85 344 q 135 765 85 651 q 287 943 185 879 q 544 1007 389 1007 q 794 944 693 1007 q 948 766 896 881 q 1000 497 1000 651 m 217 497 q 296 202 217 310 q 543 94 375 94 q 790 202 713 94 q 868 497 868 310 q 790 791 868 685 q 544 897 713 897 q 297 791 376 897 q 217 497 217 685 m 508 1311 q 547 1242 524 1281 q 595 1168 569 1204 q 642 1106 621 1132 l 642 1089 l 560 1089 q 488 1153 528 1114 q 413 1233 447 1193 q 363 1297 379 1272 l 363 1311 l 508 1311 z "},"Ó":{"ha":1085,"x_min":85,"x_max":1000,"o":"m 1000 497 q 948 228 1000 343 q 794 50 896 114 q 543 -14 693 -14 q 287 50 389 -14 q 135 229 185 114 q 85 499 85 344 q 135 765 85 651 q 287 943 185 879 q 544 1007 389 1007 q 794 944 693 1007 q 948 766 896 881 q 1000 497 1000 651 m 217 497 q 296 202 217 310 q 543 94 375 94 q 790 202 713 94 q 868 497 868 310 q 790 791 868 685 q 544 897 713 897 q 297 791 376 897 q 217 497 217 685 m 749 1297 q 697 1233 732 1272 q 623 1153 663 1193 q 550 1089 583 1114 l 469 1089 l 469 1106 q 515 1168 490 1132 q 563 1242 539 1204 q 601 1311 586 1281 l 749 1311 l 749 1297 z "},"Ô":{"ha":1085,"x_min":85,"x_max":1000,"o":"m 1000 497 q 948 228 1000 343 q 794 50 896 114 q 543 -14 693 -14 q 287 50 389 -14 q 135 229 185 114 q 85 499 85 344 q 135 765 85 651 q 287 943 185 879 q 544 1007 389 1007 q 794 944 693 1007 q 948 766 896 881 q 1000 497 1000 651 m 217 497 q 296 202 217 310 q 543 94 375 94 q 790 202 713 94 q 868 497 868 310 q 790 791 868 685 q 544 897 713 897 q 297 791 376 897 q 217 497 217 685 m 604 1311 q 652 1242 621 1281 q 717 1167 683 1204 q 778 1104 751 1131 l 778 1089 l 692 1089 q 617 1144 656 1111 q 540 1214 578 1176 q 465 1144 503 1176 q 392 1089 428 1113 l 308 1089 l 308 1104 q 367 1168 335 1132 q 431 1242 400 1204 q 479 1311 461 1281 l 604 1311 z "},"Õ":{"ha":1085,"x_min":85,"x_max":1000,"o":"m 1000 497 q 948 228 1000 343 q 794 50 896 114 q 543 -14 693 -14 q 287 50 389 -14 q 135 229 185 114 q 85 499 85 344 q 135 765 85 651 q 287 943 185 879 q 544 1007 389 1007 q 794 944 693 1007 q 948 766 896 881 q 1000 497 1000 651 m 217 497 q 296 202 217 310 q 543 94 375 94 q 790 202 713 94 q 868 497 868 310 q 790 791 868 685 q 544 897 713 897 q 297 791 376 897 q 217 497 217 685 m 289 1089 q 337 1219 297 1171 q 442 1267 376 1267 q 520 1247 483 1267 q 590 1207 557 1226 q 653 1188 624 1188 q 702 1208 685 1188 q 729 1268 719 1228 l 799 1268 q 751 1139 790 1188 q 647 1090 713 1090 q 572 1110 608 1090 q 501 1149 535 1129 q 436 1169 467 1169 q 386 1149 403 1169 q 360 1089 369 1129 l 289 1089 z "},"Ö":{"ha":1085,"x_min":85,"x_max":1000,"o":"m 1000 497 q 948 228 1000 343 q 794 50 896 114 q 543 -14 693 -14 q 287 50 389 -14 q 135 229 185 114 q 85 499 85 344 q 135 765 85 651 q 287 943 185 879 q 544 1007 389 1007 q 794 944 693 1007 q 948 766 896 881 q 1000 497 1000 651 m 217 497 q 296 202 217 310 q 543 94 375 94 q 790 202 713 94 q 868 497 868 310 q 790 791 868 685 q 544 897 713 897 q 297 791 376 897 q 217 497 217 685 m 349 1193 q 368 1245 349 1229 q 414 1261 388 1261 q 460 1245 440 1261 q 479 1193 479 1229 q 460 1141 479 1158 q 414 1124 440 1124 q 368 1141 388 1124 q 349 1193 349 1158 m 610 1193 q 628 1245 610 1229 q 674 1261 647 1261 q 719 1245 700 1261 q 739 1193 739 1229 q 719 1141 739 1158 q 674 1124 700 1124 q 628 1141 647 1124 q 610 1193 610 1158 z "},"×":{"ha":794,"x_min":89,"x_max":703,"o":"m 633 797 l 703 726 l 467 490 l 701 254 l 632 183 l 394 418 l 163 183 l 90 254 l 325 490 l 89 725 l 161 797 l 396 560 l 633 797 z "},"Ø":{"ha":1085,"x_min":85,"x_max":1000,"o":"m 1000 497 q 948 228 1000 343 q 794 50 896 114 q 543 -14 693 -14 q 286 51 388 -14 l 219 -43 l 135 13 l 207 115 q 115 281 146 183 q 85 499 85 378 q 135 765 85 651 q 287 943 185 879 q 544 1007 389 1007 q 678 990 617 1007 q 792 944 740 974 l 856 1036 l 940 979 l 869 881 q 1000 497 1000 743 m 217 497 q 233 343 217 413 q 282 222 249 274 l 725 849 q 544 897 653 897 q 297 791 376 897 q 217 497 217 685 m 868 497 q 797 778 868 676 l 353 147 q 437 108 389 122 q 543 94 485 94 q 790 202 713 94 q 868 497 868 310 z "},"Ù":{"ha":1015,"x_min":125,"x_max":889,"o":"m 889 350 q 847 165 889 247 q 720 34 806 82 q 503 -14 635 -14 q 222 87 318 -14 q 125 353 125 188 l 125 992 l 250 992 l 250 349 q 315 161 250 228 q 510 94 379 94 q 705 166 644 94 q 765 350 765 238 l 765 992 l 889 992 l 889 350 m 474 1311 q 512 1242 489 1281 q 560 1168 535 1204 q 607 1106 586 1132 l 607 1089 l 525 1089 q 453 1153 493 1114 q 378 1233 413 1193 q 328 1297 344 1272 l 328 1311 l 474 1311 z "},"Ú":{"ha":1015,"x_min":125,"x_max":889,"o":"m 889 350 q 847 165 889 247 q 720 34 806 82 q 503 -14 635 -14 q 222 87 318 -14 q 125 353 125 188 l 125 992 l 250 992 l 250 349 q 315 161 250 228 q 510 94 379 94 q 705 166 644 94 q 765 350 765 238 l 765 992 l 889 992 l 889 350 m 714 1297 q 663 1233 697 1272 q 588 1153 628 1193 q 515 1089 549 1114 l 435 1089 l 435 1106 q 480 1168 456 1132 q 528 1242 504 1204 q 567 1311 551 1281 l 714 1311 l 714 1297 z "},"Û":{"ha":1015,"x_min":125,"x_max":889,"o":"m 889 350 q 847 165 889 247 q 720 34 806 82 q 503 -14 635 -14 q 222 87 318 -14 q 125 353 125 188 l 125 992 l 250 992 l 250 349 q 315 161 250 228 q 510 94 379 94 q 705 166 644 94 q 765 350 765 238 l 765 992 l 889 992 l 889 350 m 569 1311 q 617 1242 586 1281 q 683 1167 649 1204 q 743 1104 717 1131 l 743 1089 l 657 1089 q 582 1144 621 1111 q 506 1214 543 1176 q 431 1144 468 1176 q 357 1089 393 1113 l 274 1089 l 274 1104 q 333 1168 300 1132 q 396 1242 365 1204 q 444 1311 426 1281 l 569 1311 z "},"Ü":{"ha":1015,"x_min":125,"x_max":889,"o":"m 889 350 q 847 165 889 247 q 720 34 806 82 q 503 -14 635 -14 q 222 87 318 -14 q 125 353 125 188 l 125 992 l 250 992 l 250 349 q 315 161 250 228 q 510 94 379 94 q 705 166 644 94 q 765 350 765 238 l 765 992 l 889 992 l 889 350 m 314 1193 q 333 1245 314 1229 q 379 1261 353 1261 q 425 1245 406 1261 q 444 1193 444 1229 q 425 1141 444 1158 q 379 1124 406 1124 q 333 1141 353 1124 q 314 1193 314 1158 m 575 1193 q 594 1245 575 1229 q 639 1261 613 1261 q 685 1245 665 1261 q 704 1193 704 1229 q 685 1141 704 1158 q 639 1124 665 1124 q 594 1141 613 1124 q 575 1193 575 1158 z "},"Ý":{"ha":786,"x_min":0,"x_max":786,"o":"m 393 504 l 651 992 l 786 992 l 456 385 l 456 0 l 331 0 l 331 379 l 0 992 l 136 992 l 393 504 m 599 1297 q 547 1233 582 1272 q 473 1153 513 1193 q 400 1089 433 1114 l 319 1089 l 319 1106 q 365 1168 340 1132 q 413 1242 389 1204 q 451 1311 436 1281 l 599 1311 l 599 1297 z "},"Þ":{"ha":840,"x_min":135,"x_max":769,"o":"m 769 531 q 733 376 769 447 q 610 260 697 304 q 372 215 524 215 l 260 215 l 260 0 l 135 0 l 135 992 l 260 992 l 260 819 l 393 819 q 682 743 594 819 q 769 531 769 667 m 360 321 q 573 367 506 321 q 640 524 640 414 q 580 666 640 619 q 383 713 519 713 l 260 713 l 260 321 l 360 321 z "},"ß":{"ha":876,"x_min":118,"x_max":814,"o":"m 725 857 q 706 774 725 810 q 657 712 686 739 q 599 663 628 685 q 550 619 569 640 q 531 572 531 597 q 540 539 531 554 q 575 503 549 524 q 653 449 601 483 q 771 347 728 399 q 814 213 814 294 q 742 40 814 94 q 556 -14 671 -14 q 440 -1 490 -14 q 354 33 390 11 l 354 143 q 443 103 390 121 q 551 85 496 85 q 661 117 628 85 q 694 204 694 149 q 666 289 694 254 q 564 371 638 324 q 444 469 476 428 q 413 565 413 510 q 431 639 413 608 q 478 692 450 669 q 535 738 507 715 q 583 786 564 760 q 601 850 601 813 q 552 935 601 908 q 425 961 503 961 q 334 948 376 961 q 266 903 292 935 q 240 811 240 871 l 240 0 l 118 0 l 118 811 q 158 959 118 904 q 268 1038 199 1014 q 425 1063 338 1063 q 642 1011 560 1063 q 725 857 725 960 z "},"à":{"ha":779,"x_min":64,"x_max":667,"o":"m 400 757 q 601 697 536 757 q 667 507 667 638 l 667 0 l 578 0 l 554 106 l 549 106 q 447 15 500 44 q 299 -14 393 -14 q 131 40 197 -14 q 64 207 64 93 q 151 378 64 318 q 421 444 239 439 l 547 449 l 547 493 q 507 622 547 586 q 393 658 467 658 q 282 641 335 658 q 183 601 229 624 l 146 693 q 261 738 194 719 q 400 757 328 757 m 436 360 q 244 315 297 354 q 190 206 190 276 q 228 114 190 143 q 326 85 267 85 q 483 137 421 85 q 546 297 546 189 l 546 364 l 436 360 m 356 1064 q 394 995 371 1033 q 442 921 417 957 q 489 858 468 885 l 489 842 l 407 842 q 335 906 375 867 q 260 985 294 946 q 210 1050 226 1025 l 210 1064 l 356 1064 z "},"á":{"ha":779,"x_min":64,"x_max":667,"o":"m 400 757 q 601 697 536 757 q 667 507 667 638 l 667 0 l 578 0 l 554 106 l 549 106 q 447 15 500 44 q 299 -14 393 -14 q 131 40 197 -14 q 64 207 64 93 q 151 378 64 318 q 421 444 239 439 l 547 449 l 547 493 q 507 622 547 586 q 393 658 467 658 q 282 641 335 658 q 183 601 229 624 l 146 693 q 261 738 194 719 q 400 757 328 757 m 436 360 q 244 315 297 354 q 190 206 190 276 q 228 114 190 143 q 326 85 267 85 q 483 137 421 85 q 546 297 546 189 l 546 364 l 436 360 m 596 1050 q 544 985 579 1025 q 470 906 510 946 q 397 842 431 867 l 317 842 l 317 858 q 362 921 338 885 q 410 995 386 957 q 449 1064 433 1033 l 596 1064 l 596 1050 z "},"â":{"ha":779,"x_min":64,"x_max":667,"o":"m 400 757 q 601 697 536 757 q 667 507 667 638 l 667 0 l 578 0 l 554 106 l 549 106 q 447 15 500 44 q 299 -14 393 -14 q 131 40 197 -14 q 64 207 64 93 q 151 378 64 318 q 421 444 239 439 l 547 449 l 547 493 q 507 622 547 586 q 393 658 467 658 q 282 641 335 658 q 183 601 229 624 l 146 693 q 261 738 194 719 q 400 757 328 757 m 436 360 q 244 315 297 354 q 190 206 190 276 q 228 114 190 143 q 326 85 267 85 q 483 137 421 85 q 546 297 546 189 l 546 364 l 436 360 m 451 1064 q 499 995 468 1033 q 565 920 531 957 q 625 857 599 883 l 625 842 l 539 842 q 464 897 503 864 q 388 967 425 929 q 313 897 350 929 q 239 842 275 865 l 156 842 l 156 857 q 215 921 182 885 q 278 995 247 957 q 326 1064 308 1033 l 451 1064 z "},"ã":{"ha":779,"x_min":64,"x_max":667,"o":"m 400 757 q 601 697 536 757 q 667 507 667 638 l 667 0 l 578 0 l 554 106 l 549 106 q 447 15 500 44 q 299 -14 393 -14 q 131 40 197 -14 q 64 207 64 93 q 151 378 64 318 q 421 444 239 439 l 547 449 l 547 493 q 507 622 547 586 q 393 658 467 658 q 282 641 335 658 q 183 601 229 624 l 146 693 q 261 738 194 719 q 400 757 328 757 m 436 360 q 244 315 297 354 q 190 206 190 276 q 228 114 190 143 q 326 85 267 85 q 483 137 421 85 q 546 297 546 189 l 546 364 l 436 360 m 136 842 q 184 972 144 924 q 289 1019 224 1019 q 367 999 331 1019 q 438 960 404 979 q 500 940 471 940 q 549 960 532 940 q 576 1021 567 981 l 646 1021 q 599 892 638 940 q 494 843 560 843 q 419 863 456 843 q 348 902 382 882 q 283 922 314 922 q 233 902 250 922 q 207 842 217 882 l 136 842 z "},"ä":{"ha":779,"x_min":64,"x_max":667,"o":"m 400 757 q 601 697 536 757 q 667 507 667 638 l 667 0 l 578 0 l 554 106 l 549 106 q 447 15 500 44 q 299 -14 393 -14 q 131 40 197 -14 q 64 207 64 93 q 151 378 64 318 q 421 444 239 439 l 547 449 l 547 493 q 507 622 547 586 q 393 658 467 658 q 282 641 335 658 q 183 601 229 624 l 146 693 q 261 738 194 719 q 400 757 328 757 m 436 360 q 244 315 297 354 q 190 206 190 276 q 228 114 190 143 q 326 85 267 85 q 483 137 421 85 q 546 297 546 189 l 546 364 l 436 360 m 196 946 q 215 998 196 982 q 261 1014 235 1014 q 307 998 288 1014 q 326 946 326 982 q 307 894 326 911 q 261 876 288 876 q 215 894 235 876 q 196 946 196 911 m 457 946 q 476 998 457 982 q 521 1014 494 1014 q 567 998 547 1014 q 586 946 586 982 q 567 894 586 911 q 521 876 547 876 q 476 894 494 876 q 457 946 457 911 z "},"å":{"ha":779,"x_min":64,"x_max":667,"o":"m 400 757 q 601 697 536 757 q 667 507 667 638 l 667 0 l 578 0 l 554 106 l 549 106 q 447 15 500 44 q 299 -14 393 -14 q 131 40 197 -14 q 64 207 64 93 q 151 378 64 318 q 421 444 239 439 l 547 449 l 547 493 q 507 622 547 586 q 393 658 467 658 q 282 641 335 658 q 183 601 229 624 l 146 693 q 261 738 194 719 q 400 757 328 757 m 436 360 q 244 315 297 354 q 190 206 190 276 q 228 114 190 143 q 326 85 267 85 q 483 137 421 85 q 546 297 546 189 l 546 364 l 436 360 m 389 842 q 279 881 321 842 q 238 989 238 919 q 279 1097 238 1058 q 389 1135 321 1135 q 499 1097 454 1135 q 543 990 543 1058 q 499 881 543 919 q 389 842 456 842 m 389 911 q 445 932 424 911 q 467 989 467 953 q 444 1046 467 1025 q 389 1067 422 1067 q 333 1046 356 1067 q 311 989 311 1025 q 331 932 311 953 q 389 911 351 911 z "},"æ":{"ha":1200,"x_min":64,"x_max":1129,"o":"m 838 758 q 993 717 928 758 q 1094 600 1058 675 q 1129 425 1129 525 l 1129 350 l 653 350 q 710 153 656 217 q 868 90 765 90 q 990 103 938 90 q 1096 142 1043 117 l 1096 35 q 987 -2 1040 10 q 864 -14 933 -14 q 582 143 668 -14 q 471 28 535 71 q 300 -14 407 -14 q 131 40 199 -14 q 64 207 64 93 q 147 378 64 318 q 403 444 231 439 l 528 449 l 528 496 q 485 622 528 586 q 372 658 443 658 q 263 642 317 658 q 164 601 210 625 l 126 693 q 244 739 175 721 q 382 757 314 757 q 524 728 468 757 q 610 638 581 700 q 704 726 646 694 q 838 758 763 758 m 836 658 q 709 603 756 658 q 656 446 663 549 l 1000 446 q 960 600 1000 542 q 836 658 921 658 m 421 360 q 240 315 290 354 q 190 206 190 276 q 226 114 190 143 q 319 85 261 85 q 466 137 407 85 q 525 297 525 189 l 525 364 l 421 360 z "},"ç":{"ha":667,"x_min":76,"x_max":621,"o":"m 417 -14 q 241 26 318 -14 q 120 151 164 67 q 76 368 76 236 q 122 592 76 506 q 247 718 168 678 q 425 758 325 758 q 535 747 482 758 q 621 718 588 735 l 583 617 q 506 640 550 629 q 422 651 461 651 q 203 369 203 651 q 256 163 203 235 q 415 92 310 92 q 523 104 476 92 q 608 135 569 117 l 608 26 q 526 -3 571 7 q 417 -14 481 -14 m 531 -193 q 479 -297 531 -260 q 325 -333 428 -333 q 256 -326 281 -333 l 256 -250 q 289 -255 268 -253 q 329 -257 310 -257 q 406 -244 379 -257 q 432 -196 432 -231 q 395 -143 432 -160 q 306 -119 358 -126 l 365 0 l 446 0 l 410 -74 q 495 -112 460 -85 q 531 -193 531 -140 z "},"è":{"ha":783,"x_min":76,"x_max":713,"o":"m 406 758 q 570 717 501 758 q 676 599 639 675 q 713 422 713 524 l 713 349 l 203 349 q 267 156 206 222 q 440 90 329 90 q 566 103 511 90 q 679 142 621 117 l 679 35 q 567 -2 622 10 q 435 -14 511 -14 q 248 29 329 -14 q 122 158 167 72 q 76 367 76 243 q 117 576 76 489 q 233 711 158 664 q 406 758 307 758 m 404 658 q 266 602 317 658 q 206 446 215 546 l 585 446 q 540 599 583 540 q 404 658 497 658 m 361 1064 q 399 995 376 1033 q 448 921 422 957 q 494 858 474 885 l 494 842 l 413 842 q 340 906 381 867 q 266 985 300 946 q 215 1050 232 1025 l 215 1064 l 361 1064 z "},"é":{"ha":783,"x_min":76,"x_max":713,"o":"m 406 758 q 570 717 501 758 q 676 599 639 675 q 713 422 713 524 l 713 349 l 203 349 q 267 156 206 222 q 440 90 329 90 q 566 103 511 90 q 679 142 621 117 l 679 35 q 567 -2 622 10 q 435 -14 511 -14 q 248 29 329 -14 q 122 158 167 72 q 76 367 76 243 q 117 576 76 489 q 233 711 158 664 q 406 758 307 758 m 404 658 q 266 602 317 658 q 206 446 215 546 l 585 446 q 540 599 583 540 q 404 658 497 658 m 601 1050 q 550 985 585 1025 q 476 906 515 946 q 403 842 436 867 l 322 842 l 322 858 q 367 921 343 885 q 415 995 392 957 q 454 1064 439 1033 l 601 1064 l 601 1050 z "},"ê":{"ha":783,"x_min":76,"x_max":713,"o":"m 406 758 q 570 717 501 758 q 676 599 639 675 q 713 422 713 524 l 713 349 l 203 349 q 267 156 206 222 q 440 90 329 90 q 566 103 511 90 q 679 142 621 117 l 679 35 q 567 -2 622 10 q 435 -14 511 -14 q 248 29 329 -14 q 122 158 167 72 q 76 367 76 243 q 117 576 76 489 q 233 711 158 664 q 406 758 307 758 m 404 658 q 266 602 317 658 q 206 446 215 546 l 585 446 q 540 599 583 540 q 404 658 497 658 m 457 1064 q 505 995 474 1033 q 570 920 536 957 q 631 857 604 883 l 631 842 l 544 842 q 469 897 508 864 q 393 967 431 929 q 318 897 356 929 q 244 842 281 865 l 161 842 l 161 857 q 220 921 188 885 q 283 995 253 957 q 332 1064 314 1033 l 457 1064 z "},"ë":{"ha":783,"x_min":76,"x_max":713,"o":"m 406 758 q 570 717 501 758 q 676 599 639 675 q 713 422 713 524 l 713 349 l 203 349 q 267 156 206 222 q 440 90 329 90 q 566 103 511 90 q 679 142 621 117 l 679 35 q 567 -2 622 10 q 435 -14 511 -14 q 248 29 329 -14 q 122 158 167 72 q 76 367 76 243 q 117 576 76 489 q 233 711 158 664 q 406 758 307 758 m 404 658 q 266 602 317 658 q 206 446 215 546 l 585 446 q 540 599 583 540 q 404 658 497 658 m 201 946 q 221 998 201 982 q 267 1014 240 1014 q 313 998 293 1014 q 332 946 332 982 q 313 894 332 911 q 267 876 293 876 q 221 894 240 876 q 201 946 201 911 m 463 946 q 481 998 463 982 q 526 1014 500 1014 q 572 998 553 1014 q 592 946 592 982 q 572 894 592 911 q 526 876 553 876 q 481 894 500 876 q 463 946 463 911 z "},"ì":{"ha":358,"x_min":-1,"x_max":278,"o":"m 240 0 l 118 0 l 118 744 l 240 744 l 240 0 m 144 1064 q 183 995 160 1033 q 231 921 206 957 q 278 858 257 885 l 278 842 l 196 842 q 124 906 164 867 q 49 985 83 946 q -1 1050 15 1025 l -1 1064 l 144 1064 z "},"í":{"ha":358,"x_min":106,"x_max":385,"o":"m 240 0 l 118 0 l 118 744 l 240 744 l 240 0 m 385 1050 q 333 985 368 1025 q 259 906 299 946 q 186 842 219 867 l 106 842 l 106 858 q 151 921 126 885 q 199 995 175 957 q 238 1064 222 1033 l 385 1064 l 385 1050 z "},"î":{"ha":358,"x_min":-56,"x_max":414,"o":"m 240 0 l 118 0 l 118 744 l 240 744 l 240 0 m 240 1064 q 288 995 257 1033 q 353 920 319 957 q 414 857 388 883 l 414 842 l 328 842 q 253 897 292 864 q 176 967 214 929 q 101 897 139 929 q 28 842 64 865 l -56 842 l -56 857 q 3 921 -29 885 q 67 995 36 957 q 115 1064 97 1033 l 240 1064 z "},"ï":{"ha":358,"x_min":-15,"x_max":375,"o":"m 240 0 l 118 0 l 118 744 l 240 744 l 240 0 m -15 946 q 4 998 -15 982 q 50 1014 24 1014 q 96 998 76 1014 q 115 946 115 982 q 96 894 115 911 q 50 876 76 876 q 4 894 24 876 q -15 946 -15 911 m 246 946 q 265 998 246 982 q 310 1014 283 1014 q 356 998 336 1014 q 375 946 375 982 q 356 894 375 911 q 310 876 336 876 q 265 894 283 876 q 246 946 246 911 z "},"ð":{"ha":840,"x_min":76,"x_max":765,"o":"m 300 1063 q 390 1017 344 1042 q 475 963 435 992 l 635 1056 l 688 981 l 550 901 q 705 682 644 813 q 765 382 765 551 q 672 85 765 185 q 418 -14 579 -14 q 241 27 318 -14 q 120 144 164 68 q 76 324 76 219 q 165 568 76 479 q 403 657 253 657 q 531 638 476 657 q 619 576 586 618 l 625 579 q 557 725 603 658 q 453 844 511 792 l 272 740 l 219 817 l 375 906 q 314 944 346 925 q 250 979 282 963 l 300 1063 m 421 558 q 252 497 304 558 q 200 319 200 435 q 253 152 200 218 q 421 86 306 86 q 589 153 536 86 q 642 349 642 221 q 588 497 642 435 q 421 558 533 558 z "},"ñ":{"ha":858,"x_min":118,"x_max":746,"o":"m 476 758 q 678 694 610 758 q 746 485 746 629 l 746 0 l 625 0 l 625 476 q 458 656 625 656 q 288 586 335 656 q 240 386 240 517 l 240 0 l 118 0 l 118 744 l 217 744 l 235 643 l 242 643 q 342 730 278 701 q 476 758 406 758 m 175 842 q 223 972 183 924 q 328 1019 263 1019 q 406 999 369 1019 q 476 960 443 979 q 539 940 510 940 q 588 960 571 940 q 615 1021 606 981 l 685 1021 q 638 892 676 940 q 533 843 599 843 q 458 863 494 843 q 387 902 421 882 q 322 922 353 922 q 272 902 289 922 q 246 842 256 882 l 175 842 z "},"ò":{"ha":840,"x_min":76,"x_max":765,"o":"m 765 374 q 672 88 765 189 q 418 -14 578 -14 q 242 31 319 -14 q 121 163 165 76 q 76 374 76 250 q 169 658 76 558 q 422 758 263 758 q 601 713 524 758 q 722 583 678 668 q 765 374 765 497 m 203 374 q 255 165 203 242 q 421 88 307 88 q 586 165 533 88 q 639 374 639 242 q 586 581 639 506 q 419 656 533 656 q 254 581 306 656 q 203 374 203 506 m 386 1064 q 424 995 401 1033 q 473 921 447 957 q 519 858 499 885 l 519 842 l 438 842 q 365 906 406 867 q 291 985 325 946 q 240 1050 257 1025 l 240 1064 l 386 1064 z "},"ó":{"ha":840,"x_min":76,"x_max":765,"o":"m 765 374 q 672 88 765 189 q 418 -14 578 -14 q 242 31 319 -14 q 121 163 165 76 q 76 374 76 250 q 169 658 76 558 q 422 758 263 758 q 601 713 524 758 q 722 583 678 668 q 765 374 765 497 m 203 374 q 255 165 203 242 q 421 88 307 88 q 586 165 533 88 q 639 374 639 242 q 586 581 639 506 q 419 656 533 656 q 254 581 306 656 q 203 374 203 506 m 626 1050 q 575 985 610 1025 q 501 906 540 946 q 428 842 461 867 l 347 842 l 347 858 q 392 921 368 885 q 440 995 417 957 q 479 1064 464 1033 l 626 1064 l 626 1050 z "},"ô":{"ha":840,"x_min":76,"x_max":765,"o":"m 765 374 q 672 88 765 189 q 418 -14 578 -14 q 242 31 319 -14 q 121 163 165 76 q 76 374 76 250 q 169 658 76 558 q 422 758 263 758 q 601 713 524 758 q 722 583 678 668 q 765 374 765 497 m 203 374 q 255 165 203 242 q 421 88 307 88 q 586 165 533 88 q 639 374 639 242 q 586 581 639 506 q 419 656 533 656 q 254 581 306 656 q 203 374 203 506 m 482 1064 q 530 995 499 1033 q 595 920 561 957 q 656 857 629 883 l 656 842 l 569 842 q 494 897 533 864 q 418 967 456 929 q 343 897 381 929 q 269 842 306 865 l 186 842 l 186 857 q 245 921 213 885 q 308 995 278 957 q 357 1064 339 1033 l 482 1064 z "},"õ":{"ha":840,"x_min":76,"x_max":765,"o":"m 765 374 q 672 88 765 189 q 418 -14 578 -14 q 242 31 319 -14 q 121 163 165 76 q 76 374 76 250 q 169 658 76 558 q 422 758 263 758 q 601 713 524 758 q 722 583 678 668 q 765 374 765 497 m 203 374 q 255 165 203 242 q 421 88 307 88 q 586 165 533 88 q 639 374 639 242 q 586 581 639 506 q 419 656 533 656 q 254 581 306 656 q 203 374 203 506 m 167 842 q 215 972 175 924 q 319 1019 254 1019 q 398 999 361 1019 q 468 960 435 979 q 531 940 501 940 q 580 960 563 940 q 607 1021 597 981 l 676 1021 q 629 892 668 940 q 525 843 590 843 q 449 863 486 843 q 378 902 413 882 q 314 922 344 922 q 264 902 281 922 q 238 842 247 882 l 167 842 z "},"ö":{"ha":840,"x_min":76,"x_max":765,"o":"m 765 374 q 672 88 765 189 q 418 -14 578 -14 q 242 31 319 -14 q 121 163 165 76 q 76 374 76 250 q 169 658 76 558 q 422 758 263 758 q 601 713 524 758 q 722 583 678 668 q 765 374 765 497 m 203 374 q 255 165 203 242 q 421 88 307 88 q 586 165 533 88 q 639 374 639 242 q 586 581 639 506 q 419 656 533 656 q 254 581 306 656 q 203 374 203 506 m 226 946 q 246 998 226 982 q 292 1014 265 1014 q 338 998 318 1014 q 357 946 357 982 q 338 894 357 911 q 292 876 318 876 q 246 894 265 876 q 226 946 226 911 m 488 946 q 506 998 488 982 q 551 1014 525 1014 q 597 998 578 1014 q 617 946 617 982 q 597 894 617 911 q 551 876 578 876 q 506 894 525 876 q 488 946 488 911 z "},"÷":{"ha":794,"x_min":69,"x_max":724,"o":"m 396 642 q 341 662 364 642 q 318 726 318 682 q 341 792 318 774 q 396 810 364 810 q 450 792 428 810 q 472 726 472 774 q 450 662 472 682 q 396 642 428 642 m 69 440 l 69 539 l 724 539 l 724 440 l 69 440 m 396 168 q 341 188 364 168 q 318 253 318 208 q 341 318 318 300 q 396 336 364 336 q 450 318 428 336 q 472 253 472 300 q 450 188 472 208 q 396 168 428 168 z "},"ø":{"ha":840,"x_min":76,"x_max":765,"o":"m 765 374 q 672 88 765 189 q 418 -14 578 -14 q 239 32 317 -14 l 183 -46 l 103 8 l 165 94 q 99 215 122 144 q 76 374 76 285 q 169 658 76 558 q 422 758 263 758 q 604 708 524 758 l 658 786 l 740 733 l 678 646 q 742 528 718 597 q 765 374 765 460 m 203 374 q 210 276 203 321 q 236 196 218 231 l 542 621 q 419 656 492 656 q 254 581 306 656 q 203 374 203 506 m 639 374 q 607 544 639 476 l 301 119 q 421 88 349 88 q 586 165 533 88 q 639 374 639 242 z "},"ù":{"ha":858,"x_min":110,"x_max":740,"o":"m 740 744 l 740 0 l 640 0 l 622 99 l 617 99 q 517 13 581 40 q 381 -14 453 -14 q 178 51 246 -14 q 110 257 110 115 l 110 744 l 233 744 l 233 265 q 399 88 233 88 q 570 157 522 88 q 618 357 618 226 l 618 744 l 740 744 m 394 1064 q 433 995 410 1033 q 481 921 456 957 q 528 858 507 885 l 528 842 l 446 842 q 374 906 414 867 q 299 985 333 946 q 249 1050 265 1025 l 249 1064 l 394 1064 z "},"ú":{"ha":858,"x_min":110,"x_max":740,"o":"m 740 744 l 740 0 l 640 0 l 622 99 l 617 99 q 517 13 581 40 q 381 -14 453 -14 q 178 51 246 -14 q 110 257 110 115 l 110 744 l 233 744 l 233 265 q 399 88 233 88 q 570 157 522 88 q 618 357 618 226 l 618 744 l 740 744 m 635 1050 q 583 985 618 1025 q 509 906 549 946 q 436 842 469 867 l 356 842 l 356 858 q 401 921 376 885 q 449 995 425 957 q 488 1064 472 1033 l 635 1064 l 635 1050 z "},"û":{"ha":858,"x_min":110,"x_max":740,"o":"m 740 744 l 740 0 l 640 0 l 622 99 l 617 99 q 517 13 581 40 q 381 -14 453 -14 q 178 51 246 -14 q 110 257 110 115 l 110 744 l 233 744 l 233 265 q 399 88 233 88 q 570 157 522 88 q 618 357 618 226 l 618 744 l 740 744 m 490 1064 q 538 995 507 1033 q 603 920 569 957 q 664 857 638 883 l 664 842 l 578 842 q 503 897 542 864 q 426 967 464 929 q 351 897 389 929 q 278 842 314 865 l 194 842 l 194 857 q 253 921 221 885 q 317 995 286 957 q 365 1064 347 1033 l 490 1064 z "},"ü":{"ha":858,"x_min":110,"x_max":740,"o":"m 740 744 l 740 0 l 640 0 l 622 99 l 617 99 q 517 13 581 40 q 381 -14 453 -14 q 178 51 246 -14 q 110 257 110 115 l 110 744 l 233 744 l 233 265 q 399 88 233 88 q 570 157 522 88 q 618 357 618 226 l 618 744 l 740 744 m 235 946 q 254 998 235 982 q 300 1014 274 1014 q 346 998 326 1014 q 365 946 365 982 q 346 894 365 911 q 300 876 326 876 q 254 894 274 876 q 235 946 235 911 m 496 946 q 515 998 496 982 q 560 1014 533 1014 q 606 998 586 1014 q 625 946 625 982 q 606 894 625 911 q 560 876 586 876 q 515 894 533 876 q 496 946 496 911 z "},"ý":{"ha":708,"x_min":1,"x_max":708,"o":"m 1 744 l 132 744 l 293 321 q 331 215 314 265 q 356 118 347 164 l 361 118 q 388 209 369 153 q 425 322 406 265 l 576 744 l 708 744 l 388 -103 q 287 -271 349 -208 q 117 -333 225 -333 q 58 -330 83 -333 q 15 -322 33 -326 l 15 -225 q 52 -231 31 -228 q 97 -233 74 -233 q 201 -197 161 -233 q 263 -101 240 -161 l 301 -3 l 1 744 m 560 1050 q 508 985 543 1025 q 434 906 474 946 q 361 842 394 867 l 281 842 l 281 858 q 326 921 301 885 q 374 995 350 957 q 413 1064 397 1033 l 560 1064 l 560 1050 z "},"þ":{"ha":854,"x_min":118,"x_max":778,"o":"m 778 374 q 694 85 778 183 q 472 -14 610 -14 q 329 18 385 -14 q 240 94 274 50 l 232 94 q 235 63 233 85 q 239 17 238 40 q 240 -22 240 -7 l 240 -333 l 118 -333 l 118 1056 l 240 1056 l 240 744 q 239 694 240 725 q 236 644 238 663 l 242 644 q 329 725 275 692 q 472 758 383 758 q 694 661 610 758 q 778 374 778 564 m 651 375 q 603 585 651 515 q 451 656 554 656 q 290 592 338 656 q 240 400 243 528 l 240 374 q 285 162 240 236 q 453 88 331 88 q 603 162 556 88 q 651 375 651 236 z "},"ÿ":{"ha":708,"x_min":1,"x_max":708,"o":"m 1 744 l 132 744 l 293 321 q 331 215 314 265 q 356 118 347 164 l 361 118 q 388 209 369 153 q 425 322 406 265 l 576 744 l 708 744 l 388 -103 q 287 -271 349 -208 q 117 -333 225 -333 q 58 -330 83 -333 q 15 -322 33 -326 l 15 -225 q 52 -231 31 -228 q 97 -233 74 -233 q 201 -197 161 -233 q 263 -101 240 -161 l 301 -3 l 1 744 m 160 946 q 179 998 160 982 q 225 1014 199 1014 q 271 998 251 1014 q 290 946 290 982 q 271 894 290 911 q 225 876 251 876 q 179 894 199 876 q 160 946 160 911 m 421 946 q 440 998 421 982 q 485 1014 458 1014 q 531 998 511 1014 q 550 946 550 982 q 531 894 550 911 q 485 876 511 876 q 440 894 458 876 q 421 946 421 911 z "},"Ā":{"ha":888,"x_min":0,"x_max":886,"o":"m 757 0 l 638 307 l 244 307 l 126 0 l 0 0 l 388 996 l 500 996 l 886 0 l 757 0 m 489 718 q 475 758 485 729 q 456 819 465 788 q 442 867 447 850 q 419 783 432 824 q 399 718 407 742 l 286 418 l 600 418 l 489 718 m 647 1188 l 647 1089 l 235 1089 l 235 1188 l 647 1188 z "},"ā":{"ha":779,"x_min":64,"x_max":667,"o":"m 400 757 q 601 697 536 757 q 667 507 667 638 l 667 0 l 578 0 l 554 106 l 549 106 q 447 15 500 44 q 299 -14 393 -14 q 131 40 197 -14 q 64 207 64 93 q 151 378 64 318 q 421 444 239 439 l 547 449 l 547 493 q 507 622 547 586 q 393 658 467 658 q 282 641 335 658 q 183 601 229 624 l 146 693 q 261 738 194 719 q 400 757 328 757 m 436 360 q 244 315 297 354 q 190 206 190 276 q 228 114 190 143 q 326 85 267 85 q 483 137 421 85 q 546 297 546 189 l 546 364 l 436 360 m 596 940 l 596 842 l 183 842 l 183 940 l 596 940 z "},"Ă":{"ha":888,"x_min":0,"x_max":886,"o":"m 757 0 l 638 307 l 244 307 l 126 0 l 0 0 l 388 996 l 500 996 l 886 0 l 757 0 m 489 718 q 475 758 485 729 q 456 819 465 788 q 442 867 447 850 q 419 783 432 824 q 399 718 407 742 l 286 418 l 600 418 l 489 718 m 657 1275 q 594 1140 650 1192 q 438 1089 538 1089 q 283 1140 335 1089 q 225 1275 231 1190 l 300 1275 q 342 1203 307 1218 q 440 1188 376 1188 q 534 1204 494 1188 q 581 1275 574 1221 l 657 1275 z "},"ă":{"ha":779,"x_min":64,"x_max":667,"o":"m 400 757 q 601 697 536 757 q 667 507 667 638 l 667 0 l 578 0 l 554 106 l 549 106 q 447 15 500 44 q 299 -14 393 -14 q 131 40 197 -14 q 64 207 64 93 q 151 378 64 318 q 421 444 239 439 l 547 449 l 547 493 q 507 622 547 586 q 393 658 467 658 q 282 641 335 658 q 183 601 229 624 l 146 693 q 261 738 194 719 q 400 757 328 757 m 436 360 q 244 315 297 354 q 190 206 190 276 q 228 114 190 143 q 326 85 267 85 q 483 137 421 85 q 546 297 546 189 l 546 364 l 436 360 m 606 1028 q 542 893 599 944 q 386 842 486 842 q 231 892 283 842 q 174 1028 179 943 l 249 1028 q 290 956 256 971 q 389 940 325 940 q 483 957 443 940 q 529 1028 522 974 l 606 1028 z "},"Ą":{"ha":888,"x_min":0,"x_max":886,"o":"m 757 0 l 638 307 l 244 307 l 126 0 l 0 0 l 388 996 l 500 996 l 886 0 l 757 0 m 489 718 q 475 758 485 729 q 456 819 465 788 q 442 867 447 850 q 419 783 432 824 q 399 718 407 742 l 286 418 l 600 418 l 489 718 m 757 -161 q 819 -224 757 -224 q 859 -220 843 -224 q 886 -215 875 -217 l 886 -293 q 847 -302 867 -299 q 800 -306 828 -306 q 692 -271 726 -306 q 657 -175 657 -236 q 677 -97 657 -135 q 727 -29 697 -60 q 785 21 757 1 l 851 0 q 781 -81 804 -44 q 757 -161 757 -118 z "},"ą":{"ha":779,"x_min":64,"x_max":701,"o":"m 400 757 q 601 697 536 757 q 667 507 667 638 l 667 0 l 578 0 l 554 106 l 549 106 q 447 15 500 44 q 299 -14 393 -14 q 131 40 197 -14 q 64 207 64 93 q 151 378 64 318 q 421 444 239 439 l 547 449 l 547 493 q 507 622 547 586 q 393 658 467 658 q 282 641 335 658 q 183 601 229 624 l 146 693 q 261 738 194 719 q 400 757 328 757 m 436 360 q 244 315 297 354 q 190 206 190 276 q 228 114 190 143 q 326 85 267 85 q 483 137 421 85 q 546 297 546 189 l 546 364 l 436 360 m 572 -161 q 635 -224 572 -224 q 674 -220 658 -224 q 701 -215 690 -217 l 701 -293 q 663 -302 682 -299 q 615 -306 643 -306 q 507 -271 542 -306 q 472 -175 472 -236 q 492 -97 472 -135 q 542 -29 513 -60 q 600 21 572 1 l 667 0 q 596 -81 619 -44 q 572 -161 572 -118 z "},"Ć":{"ha":878,"x_min":85,"x_max":835,"o":"m 560 896 q 308 789 400 896 q 217 496 217 682 q 302 203 217 311 q 558 96 388 96 q 682 107 624 96 q 796 135 740 118 l 796 26 q 681 -4 740 6 q 540 -14 622 -14 q 288 49 389 -14 q 135 226 186 111 q 85 497 85 342 q 140 762 85 647 q 301 941 194 876 q 561 1006 408 1006 q 835 947 718 1006 l 785 842 q 683 879 739 863 q 560 896 626 896 m 733 1297 q 682 1233 717 1272 q 608 1153 647 1193 q 535 1089 568 1114 l 454 1089 l 454 1106 q 499 1168 475 1132 q 547 1242 524 1204 q 586 1311 571 1281 l 733 1311 l 733 1297 z "},"ć":{"ha":667,"x_min":76,"x_max":621,"o":"m 417 -14 q 241 26 318 -14 q 120 151 164 67 q 76 368 76 236 q 122 592 76 506 q 247 718 168 678 q 425 758 325 758 q 535 747 482 758 q 621 718 588 735 l 583 617 q 506 640 550 629 q 422 651 461 651 q 203 369 203 651 q 256 163 203 235 q 415 92 310 92 q 523 104 476 92 q 608 135 569 117 l 608 26 q 526 -3 571 7 q 417 -14 481 -14 m 600 1050 q 549 985 583 1025 q 474 906 514 946 q 401 842 435 867 l 321 842 l 321 858 q 366 921 342 885 q 414 995 390 957 q 453 1064 438 1033 l 600 1064 l 600 1050 z "},"Ĉ":{"ha":878,"x_min":85,"x_max":835,"o":"m 560 896 q 308 789 400 896 q 217 496 217 682 q 302 203 217 311 q 558 96 388 96 q 682 107 624 96 q 796 135 740 118 l 796 26 q 681 -4 740 6 q 540 -14 622 -14 q 288 49 389 -14 q 135 226 186 111 q 85 497 85 342 q 140 762 85 647 q 301 941 194 876 q 561 1006 408 1006 q 835 947 718 1006 l 785 842 q 683 879 739 863 q 560 896 626 896 m 589 1311 q 637 1242 606 1281 q 702 1167 668 1204 q 763 1104 736 1131 l 763 1089 l 676 1089 q 601 1144 640 1111 q 525 1214 563 1176 q 450 1144 488 1176 q 376 1089 413 1113 l 293 1089 l 293 1104 q 352 1168 319 1132 q 415 1242 385 1204 q 464 1311 446 1281 l 589 1311 z "},"ĉ":{"ha":667,"x_min":76,"x_max":629,"o":"m 417 -14 q 241 26 318 -14 q 120 151 164 67 q 76 368 76 236 q 122 592 76 506 q 247 718 168 678 q 425 758 325 758 q 535 747 482 758 q 621 718 588 735 l 583 617 q 506 640 550 629 q 422 651 461 651 q 203 369 203 651 q 256 163 203 235 q 415 92 310 92 q 523 104 476 92 q 608 135 569 117 l 608 26 q 526 -3 571 7 q 417 -14 481 -14 m 456 1064 q 503 995 472 1033 q 569 920 535 957 q 629 857 603 883 l 629 842 l 543 842 q 468 897 507 864 q 392 967 429 929 q 317 897 354 929 q 243 842 279 865 l 160 842 l 160 857 q 219 921 186 885 q 282 995 251 957 q 331 1064 313 1033 l 456 1064 z "},"Ċ":{"ha":878,"x_min":85,"x_max":835,"o":"m 560 896 q 308 789 400 896 q 217 496 217 682 q 302 203 217 311 q 558 96 388 96 q 682 107 624 96 q 796 135 740 118 l 796 26 q 681 -4 740 6 q 540 -14 622 -14 q 288 49 389 -14 q 135 226 186 111 q 85 497 85 342 q 140 762 85 647 q 301 941 194 876 q 561 1006 408 1006 q 835 947 718 1006 l 785 842 q 683 879 739 863 q 560 896 626 896 m 529 1271 q 578 1252 557 1271 q 600 1193 600 1233 q 578 1135 600 1154 q 529 1115 557 1115 q 478 1135 499 1115 q 457 1193 457 1154 q 478 1252 457 1233 q 529 1271 499 1271 z "},"ċ":{"ha":667,"x_min":76,"x_max":621,"o":"m 417 -14 q 241 26 318 -14 q 120 151 164 67 q 76 368 76 236 q 122 592 76 506 q 247 718 168 678 q 425 758 325 758 q 535 747 482 758 q 621 718 588 735 l 583 617 q 506 640 550 629 q 422 651 461 651 q 203 369 203 651 q 256 163 203 235 q 415 92 310 92 q 523 104 476 92 q 608 135 569 117 l 608 26 q 526 -3 571 7 q 417 -14 481 -14 m 396 1024 q 445 1005 424 1024 q 467 946 467 986 q 445 888 467 907 q 396 868 424 868 q 344 888 365 868 q 324 946 324 907 q 344 1005 324 986 q 396 1024 365 1024 z "},"Č":{"ha":878,"x_min":85,"x_max":835,"o":"m 560 896 q 308 789 400 896 q 217 496 217 682 q 302 203 217 311 q 558 96 388 96 q 682 107 624 96 q 796 135 740 118 l 796 26 q 681 -4 740 6 q 540 -14 622 -14 q 288 49 389 -14 q 135 226 186 111 q 85 497 85 342 q 140 762 85 647 q 301 941 194 876 q 561 1006 408 1006 q 835 947 718 1006 l 785 842 q 683 879 739 863 q 560 896 626 896 m 464 1089 q 415 1158 446 1121 q 351 1231 385 1194 q 293 1293 318 1267 l 293 1311 l 376 1311 q 451 1254 413 1288 q 525 1183 490 1221 q 601 1254 563 1221 q 676 1311 640 1288 l 763 1311 l 763 1293 q 702 1231 736 1267 q 637 1158 668 1194 q 589 1089 606 1121 l 464 1089 z "},"č":{"ha":667,"x_min":76,"x_max":629,"o":"m 417 -14 q 241 26 318 -14 q 120 151 164 67 q 76 368 76 236 q 122 592 76 506 q 247 718 168 678 q 425 758 325 758 q 535 747 482 758 q 621 718 588 735 l 583 617 q 506 640 550 629 q 422 651 461 651 q 203 369 203 651 q 256 163 203 235 q 415 92 310 92 q 523 104 476 92 q 608 135 569 117 l 608 26 q 526 -3 571 7 q 417 -14 481 -14 m 331 842 q 282 910 313 874 q 218 983 251 947 q 160 1046 185 1019 l 160 1064 l 243 1064 q 318 1007 279 1040 q 392 936 357 974 q 468 1007 429 974 q 543 1064 507 1040 l 629 1064 l 629 1046 q 569 983 603 1019 q 503 910 535 947 q 456 842 472 874 l 331 842 z "},"Ď":{"ha":1014,"x_min":135,"x_max":929,"o":"m 929 506 q 792 127 929 254 q 411 0 656 0 l 135 0 l 135 992 l 440 992 q 700 936 590 992 q 869 773 810 881 q 929 506 929 665 m 797 501 q 699 792 797 700 q 422 885 601 885 l 260 885 l 260 107 l 394 107 q 797 501 797 107 m 438 1089 q 389 1158 419 1121 q 325 1231 358 1194 q 267 1293 292 1267 l 267 1311 l 350 1311 q 425 1254 386 1288 q 499 1183 464 1221 q 575 1254 536 1221 q 650 1311 614 1288 l 736 1311 l 736 1293 q 676 1231 710 1267 q 610 1158 642 1194 q 563 1089 579 1121 l 438 1089 z "},"ď":{"ha":854,"x_min":76,"x_max":956,"o":"m 956 1043 q 934 981 950 1018 q 897 903 918 943 q 856 833 876 864 l 789 833 l 789 850 q 808 913 799 876 q 824 988 817 950 q 835 1056 832 1026 l 956 1056 l 956 1043 m 382 -14 q 160 83 243 -14 q 76 371 76 179 q 160 660 76 563 q 383 758 244 758 q 524 726 469 758 q 614 649 579 694 l 622 649 q 617 702 621 667 q 614 758 614 738 l 614 1056 l 736 1056 l 736 0 l 638 0 l 619 100 l 614 100 q 525 19 581 53 q 382 -14 469 -14 m 401 88 q 567 152 519 88 q 615 347 615 217 l 615 369 q 569 583 615 508 q 400 657 524 657 q 252 578 301 657 q 203 368 203 500 q 252 161 203 235 q 401 88 301 88 z "},"Đ":{"ha":1014,"x_min":42,"x_max":929,"o":"m 440 992 q 699 936 589 992 q 869 773 808 881 q 929 506 929 665 q 792 127 929 254 q 410 0 656 0 l 144 0 l 144 436 l 42 436 l 42 544 l 144 544 l 144 992 l 440 992 m 422 885 l 269 885 l 269 544 l 517 544 l 517 436 l 269 436 l 269 107 l 394 107 q 797 501 797 107 q 699 792 797 700 q 422 885 600 885 z "},"đ":{"ha":857,"x_min":76,"x_max":842,"o":"m 382 -14 q 160 83 243 -14 q 76 368 76 179 q 160 658 76 563 q 382 754 244 754 q 524 722 469 754 q 614 644 579 690 l 622 644 q 617 698 619 663 q 614 756 614 733 l 614 840 l 318 840 l 318 932 l 614 932 l 614 1056 l 736 1056 l 736 932 l 842 932 l 842 840 l 736 840 l 736 0 l 636 0 l 618 100 l 613 100 q 524 19 579 53 q 382 -14 468 -14 m 403 88 q 567 151 519 88 q 615 344 615 215 l 615 368 q 569 581 615 508 q 400 653 524 653 q 253 576 301 653 q 204 367 204 500 q 253 160 204 233 q 403 88 301 88 z "},"Ē":{"ha":772,"x_min":135,"x_max":689,"o":"m 689 0 l 135 0 l 135 992 l 689 992 l 689 882 l 260 882 l 260 572 l 664 572 l 664 464 l 260 464 l 260 110 l 689 110 l 689 0 m 629 1188 l 629 1089 l 217 1089 l 217 1188 l 629 1188 z "},"ē":{"ha":783,"x_min":76,"x_max":713,"o":"m 406 758 q 570 717 501 758 q 676 599 639 675 q 713 422 713 524 l 713 349 l 203 349 q 267 156 206 222 q 440 90 329 90 q 566 103 511 90 q 679 142 621 117 l 679 35 q 567 -2 622 10 q 435 -14 511 -14 q 248 29 329 -14 q 122 158 167 72 q 76 367 76 243 q 117 576 76 489 q 233 711 158 664 q 406 758 307 758 m 404 658 q 266 602 317 658 q 206 446 215 546 l 585 446 q 540 599 583 540 q 404 658 497 658 m 601 940 l 601 842 l 189 842 l 189 940 l 601 940 z "},"Ĕ":{"ha":772,"x_min":135,"x_max":689,"o":"m 689 0 l 135 0 l 135 992 l 689 992 l 689 882 l 260 882 l 260 572 l 664 572 l 664 464 l 260 464 l 260 110 l 689 110 l 689 0 m 639 1275 q 576 1140 632 1192 q 419 1089 519 1089 q 265 1140 317 1089 q 207 1275 213 1190 l 282 1275 q 324 1203 289 1218 q 422 1188 358 1188 q 516 1204 476 1188 q 563 1275 556 1221 l 639 1275 z "},"ĕ":{"ha":783,"x_min":76,"x_max":713,"o":"m 406 758 q 570 717 501 758 q 676 599 639 675 q 713 422 713 524 l 713 349 l 203 349 q 267 156 206 222 q 440 90 329 90 q 566 103 511 90 q 679 142 621 117 l 679 35 q 567 -2 622 10 q 435 -14 511 -14 q 248 29 329 -14 q 122 158 167 72 q 76 367 76 243 q 117 576 76 489 q 233 711 158 664 q 406 758 307 758 m 404 658 q 266 602 317 658 q 206 446 215 546 l 585 446 q 540 599 583 540 q 404 658 497 658 m 611 1028 q 548 893 604 944 q 392 842 492 842 q 237 892 289 842 q 179 1028 185 943 l 254 1028 q 296 956 261 971 q 394 940 331 940 q 488 957 449 940 q 535 1028 528 974 l 611 1028 z "},"Ė":{"ha":772,"x_min":135,"x_max":689,"o":"m 689 0 l 135 0 l 135 992 l 689 992 l 689 882 l 260 882 l 260 572 l 664 572 l 664 464 l 260 464 l 260 110 l 689 110 l 689 0 m 425 1271 q 474 1252 453 1271 q 496 1193 496 1233 q 474 1135 496 1154 q 425 1115 453 1115 q 374 1135 394 1115 q 353 1193 353 1154 q 374 1252 353 1233 q 425 1271 394 1271 z "},"ė":{"ha":783,"x_min":76,"x_max":713,"o":"m 406 758 q 570 717 501 758 q 676 599 639 675 q 713 422 713 524 l 713 349 l 203 349 q 267 156 206 222 q 440 90 329 90 q 566 103 511 90 q 679 142 621 117 l 679 35 q 567 -2 622 10 q 435 -14 511 -14 q 248 29 329 -14 q 122 158 167 72 q 76 367 76 243 q 117 576 76 489 q 233 711 158 664 q 406 758 307 758 m 404 658 q 266 602 317 658 q 206 446 215 546 l 585 446 q 540 599 583 540 q 404 658 497 658 m 397 1024 q 447 1005 425 1024 q 468 946 468 986 q 447 888 468 907 q 397 868 425 868 q 346 888 367 868 q 325 946 325 907 q 346 1005 325 986 q 397 1024 367 1024 z "},"Ę":{"ha":772,"x_min":135,"x_max":689,"o":"m 689 0 l 135 0 l 135 992 l 689 992 l 689 882 l 260 882 l 260 572 l 664 572 l 664 464 l 260 464 l 260 110 l 689 110 l 689 0 m 553 -161 q 615 -224 553 -224 q 655 -220 639 -224 q 682 -215 671 -217 l 682 -293 q 643 -302 663 -299 q 596 -306 624 -306 q 488 -271 522 -306 q 453 -175 453 -236 q 473 -97 453 -135 q 523 -29 493 -60 q 581 21 553 1 l 647 0 q 576 -81 600 -44 q 553 -161 553 -118 z "},"ę":{"ha":783,"x_min":76,"x_max":713,"o":"m 540 -161 q 603 -224 540 -224 q 642 -220 626 -224 q 669 -215 658 -217 l 669 -293 q 631 -302 650 -299 q 583 -306 611 -306 q 475 -271 510 -306 q 440 -175 440 -236 q 469 -84 440 -128 q 532 -8 497 -40 q 435 -14 489 -14 q 248 29 329 -14 q 122 158 167 72 q 76 367 76 243 q 117 576 76 489 q 233 711 158 664 q 406 758 307 758 q 570 717 501 758 q 676 599 639 675 q 713 422 713 524 l 713 349 l 203 349 q 267 156 206 222 q 440 90 329 90 q 566 103 511 90 q 679 142 621 117 l 679 35 q 593 -43 624 -10 q 551 -104 563 -76 q 540 -161 540 -132 m 404 658 q 266 602 317 658 q 206 446 215 546 l 585 446 q 540 599 583 540 q 404 658 497 658 z "},"Ě":{"ha":772,"x_min":135,"x_max":689,"o":"m 689 0 l 135 0 l 135 992 l 689 992 l 689 882 l 260 882 l 260 572 l 664 572 l 664 464 l 260 464 l 260 110 l 689 110 l 689 0 m 360 1089 q 311 1158 342 1121 q 247 1231 281 1194 q 189 1293 214 1267 l 189 1311 l 272 1311 q 347 1254 308 1288 q 421 1183 386 1221 q 497 1254 458 1221 q 572 1311 536 1288 l 658 1311 l 658 1293 q 598 1231 632 1267 q 533 1158 564 1194 q 485 1089 501 1121 l 360 1089 z "},"ě":{"ha":783,"x_min":76,"x_max":713,"o":"m 406 758 q 570 717 501 758 q 676 599 639 675 q 713 422 713 524 l 713 349 l 203 349 q 267 156 206 222 q 440 90 329 90 q 566 103 511 90 q 679 142 621 117 l 679 35 q 567 -2 622 10 q 435 -14 511 -14 q 248 29 329 -14 q 122 158 167 72 q 76 367 76 243 q 117 576 76 489 q 233 711 158 664 q 406 758 307 758 m 404 658 q 266 602 317 658 q 206 446 215 546 l 585 446 q 540 599 583 540 q 404 658 497 658 m 332 842 q 283 910 314 874 q 219 983 253 947 q 161 1046 186 1019 l 161 1064 l 244 1064 q 319 1007 281 1040 q 393 936 358 974 q 469 1007 431 974 q 544 1064 508 1040 l 631 1064 l 631 1046 q 570 983 604 1019 q 505 910 536 947 q 457 842 474 874 l 332 842 z "},"Ĝ":{"ha":1011,"x_min":85,"x_max":908,"o":"m 565 524 l 908 524 l 908 38 q 746 -1 828 11 q 560 -14 664 -14 q 300 48 406 -14 q 140 224 194 110 q 85 496 85 339 q 146 765 85 651 q 322 942 207 879 q 599 1006 436 1006 q 756 990 682 1006 q 894 947 831 975 l 847 839 q 728 879 794 863 q 592 896 663 896 q 315 789 414 896 q 215 496 215 682 q 253 287 215 378 q 374 145 292 196 q 589 94 456 94 q 700 101 654 94 q 783 118 746 108 l 783 413 l 565 413 l 565 524 m 624 1311 q 672 1242 640 1281 q 737 1167 703 1204 q 797 1104 771 1131 l 797 1089 l 711 1089 q 636 1144 675 1111 q 560 1214 597 1176 q 485 1144 522 1176 q 411 1089 447 1113 l 328 1089 l 328 1104 q 387 1168 354 1132 q 450 1242 419 1204 q 499 1311 481 1281 l 624 1311 z "},"ĝ":{"ha":854,"x_min":76,"x_max":736,"o":"m 382 758 q 515 731 456 758 q 615 646 574 703 l 622 646 l 639 744 l 736 744 l 736 -12 q 655 -253 736 -172 q 403 -333 574 -333 q 135 -286 239 -333 l 135 -174 q 410 -232 244 -232 q 560 -176 506 -232 q 615 -22 615 -119 l 615 7 q 617 55 615 24 q 619 99 618 86 l 614 99 q 383 -14 539 -14 q 158 88 239 -14 q 76 371 76 189 q 158 653 76 549 q 382 758 239 758 m 399 656 q 254 581 306 656 q 203 369 203 507 q 253 159 203 232 q 401 86 304 86 q 565 147 514 86 q 617 342 617 207 l 617 371 q 564 590 617 524 q 399 656 511 656 m 474 1064 q 522 995 490 1033 q 587 920 553 957 q 647 857 621 883 l 647 842 l 561 842 q 486 897 525 864 q 410 967 447 929 q 335 897 372 929 q 261 842 297 865 l 178 842 l 178 857 q 237 921 204 885 q 300 995 269 957 q 349 1064 331 1033 l 474 1064 z "},"Ğ":{"ha":1011,"x_min":85,"x_max":908,"o":"m 565 524 l 908 524 l 908 38 q 746 -1 828 11 q 560 -14 664 -14 q 300 48 406 -14 q 140 224 194 110 q 85 496 85 339 q 146 765 85 651 q 322 942 207 879 q 599 1006 436 1006 q 756 990 682 1006 q 894 947 831 975 l 847 839 q 728 879 794 863 q 592 896 663 896 q 315 789 414 896 q 215 496 215 682 q 253 287 215 378 q 374 145 292 196 q 589 94 456 94 q 700 101 654 94 q 783 118 746 108 l 783 413 l 565 413 l 565 524 m 778 1275 q 715 1140 771 1192 q 558 1089 658 1089 q 403 1140 456 1089 q 346 1275 351 1190 l 421 1275 q 463 1203 428 1218 q 561 1188 497 1188 q 655 1204 615 1188 q 701 1275 694 1221 l 778 1275 z "},"ğ":{"ha":854,"x_min":76,"x_max":736,"o":"m 382 758 q 515 731 456 758 q 615 646 574 703 l 622 646 l 639 744 l 736 744 l 736 -12 q 655 -253 736 -172 q 403 -333 574 -333 q 135 -286 239 -333 l 135 -174 q 410 -232 244 -232 q 560 -176 506 -232 q 615 -22 615 -119 l 615 7 q 617 55 615 24 q 619 99 618 86 l 614 99 q 383 -14 539 -14 q 158 88 239 -14 q 76 371 76 189 q 158 653 76 549 q 382 758 239 758 m 399 656 q 254 581 306 656 q 203 369 203 507 q 253 159 203 232 q 401 86 304 86 q 565 147 514 86 q 617 342 617 207 l 617 371 q 564 590 617 524 q 399 656 511 656 m 628 1028 q 565 893 621 944 q 408 842 508 842 q 253 892 306 842 q 196 1028 201 943 l 271 1028 q 313 956 278 971 q 411 940 347 940 q 505 957 465 940 q 551 1028 544 974 l 628 1028 z "},"Ġ":{"ha":1011,"x_min":85,"x_max":908,"o":"m 565 524 l 908 524 l 908 38 q 746 -1 828 11 q 560 -14 664 -14 q 300 48 406 -14 q 140 224 194 110 q 85 496 85 339 q 146 765 85 651 q 322 942 207 879 q 599 1006 436 1006 q 756 990 682 1006 q 894 947 831 975 l 847 839 q 728 879 794 863 q 592 896 663 896 q 315 789 414 896 q 215 496 215 682 q 253 287 215 378 q 374 145 292 196 q 589 94 456 94 q 700 101 654 94 q 783 118 746 108 l 783 413 l 565 413 l 565 524 m 564 1271 q 613 1252 592 1271 q 635 1193 635 1233 q 613 1135 635 1154 q 564 1115 592 1115 q 513 1135 533 1115 q 492 1193 492 1154 q 513 1252 492 1233 q 564 1271 533 1271 z "},"ġ":{"ha":854,"x_min":76,"x_max":736,"o":"m 382 758 q 515 731 456 758 q 615 646 574 703 l 622 646 l 639 744 l 736 744 l 736 -12 q 655 -253 736 -172 q 403 -333 574 -333 q 135 -286 239 -333 l 135 -174 q 410 -232 244 -232 q 560 -176 506 -232 q 615 -22 615 -119 l 615 7 q 617 55 615 24 q 619 99 618 86 l 614 99 q 383 -14 539 -14 q 158 88 239 -14 q 76 371 76 189 q 158 653 76 549 q 382 758 239 758 m 399 656 q 254 581 306 656 q 203 369 203 507 q 253 159 203 232 q 401 86 304 86 q 565 147 514 86 q 617 342 617 207 l 617 371 q 564 590 617 524 q 399 656 511 656 m 414 1024 q 463 1005 442 1024 q 485 946 485 986 q 463 888 485 907 q 414 868 442 868 q 363 888 383 868 q 342 946 342 907 q 363 1005 342 986 q 414 1024 383 1024 z "},"Ģ":{"ha":1011,"x_min":85,"x_max":908,"o":"m 565 524 l 908 524 l 908 38 q 746 -1 828 11 q 560 -14 664 -14 q 300 48 406 -14 q 140 224 194 110 q 85 496 85 339 q 146 765 85 651 q 322 942 207 879 q 599 1006 436 1006 q 756 990 682 1006 q 894 947 831 975 l 847 839 q 728 879 794 863 q 592 896 663 896 q 315 789 414 896 q 215 496 215 682 q 253 287 215 378 q 374 145 292 196 q 589 94 456 94 q 700 101 654 94 q 783 118 746 108 l 783 413 l 565 413 l 565 524 m 647 -97 q 624 -160 642 -122 q 584 -237 607 -199 q 536 -307 561 -276 l 469 -307 l 469 -290 q 492 -230 481 -267 q 514 -153 504 -193 q 526 -85 524 -114 l 647 -85 l 647 -97 z "},"ģ":{"ha":854,"x_min":76,"x_max":736,"o":"m 504 1047 q 481 987 493 1024 q 460 911 469 950 q 446 842 450 872 l 325 842 l 325 854 q 349 917 332 879 q 388 994 365 954 q 436 1064 411 1033 l 504 1064 l 504 1047 m 382 758 q 515 731 456 758 q 615 646 574 703 l 622 646 l 639 744 l 736 744 l 736 -12 q 655 -253 736 -172 q 403 -333 574 -333 q 135 -286 239 -333 l 135 -174 q 410 -232 244 -232 q 560 -176 506 -232 q 615 -22 615 -119 l 615 7 q 617 55 615 24 q 619 99 618 86 l 614 99 q 383 -14 539 -14 q 158 88 239 -14 q 76 371 76 189 q 158 653 76 549 q 382 758 239 758 m 399 656 q 254 581 306 656 q 203 369 203 507 q 253 159 203 232 q 401 86 304 86 q 565 147 514 86 q 617 342 617 207 l 617 371 q 564 590 617 524 q 399 656 511 656 z "},"Ĥ":{"ha":1029,"x_min":135,"x_max":893,"o":"m 893 0 l 768 0 l 768 463 l 260 463 l 260 0 l 135 0 l 135 992 l 260 992 l 260 572 l 768 572 l 768 992 l 893 992 l 893 0 m 576 1311 q 624 1242 593 1281 q 690 1167 656 1204 q 750 1104 724 1131 l 750 1089 l 664 1089 q 589 1144 628 1111 q 513 1214 550 1176 q 438 1144 475 1176 q 364 1089 400 1113 l 281 1089 l 281 1104 q 340 1168 307 1132 q 403 1242 372 1204 q 451 1311 433 1281 l 576 1311 z "},"ĥ":{"ha":858,"x_min":-54,"x_max":746,"o":"m 240 746 q 233 642 240 690 l 242 642 q 340 728 278 699 q 474 757 401 757 q 678 692 610 757 q 746 485 746 628 l 746 0 l 625 0 l 625 476 q 458 656 625 656 q 287 585 333 656 q 240 385 240 515 l 240 0 l 118 0 l 118 1056 l 240 1056 l 240 746 m 242 1375 q 290 1306 258 1344 q 355 1231 321 1268 q 415 1168 389 1194 l 415 1153 l 329 1153 q 254 1208 293 1175 q 178 1278 215 1240 q 103 1208 140 1240 q 29 1153 65 1176 l -54 1153 l -54 1168 q 5 1232 -28 1196 q 68 1306 38 1268 q 117 1375 99 1344 l 242 1375 z "},"Ħ":{"ha":1029,"x_min":0,"x_max":1028,"o":"m 135 0 l 135 726 l 0 726 l 0 826 l 135 826 l 135 992 l 260 992 l 260 826 l 768 826 l 768 992 l 893 992 l 893 826 l 1028 826 l 1028 726 l 893 726 l 893 0 l 768 0 l 768 463 l 260 463 l 260 0 l 135 0 m 260 572 l 768 572 l 768 726 l 260 726 l 260 572 z "},"ħ":{"ha":858,"x_min":13,"x_max":746,"o":"m 240 1056 l 240 931 l 535 931 l 535 839 l 240 839 l 240 718 q 238 665 240 692 q 233 615 236 638 l 242 615 q 340 701 278 672 q 475 731 403 731 q 678 665 610 731 q 746 457 746 600 l 746 0 l 625 0 l 625 449 q 458 628 625 628 q 287 558 333 628 q 240 358 240 489 l 240 0 l 118 0 l 118 839 l 13 839 l 13 931 l 118 931 l 118 1056 l 240 1056 z "},"Ĩ":{"ha":471,"x_min":-18,"x_max":492,"o":"m 414 0 l 56 0 l 56 72 l 172 99 l 172 892 l 56 919 l 56 992 l 414 992 l 414 919 l 297 892 l 297 99 l 414 72 l 414 0 m -18 1089 q 30 1219 -10 1171 q 135 1267 69 1267 q 213 1247 176 1267 q 283 1207 250 1226 q 346 1188 317 1188 q 395 1208 378 1188 q 422 1268 413 1228 l 492 1268 q 444 1139 483 1188 q 340 1090 406 1090 q 265 1110 301 1090 q 194 1149 228 1129 q 129 1169 160 1169 q 79 1149 96 1169 q 53 1089 63 1129 l -18 1089 z "},"ĩ":{"ha":358,"x_min":-75,"x_max":435,"o":"m 240 0 l 118 0 l 118 744 l 240 744 l 240 0 m -75 842 q -27 972 -67 924 q 78 1019 13 1019 q 156 999 119 1019 q 226 960 193 979 q 289 940 260 940 q 338 960 321 940 q 365 1021 356 981 l 435 1021 q 388 892 426 940 q 283 843 349 843 q 208 863 244 843 q 137 902 171 882 q 72 922 103 922 q 22 902 39 922 q -4 842 6 882 l -75 842 z "},"Ī":{"ha":471,"x_min":29,"x_max":442,"o":"m 414 0 l 56 0 l 56 72 l 172 99 l 172 892 l 56 919 l 56 992 l 414 992 l 414 919 l 297 892 l 297 99 l 414 72 l 414 0 m 442 1188 l 442 1089 l 29 1089 l 29 1188 l 442 1188 z "},"ī":{"ha":358,"x_min":-28,"x_max":385,"o":"m 240 0 l 118 0 l 118 744 l 240 744 l 240 0 m 385 940 l 385 842 l -28 842 l -28 940 l 385 940 z "},"Ĭ":{"ha":471,"x_min":19,"x_max":451,"o":"m 414 0 l 56 0 l 56 72 l 172 99 l 172 892 l 56 919 l 56 992 l 414 992 l 414 919 l 297 892 l 297 99 l 414 72 l 414 0 m 451 1275 q 388 1140 444 1192 q 232 1089 332 1089 q 77 1140 129 1089 q 19 1275 25 1190 l 94 1275 q 136 1203 101 1218 q 235 1188 171 1188 q 328 1204 289 1188 q 375 1275 368 1221 l 451 1275 z "},"ĭ":{"ha":358,"x_min":-37,"x_max":394,"o":"m 240 0 l 118 0 l 118 744 l 240 744 l 240 0 m 394 1028 q 331 893 388 944 q 175 842 275 842 q 20 892 72 842 q -37 1028 -32 943 l 38 1028 q 79 956 44 971 q 178 940 114 940 q 272 957 232 940 q 318 1028 311 974 l 394 1028 z "},"Į":{"ha":471,"x_min":56,"x_max":414,"o":"m 414 0 l 56 0 l 56 72 l 172 99 l 172 892 l 56 919 l 56 992 l 414 992 l 414 919 l 297 892 l 297 99 l 414 72 l 414 0 m 283 -161 q 346 -224 283 -224 q 385 -220 369 -224 q 413 -215 401 -217 l 413 -293 q 374 -302 393 -299 q 326 -306 354 -306 q 218 -271 253 -306 q 183 -175 183 -236 q 203 -97 183 -135 q 253 -29 224 -60 q 311 21 283 1 l 378 0 q 307 -81 331 -44 q 283 -161 283 -118 z "},"į":{"ha":358,"x_min":38,"x_max":267,"o":"m 181 1024 q 230 1005 208 1024 q 251 946 251 986 q 230 888 251 907 q 181 868 208 868 q 129 888 150 868 q 108 946 108 907 q 129 1005 108 986 q 181 1024 150 1024 m 240 744 l 240 0 l 118 0 l 118 744 l 240 744 m 138 -161 q 200 -224 138 -224 q 240 -220 224 -224 q 267 -215 256 -217 l 267 -293 q 228 -302 247 -299 q 181 -306 208 -306 q 72 -271 107 -306 q 38 -175 38 -236 q 58 -97 38 -135 q 108 -29 78 -60 q 165 21 138 1 l 232 0 q 161 -81 185 -44 q 138 -161 138 -118 z "},"İ":{"ha":471,"x_min":56,"x_max":414,"o":"m 414 0 l 56 0 l 56 72 l 172 99 l 172 892 l 56 919 l 56 992 l 414 992 l 414 919 l 297 892 l 297 99 l 414 72 l 414 0 m 238 1271 q 287 1252 265 1271 q 308 1193 308 1233 q 287 1135 308 1154 q 238 1115 265 1115 q 186 1135 207 1115 q 165 1193 165 1154 q 186 1252 165 1233 q 238 1271 207 1271 z "},"Ĳ":{"ha":850,"x_min":56,"x_max":724,"o":"m 414 0 l 56 0 l 56 72 l 172 99 l 172 892 l 56 919 l 56 992 l 414 992 l 414 919 l 297 892 l 297 99 l 414 72 l 414 0 m 465 -264 q 407 -259 432 -264 q 363 -246 382 -254 l 363 -140 q 410 -150 385 -146 q 463 -154 435 -154 q 528 -140 497 -154 q 579 -92 560 -126 q 599 6 599 -57 l 599 992 l 724 992 l 724 15 q 653 -196 724 -128 q 465 -264 582 -264 z "},"ĳ":{"ha":717,"x_min":108,"x_max":610,"o":"m 181 1024 q 230 1005 208 1024 q 251 946 251 986 q 230 888 251 907 q 181 868 208 868 q 129 888 150 868 q 108 946 108 907 q 129 1005 108 986 q 181 1024 150 1024 m 240 744 l 240 0 l 118 0 l 118 744 l 240 744 m 467 946 q 488 1005 467 986 q 539 1024 508 1024 q 588 1005 567 1024 q 610 946 610 986 q 588 888 610 907 q 539 868 567 868 q 488 888 508 868 q 467 946 467 907 m 389 -333 q 328 -328 354 -333 q 282 -317 301 -324 l 282 -218 q 325 -228 303 -224 q 374 -232 347 -232 q 447 -208 418 -232 q 476 -115 476 -183 l 476 744 l 599 744 l 599 -111 q 549 -274 599 -215 q 389 -333 499 -333 z "},"Ĵ":{"ha":379,"x_min":-108,"x_max":425,"o":"m -6 -264 q -64 -259 -39 -264 q -108 -246 -89 -254 l -108 -140 q -61 -150 -86 -146 q -8 -154 -36 -154 q 58 -140 26 -154 q 108 -92 89 -126 q 128 6 128 -57 l 128 992 l 253 992 l 253 15 q 182 -196 253 -128 q -6 -264 111 -264 m 251 1311 q 299 1242 268 1281 q 365 1167 331 1204 q 425 1104 399 1131 l 425 1089 l 339 1089 q 264 1144 303 1111 q 188 1214 225 1176 q 113 1144 150 1176 q 39 1089 75 1113 l -44 1089 l -44 1104 q 15 1168 -18 1132 q 78 1242 47 1204 q 126 1311 108 1281 l 251 1311 z "},"ĵ":{"ha":358,"x_min":-76,"x_max":414,"o":"m 31 -333 q -31 -328 -4 -333 q -76 -317 -57 -324 l -76 -218 q -33 -228 -56 -224 q 15 -232 -11 -232 q 89 -208 60 -232 q 118 -115 118 -183 l 118 744 l 240 744 l 240 -111 q 190 -274 240 -215 q 31 -333 140 -333 m 240 1064 q 288 995 257 1033 q 353 920 319 957 q 414 857 388 883 l 414 842 l 328 842 q 253 897 292 864 q 176 967 214 929 q 101 897 139 929 q 28 842 64 865 l -56 842 l -56 857 q 3 921 -29 885 q 67 995 36 957 q 115 1064 97 1033 l 240 1064 z "},"Ķ":{"ha":860,"x_min":135,"x_max":860,"o":"m 860 0 l 713 0 l 361 474 l 260 385 l 260 0 l 135 0 l 135 992 l 260 992 l 260 503 q 344 597 301 550 q 431 692 388 644 l 699 992 l 844 992 l 451 560 l 860 0 m 547 -97 q 524 -160 542 -122 q 484 -237 507 -199 q 436 -307 461 -276 l 369 -307 l 369 -290 q 392 -230 381 -267 q 414 -153 404 -193 q 426 -85 424 -114 l 547 -85 l 547 -97 z "},"ķ":{"ha":742,"x_min":118,"x_max":729,"o":"m 239 504 q 237 446 239 482 q 233 383 235 410 l 239 383 q 264 415 247 394 q 298 458 281 436 q 328 493 315 479 l 565 744 l 708 744 l 407 426 l 729 0 l 582 0 l 324 347 l 239 274 l 239 0 l 118 0 l 118 1056 l 239 1056 l 239 504 m 460 -97 q 437 -160 454 -122 q 397 -237 419 -199 q 349 -307 374 -276 l 282 -307 l 282 -290 q 305 -230 293 -267 q 326 -153 317 -193 q 339 -85 336 -114 l 460 -85 l 460 -97 z "},"ĸ":{"ha":742,"x_min":118,"x_max":729,"o":"m 707 744 l 425 415 l 729 0 l 583 0 l 339 336 l 247 261 l 247 0 l 118 0 l 118 744 l 247 744 l 247 551 q 244 443 247 496 q 239 363 242 390 l 242 363 q 269 399 254 381 q 296 433 283 418 l 560 744 l 707 744 z "},"Ĺ":{"ha":728,"x_min":121,"x_max":693,"o":"m 135 0 l 135 992 l 260 992 l 260 111 l 693 111 l 693 0 l 135 0 m 400 1297 q 349 1233 383 1272 q 274 1153 314 1193 q 201 1089 235 1114 l 121 1089 l 121 1106 q 166 1168 142 1132 q 214 1242 190 1204 q 253 1311 238 1281 l 400 1311 l 400 1297 z "},"ĺ":{"ha":358,"x_min":106,"x_max":385,"o":"m 240 0 l 118 0 l 118 1056 l 240 1056 l 240 0 m 385 1361 q 333 1297 368 1336 q 259 1217 299 1257 q 186 1153 219 1178 l 106 1153 l 106 1169 q 151 1232 126 1196 q 199 1306 175 1268 q 238 1375 222 1344 l 385 1375 l 385 1361 z "},"Ļ":{"ha":728,"x_min":135,"x_max":693,"o":"m 135 0 l 135 992 l 260 992 l 260 111 l 693 111 l 693 0 l 135 0 m 506 -97 q 483 -160 500 -122 q 442 -237 465 -199 q 394 -307 419 -276 l 328 -307 l 328 -290 q 351 -230 339 -267 q 372 -153 363 -193 q 385 -85 382 -114 l 506 -85 l 506 -97 z "},"ļ":{"ha":358,"x_min":90,"x_max":268,"o":"m 240 0 l 118 0 l 118 1056 l 240 1056 l 240 0 m 268 -97 q 245 -160 263 -122 q 205 -237 228 -199 q 157 -307 182 -276 l 90 -307 l 90 -290 q 113 -230 101 -267 q 135 -153 125 -193 q 147 -85 144 -114 l 268 -85 l 268 -97 z "},"Ľ":{"ha":728,"x_min":135,"x_max":693,"o":"m 693 979 q 672 917 688 954 q 635 840 656 879 q 593 769 614 800 l 526 769 l 526 786 q 545 849 536 813 q 562 924 554 886 q 572 992 569 963 l 693 992 l 693 979 m 135 0 l 135 992 l 260 992 l 260 111 l 693 111 l 693 0 l 135 0 z "},"ľ":{"ha":358,"x_min":118,"x_max":468,"o":"m 468 1043 q 447 981 463 1018 q 410 903 431 943 q 368 833 389 864 l 301 833 l 301 850 q 320 913 311 876 q 337 988 329 950 q 347 1056 344 1026 l 468 1056 l 468 1043 m 240 0 l 118 0 l 118 1056 l 240 1056 l 240 0 z "},"Ŀ":{"ha":728,"x_min":135,"x_max":693,"o":"m 135 0 l 135 992 l 260 992 l 260 111 l 693 111 l 693 0 l 135 0 m 532 574 q 581 555 560 574 q 603 496 603 536 q 581 438 603 457 q 532 418 560 418 q 481 438 501 418 q 460 496 460 457 q 481 555 460 536 q 532 574 501 574 z "},"ŀ":{"ha":372,"x_min":118,"x_max":436,"o":"m 240 0 l 118 0 l 118 1056 l 240 1056 l 240 0 m 365 604 q 415 585 393 604 q 436 526 436 567 q 415 468 436 488 q 365 449 393 449 q 314 468 335 449 q 293 526 293 488 q 314 585 293 567 q 365 604 335 604 z "},"Ł":{"ha":728,"x_min":18,"x_max":693,"o":"m 135 0 l 135 343 l 67 304 l 18 388 l 135 457 l 135 992 l 260 992 l 260 531 l 450 643 l 500 556 l 260 417 l 260 111 l 693 111 l 693 0 l 135 0 z "},"ł":{"ha":358,"x_min":-12,"x_max":371,"o":"m 108 0 l 108 396 l 38 351 l -12 433 l 108 511 l 108 1056 l 231 1056 l 231 590 l 319 651 l 371 569 l 231 475 l 231 0 l 108 0 z "},"Ń":{"ha":1056,"x_min":135,"x_max":921,"o":"m 921 0 l 775 0 l 244 824 l 239 824 q 246 703 242 775 q 250 554 250 631 l 250 0 l 135 0 l 135 992 l 279 992 l 808 171 l 814 171 q 810 238 813 193 q 806 335 808 282 q 804 432 804 388 l 804 992 l 921 992 l 921 0 m 733 1297 q 682 1233 717 1272 q 608 1153 647 1193 q 535 1089 568 1114 l 454 1089 l 454 1106 q 499 1168 475 1132 q 547 1242 524 1204 q 586 1311 571 1281 l 733 1311 l 733 1297 z "},"ń":{"ha":858,"x_min":118,"x_max":746,"o":"m 476 758 q 678 694 610 758 q 746 485 746 629 l 746 0 l 625 0 l 625 476 q 458 656 625 656 q 288 586 335 656 q 240 386 240 517 l 240 0 l 118 0 l 118 744 l 217 744 l 235 643 l 242 643 q 342 730 278 701 q 476 758 406 758 m 635 1050 q 583 985 618 1025 q 509 906 549 946 q 436 842 469 867 l 356 842 l 356 858 q 401 921 376 885 q 449 995 425 957 q 488 1064 472 1033 l 635 1064 l 635 1050 z "},"Ņ":{"ha":1056,"x_min":135,"x_max":921,"o":"m 921 0 l 775 0 l 244 824 l 239 824 q 246 703 242 775 q 250 554 250 631 l 250 0 l 135 0 l 135 992 l 279 992 l 808 171 l 814 171 q 810 238 813 193 q 806 335 808 282 q 804 432 804 388 l 804 992 l 921 992 l 921 0 m 617 -97 q 594 -160 611 -122 q 553 -237 576 -199 q 506 -307 531 -276 l 439 -307 l 439 -290 q 462 -230 450 -267 q 483 -153 474 -193 q 496 -85 493 -114 l 617 -85 l 617 -97 z "},"ņ":{"ha":858,"x_min":118,"x_max":746,"o":"m 476 758 q 678 694 610 758 q 746 485 746 629 l 746 0 l 625 0 l 625 476 q 458 656 625 656 q 288 586 335 656 q 240 386 240 517 l 240 0 l 118 0 l 118 744 l 217 744 l 235 643 l 242 643 q 342 730 278 701 q 476 758 406 758 m 518 -97 q 495 -160 513 -122 q 455 -237 478 -199 q 407 -307 432 -276 l 340 -307 l 340 -290 q 363 -230 351 -267 q 385 -153 375 -193 q 397 -85 394 -114 l 518 -85 l 518 -97 z "},"Ň":{"ha":1056,"x_min":135,"x_max":921,"o":"m 921 0 l 775 0 l 244 824 l 239 824 q 246 703 242 775 q 250 554 250 631 l 250 0 l 135 0 l 135 992 l 279 992 l 808 171 l 814 171 q 810 238 813 193 q 806 335 808 282 q 804 432 804 388 l 804 992 l 921 992 l 921 0 m 464 1089 q 415 1158 446 1121 q 351 1231 385 1194 q 293 1293 318 1267 l 293 1311 l 376 1311 q 451 1254 413 1288 q 525 1183 490 1221 q 601 1254 563 1221 q 676 1311 640 1288 l 763 1311 l 763 1293 q 702 1231 736 1267 q 637 1158 668 1194 q 589 1089 606 1121 l 464 1089 z "},"ň":{"ha":858,"x_min":118,"x_max":746,"o":"m 476 758 q 678 694 610 758 q 746 485 746 629 l 746 0 l 625 0 l 625 476 q 458 656 625 656 q 288 586 335 656 q 240 386 240 517 l 240 0 l 118 0 l 118 744 l 217 744 l 235 643 l 242 643 q 342 730 278 701 q 476 758 406 758 m 365 842 q 317 910 347 874 q 253 983 286 947 q 194 1046 219 1019 l 194 1064 l 278 1064 q 353 1007 314 1040 q 426 936 392 974 q 503 1007 464 974 q 578 1064 542 1040 l 664 1064 l 664 1046 q 603 983 638 1019 q 538 910 569 947 q 490 842 507 874 l 365 842 z "},"ŉ":{"ha":956,"x_min":1,"x_max":843,"o":"m 574 758 q 775 694 707 758 q 843 485 843 629 l 843 0 l 722 0 l 722 476 q 556 656 722 656 q 385 586 432 656 q 338 386 338 517 l 338 0 l 215 0 l 215 744 l 314 744 l 332 643 l 339 643 q 439 730 375 701 q 574 758 503 758 m 211 976 q 159 815 193 904 q 92 651 125 725 l 1 651 q 28 765 15 704 q 53 884 42 825 q 71 992 64 943 l 201 992 l 211 976 z "},"Ŋ":{"ha":1056,"x_min":135,"x_max":921,"o":"m 660 -264 q 599 -259 625 -264 q 554 -246 574 -254 l 554 -140 q 603 -150 576 -146 q 660 -154 629 -154 q 728 -141 696 -154 q 783 -94 761 -128 q 804 0 804 -60 l 244 824 l 239 824 q 244 749 242 797 q 248 644 246 700 q 250 538 250 589 l 250 0 l 135 0 l 135 992 l 279 992 l 808 197 l 814 197 q 807 320 810 242 q 804 475 804 399 l 804 992 l 921 992 l 921 8 q 850 -197 921 -131 q 660 -264 779 -264 z "},"ŋ":{"ha":858,"x_min":118,"x_max":747,"o":"m 547 -333 q 490 -328 514 -333 q 449 -317 467 -324 l 449 -218 q 488 -228 468 -224 q 532 -232 507 -232 q 599 -208 572 -232 q 625 -115 625 -183 l 625 478 q 460 656 625 656 q 288 587 336 656 q 240 388 240 518 l 240 0 l 118 0 l 118 744 l 217 744 l 236 643 l 243 643 q 341 730 279 701 q 475 758 403 758 q 679 694 611 758 q 747 486 747 629 l 747 -111 q 699 -274 747 -215 q 547 -333 650 -333 z "},"Ō":{"ha":1085,"x_min":85,"x_max":1000,"o":"m 1000 497 q 948 228 1000 343 q 794 50 896 114 q 543 -14 693 -14 q 287 50 389 -14 q 135 229 185 114 q 85 499 85 344 q 135 765 85 651 q 287 943 185 879 q 544 1007 389 1007 q 794 944 693 1007 q 948 766 896 881 q 1000 497 1000 651 m 217 497 q 296 202 217 310 q 543 94 375 94 q 790 202 713 94 q 868 497 868 310 q 790 791 868 685 q 544 897 713 897 q 297 791 376 897 q 217 497 217 685 m 749 1188 l 749 1089 l 336 1089 l 336 1188 l 749 1188 z "},"ō":{"ha":840,"x_min":76,"x_max":765,"o":"m 765 374 q 672 88 765 189 q 418 -14 578 -14 q 242 31 319 -14 q 121 163 165 76 q 76 374 76 250 q 169 658 76 558 q 422 758 263 758 q 601 713 524 758 q 722 583 678 668 q 765 374 765 497 m 203 374 q 255 165 203 242 q 421 88 307 88 q 586 165 533 88 q 639 374 639 242 q 586 581 639 506 q 419 656 533 656 q 254 581 306 656 q 203 374 203 506 m 626 940 l 626 842 l 214 842 l 214 940 l 626 940 z "},"Ŏ":{"ha":1085,"x_min":85,"x_max":1000,"o":"m 1000 497 q 948 228 1000 343 q 794 50 896 114 q 543 -14 693 -14 q 287 50 389 -14 q 135 229 185 114 q 85 499 85 344 q 135 765 85 651 q 287 943 185 879 q 544 1007 389 1007 q 794 944 693 1007 q 948 766 896 881 q 1000 497 1000 651 m 217 497 q 296 202 217 310 q 543 94 375 94 q 790 202 713 94 q 868 497 868 310 q 790 791 868 685 q 544 897 713 897 q 297 791 376 897 q 217 497 217 685 m 758 1275 q 695 1140 751 1192 q 539 1089 639 1089 q 384 1140 436 1089 q 326 1275 332 1190 l 401 1275 q 443 1203 408 1218 q 542 1188 478 1188 q 635 1204 596 1188 q 682 1275 675 1221 l 758 1275 z "},"ŏ":{"ha":840,"x_min":76,"x_max":765,"o":"m 765 374 q 672 88 765 189 q 418 -14 578 -14 q 242 31 319 -14 q 121 163 165 76 q 76 374 76 250 q 169 658 76 558 q 422 758 263 758 q 601 713 524 758 q 722 583 678 668 q 765 374 765 497 m 203 374 q 255 165 203 242 q 421 88 307 88 q 586 165 533 88 q 639 374 639 242 q 586 581 639 506 q 419 656 533 656 q 254 581 306 656 q 203 374 203 506 m 636 1028 q 573 893 629 944 q 417 842 517 842 q 262 892 314 842 q 204 1028 210 943 l 279 1028 q 321 956 286 971 q 419 940 356 940 q 513 957 474 940 q 560 1028 553 974 l 636 1028 z "},"Ő":{"ha":1085,"x_min":85,"x_max":1000,"o":"m 1000 497 q 948 228 1000 343 q 794 50 896 114 q 543 -14 693 -14 q 287 50 389 -14 q 135 229 185 114 q 85 499 85 344 q 135 765 85 651 q 287 943 185 879 q 544 1007 389 1007 q 794 944 693 1007 q 948 766 896 881 q 1000 497 1000 651 m 217 497 q 296 202 217 310 q 543 94 375 94 q 790 202 713 94 q 868 497 868 310 q 790 791 868 685 q 544 897 713 897 q 297 791 376 897 q 217 497 217 685 m 792 1297 q 746 1233 778 1274 q 676 1153 714 1193 q 607 1089 639 1114 l 538 1089 l 538 1106 q 579 1168 557 1132 q 623 1242 601 1204 q 658 1311 644 1281 l 792 1311 l 792 1297 m 547 1297 q 501 1233 533 1274 q 432 1153 469 1193 q 363 1089 394 1114 l 293 1089 l 293 1106 q 357 1205 322 1146 q 414 1311 392 1264 l 547 1311 l 547 1297 z "},"ő":{"ha":840,"x_min":76,"x_max":765,"o":"m 765 374 q 672 88 765 189 q 418 -14 578 -14 q 242 31 319 -14 q 121 163 165 76 q 76 374 76 250 q 169 658 76 558 q 422 758 263 758 q 601 713 524 758 q 722 583 678 668 q 765 374 765 497 m 203 374 q 255 165 203 242 q 421 88 307 88 q 586 165 533 88 q 639 374 639 242 q 586 581 639 506 q 419 656 533 656 q 254 581 306 656 q 203 374 203 506 m 669 1050 q 624 986 656 1026 q 554 906 592 946 q 485 842 517 867 l 415 842 l 415 858 q 457 921 435 885 q 501 995 479 957 q 536 1064 522 1033 l 669 1064 l 669 1050 m 425 1050 q 379 986 411 1026 q 310 906 347 946 q 240 842 272 867 l 171 842 l 171 858 q 235 958 200 899 q 292 1064 269 1017 l 425 1064 l 425 1050 z "},"Œ":{"ha":1289,"x_min":85,"x_max":1206,"o":"m 536 1007 q 669 992 606 1007 l 1206 992 l 1206 882 l 807 882 l 807 572 l 1179 572 l 1179 464 l 807 464 l 807 110 l 1206 110 l 1206 0 l 678 0 q 613 -10 647 -6 q 543 -14 579 -14 q 287 50 389 -14 q 135 229 185 114 q 85 499 85 344 q 134 767 85 653 q 284 944 183 881 q 536 1007 385 1007 m 547 897 q 296 791 376 897 q 215 497 215 685 q 296 202 215 310 q 546 94 376 94 q 683 118 625 94 l 683 875 q 547 897 626 897 z "},"œ":{"ha":1314,"x_min":75,"x_max":1242,"o":"m 940 757 q 1161 666 1081 757 q 1242 422 1242 575 l 1242 349 l 747 349 q 808 153 750 215 q 972 90 865 90 q 1099 103 1046 90 q 1208 142 1153 117 l 1208 35 q 1099 -2 1153 10 q 971 -14 1044 -14 q 804 25 876 -14 q 688 140 732 64 q 574 25 644 64 q 411 -14 503 -14 q 238 31 314 -14 q 119 163 163 76 q 75 374 75 250 q 166 657 75 557 q 415 757 257 757 q 572 718 503 757 q 683 604 642 679 q 790 717 724 678 q 940 757 856 757 m 939 657 q 807 603 856 657 q 750 446 758 549 l 1113 446 q 1071 599 1113 542 q 939 657 1029 657 m 410 656 q 251 585 300 656 q 203 374 203 514 q 253 160 203 233 q 413 88 303 88 q 571 158 521 88 q 621 368 621 229 q 570 584 621 513 q 410 656 519 656 z "},"Ŕ":{"ha":864,"x_min":135,"x_max":843,"o":"m 408 992 q 681 922 593 992 q 769 710 769 851 q 740 578 769 631 q 666 494 711 525 q 571 444 621 463 l 843 0 l 697 0 l 457 410 l 260 410 l 260 0 l 135 0 l 135 992 l 408 992 m 401 883 l 260 883 l 260 515 l 408 515 q 585 563 529 515 q 640 704 640 611 q 582 842 640 801 q 401 883 524 883 m 638 1297 q 586 1233 621 1272 q 512 1153 551 1193 q 439 1089 472 1114 l 358 1089 l 358 1106 q 403 1168 379 1132 q 451 1242 428 1204 q 490 1311 475 1281 l 638 1311 l 638 1297 z "},"ŕ":{"ha":574,"x_min":118,"x_max":553,"o":"m 465 758 q 510 756 486 758 q 553 750 535 754 l 538 638 q 498 644 519 642 q 457 647 476 647 q 350 616 400 647 q 270 528 300 585 q 240 397 240 472 l 240 0 l 118 0 l 118 744 l 218 744 l 232 608 l 238 608 q 331 714 274 669 q 465 758 388 758 m 539 1050 q 488 985 522 1025 q 413 906 453 946 q 340 842 374 867 l 260 842 l 260 858 q 305 921 281 885 q 353 995 329 957 q 392 1064 376 1033 l 539 1064 l 539 1050 z "},"Ŗ":{"ha":864,"x_min":135,"x_max":843,"o":"m 408 992 q 681 922 593 992 q 769 710 769 851 q 740 578 769 631 q 666 494 711 525 q 571 444 621 463 l 843 0 l 697 0 l 457 410 l 260 410 l 260 0 l 135 0 l 135 992 l 408 992 m 401 883 l 260 883 l 260 515 l 408 515 q 585 563 529 515 q 640 704 640 611 q 582 842 640 801 q 401 883 524 883 m 544 -97 q 522 -160 539 -122 q 481 -237 504 -199 q 433 -307 458 -276 l 367 -307 l 367 -290 q 390 -230 378 -267 q 411 -153 401 -193 q 424 -85 421 -114 l 544 -85 l 544 -97 z "},"ŗ":{"ha":574,"x_min":86,"x_max":553,"o":"m 465 758 q 510 756 486 758 q 553 750 535 754 l 538 638 q 498 644 519 642 q 457 647 476 647 q 350 616 400 647 q 270 528 300 585 q 240 397 240 472 l 240 0 l 118 0 l 118 744 l 218 744 l 232 608 l 238 608 q 331 714 274 669 q 465 758 388 758 m 264 -97 q 241 -160 258 -122 q 201 -237 224 -199 q 153 -307 178 -276 l 86 -307 l 86 -290 q 109 -230 97 -267 q 131 -153 121 -193 q 143 -85 140 -114 l 264 -85 l 264 -97 z "},"Ř":{"ha":864,"x_min":135,"x_max":843,"o":"m 408 992 q 681 922 593 992 q 769 710 769 851 q 740 578 769 631 q 666 494 711 525 q 571 444 621 463 l 843 0 l 697 0 l 457 410 l 260 410 l 260 0 l 135 0 l 135 992 l 408 992 m 401 883 l 260 883 l 260 515 l 408 515 q 585 563 529 515 q 640 704 640 611 q 582 842 640 801 q 401 883 524 883 m 368 1089 q 319 1158 350 1121 q 256 1231 289 1194 q 197 1293 222 1267 l 197 1311 l 281 1311 q 356 1254 317 1288 q 429 1183 394 1221 q 506 1254 467 1221 q 581 1311 544 1288 l 667 1311 l 667 1293 q 606 1231 640 1267 q 541 1158 572 1194 q 493 1089 510 1121 l 368 1089 z "},"ř":{"ha":574,"x_min":99,"x_max":568,"o":"m 465 758 q 510 756 486 758 q 553 750 535 754 l 538 638 q 498 644 519 642 q 457 647 476 647 q 350 616 400 647 q 270 528 300 585 q 240 397 240 472 l 240 0 l 118 0 l 118 744 l 218 744 l 232 608 l 238 608 q 331 714 274 669 q 465 758 388 758 m 269 842 q 221 910 251 874 q 157 983 190 947 q 99 1046 124 1019 l 99 1064 l 182 1064 q 257 1007 218 1040 q 331 936 296 974 q 407 1007 368 974 q 482 1064 446 1040 l 568 1064 l 568 1046 q 508 983 542 1019 q 442 910 474 947 q 394 842 411 874 l 269 842 z "},"Ś":{"ha":763,"x_min":71,"x_max":697,"o":"m 697 265 q 601 60 697 133 q 343 -14 506 -14 q 189 -1 260 -14 q 71 33 118 11 l 71 153 q 195 113 121 131 q 349 94 269 94 q 516 138 460 94 q 572 254 572 181 q 551 336 572 303 q 480 398 531 369 q 339 458 429 426 q 148 571 213 504 q 83 753 83 638 q 124 888 83 832 q 235 975 164 944 q 400 1006 307 1006 q 550 990 482 1006 q 674 950 618 975 l 635 843 q 523 881 583 865 q 397 896 463 896 q 257 856 304 896 q 210 751 210 817 q 231 668 210 701 q 299 608 251 635 q 426 551 346 582 q 574 483 514 519 q 666 394 635 446 q 697 265 697 343 m 601 1297 q 550 1233 585 1272 q 476 1153 515 1193 q 403 1089 436 1114 l 322 1089 l 322 1106 q 367 1168 343 1132 q 415 1242 392 1204 q 454 1311 439 1281 l 601 1311 l 601 1297 z "},"ś":{"ha":665,"x_min":71,"x_max":603,"o":"m 603 206 q 522 42 603 97 q 306 -14 442 -14 q 172 -1 228 -14 q 72 33 115 11 l 72 144 q 180 103 117 122 q 308 85 243 85 q 443 115 401 85 q 485 194 485 144 q 469 244 485 222 q 415 289 454 267 q 301 339 375 311 q 178 394 229 367 q 99 461 126 422 q 71 561 71 500 q 148 707 71 656 q 350 758 225 758 q 477 745 418 758 q 588 708 536 732 l 546 611 q 447 644 499 631 q 342 658 396 658 q 227 634 267 658 q 188 568 188 610 q 206 516 188 538 q 266 474 224 494 q 379 426 308 454 q 500 372 450 400 q 576 305 550 344 q 603 206 603 265 m 539 1050 q 488 985 522 1025 q 413 906 453 946 q 340 842 374 867 l 260 842 l 260 858 q 305 921 281 885 q 353 995 329 957 q 392 1064 376 1033 l 539 1064 l 539 1050 z "},"Ŝ":{"ha":763,"x_min":71,"x_max":697,"o":"m 697 265 q 601 60 697 133 q 343 -14 506 -14 q 189 -1 260 -14 q 71 33 118 11 l 71 153 q 195 113 121 131 q 349 94 269 94 q 516 138 460 94 q 572 254 572 181 q 551 336 572 303 q 480 398 531 369 q 339 458 429 426 q 148 571 213 504 q 83 753 83 638 q 124 888 83 832 q 235 975 164 944 q 400 1006 307 1006 q 550 990 482 1006 q 674 950 618 975 l 635 843 q 523 881 583 865 q 397 896 463 896 q 257 856 304 896 q 210 751 210 817 q 231 668 210 701 q 299 608 251 635 q 426 551 346 582 q 574 483 514 519 q 666 394 635 446 q 697 265 697 343 m 457 1311 q 505 1242 474 1281 q 570 1167 536 1204 q 631 1104 604 1131 l 631 1089 l 544 1089 q 469 1144 508 1111 q 393 1214 431 1176 q 318 1144 356 1176 q 244 1089 281 1113 l 161 1089 l 161 1104 q 220 1168 188 1132 q 283 1242 253 1204 q 332 1311 314 1281 l 457 1311 z "},"ŝ":{"ha":665,"x_min":71,"x_max":603,"o":"m 603 206 q 522 42 603 97 q 306 -14 442 -14 q 172 -1 228 -14 q 72 33 115 11 l 72 144 q 180 103 117 122 q 308 85 243 85 q 443 115 401 85 q 485 194 485 144 q 469 244 485 222 q 415 289 454 267 q 301 339 375 311 q 178 394 229 367 q 99 461 126 422 q 71 561 71 500 q 148 707 71 656 q 350 758 225 758 q 477 745 418 758 q 588 708 536 732 l 546 611 q 447 644 499 631 q 342 658 396 658 q 227 634 267 658 q 188 568 188 610 q 206 516 188 538 q 266 474 224 494 q 379 426 308 454 q 500 372 450 400 q 576 305 550 344 q 603 206 603 265 m 394 1064 q 442 995 411 1033 q 508 920 474 957 q 568 857 542 883 l 568 842 l 482 842 q 407 897 446 864 q 331 967 368 929 q 256 897 293 929 q 182 842 218 865 l 99 842 l 99 857 q 158 921 125 885 q 221 995 190 957 q 269 1064 251 1033 l 394 1064 z "},"Ş":{"ha":763,"x_min":71,"x_max":697,"o":"m 697 265 q 601 60 697 133 q 343 -14 506 -14 q 189 -1 260 -14 q 71 33 118 11 l 71 153 q 195 113 121 131 q 349 94 269 94 q 516 138 460 94 q 572 254 572 181 q 551 336 572 303 q 480 398 531 369 q 339 458 429 426 q 148 571 213 504 q 83 753 83 638 q 124 888 83 832 q 235 975 164 944 q 400 1006 307 1006 q 550 990 482 1006 q 674 950 618 975 l 635 843 q 523 881 583 865 q 397 896 463 896 q 257 856 304 896 q 210 751 210 817 q 231 668 210 701 q 299 608 251 635 q 426 551 346 582 q 574 483 514 519 q 666 394 635 446 q 697 265 697 343 m 494 -193 q 443 -297 494 -260 q 289 -333 392 -333 q 219 -326 244 -333 l 219 -250 q 253 -255 232 -253 q 293 -257 274 -257 q 369 -244 343 -257 q 396 -196 396 -231 q 359 -143 396 -160 q 269 -119 322 -126 l 329 0 l 410 0 l 374 -74 q 459 -112 424 -85 q 494 -193 494 -140 z "},"ş":{"ha":665,"x_min":71,"x_max":603,"o":"m 603 206 q 522 42 603 97 q 306 -14 442 -14 q 172 -1 228 -14 q 72 33 115 11 l 72 144 q 180 103 117 122 q 308 85 243 85 q 443 115 401 85 q 485 194 485 144 q 469 244 485 222 q 415 289 454 267 q 301 339 375 311 q 178 394 229 367 q 99 461 126 422 q 71 561 71 500 q 148 707 71 656 q 350 758 225 758 q 477 745 418 758 q 588 708 536 732 l 546 611 q 447 644 499 631 q 342 658 396 658 q 227 634 267 658 q 188 568 188 610 q 206 516 188 538 q 266 474 224 494 q 379 426 308 454 q 500 372 450 400 q 576 305 550 344 q 603 206 603 265 m 471 -193 q 419 -297 471 -260 q 265 -333 368 -333 q 196 -326 221 -333 l 196 -250 q 229 -255 208 -253 q 269 -257 250 -257 q 346 -244 319 -257 q 372 -196 372 -231 q 335 -143 372 -160 q 246 -119 299 -126 l 306 0 l 386 0 l 350 -74 q 435 -112 400 -85 q 471 -193 471 -140 z "},"Š":{"ha":763,"x_min":71,"x_max":697,"o":"m 697 265 q 601 60 697 133 q 343 -14 506 -14 q 189 -1 260 -14 q 71 33 118 11 l 71 153 q 195 113 121 131 q 349 94 269 94 q 516 138 460 94 q 572 254 572 181 q 551 336 572 303 q 480 398 531 369 q 339 458 429 426 q 148 571 213 504 q 83 753 83 638 q 124 888 83 832 q 235 975 164 944 q 400 1006 307 1006 q 550 990 482 1006 q 674 950 618 975 l 635 843 q 523 881 583 865 q 397 896 463 896 q 257 856 304 896 q 210 751 210 817 q 231 668 210 701 q 299 608 251 635 q 426 551 346 582 q 574 483 514 519 q 666 394 635 446 q 697 265 697 343 m 332 1089 q 283 1158 314 1121 q 219 1231 253 1194 q 161 1293 186 1267 l 161 1311 l 244 1311 q 319 1254 281 1288 q 393 1183 358 1221 q 469 1254 431 1221 q 544 1311 508 1288 l 631 1311 l 631 1293 q 570 1231 604 1267 q 505 1158 536 1194 q 457 1089 474 1121 l 332 1089 z "},"š":{"ha":665,"x_min":71,"x_max":603,"o":"m 603 206 q 522 42 603 97 q 306 -14 442 -14 q 172 -1 228 -14 q 72 33 115 11 l 72 144 q 180 103 117 122 q 308 85 243 85 q 443 115 401 85 q 485 194 485 144 q 469 244 485 222 q 415 289 454 267 q 301 339 375 311 q 178 394 229 367 q 99 461 126 422 q 71 561 71 500 q 148 707 71 656 q 350 758 225 758 q 477 745 418 758 q 588 708 536 732 l 546 611 q 447 644 499 631 q 342 658 396 658 q 227 634 267 658 q 188 568 188 610 q 206 516 188 538 q 266 474 224 494 q 379 426 308 454 q 500 372 450 400 q 576 305 550 344 q 603 206 603 265 m 269 842 q 221 910 251 874 q 157 983 190 947 q 99 1046 124 1019 l 99 1064 l 182 1064 q 257 1007 218 1040 q 331 936 296 974 q 407 1007 368 974 q 482 1064 446 1040 l 568 1064 l 568 1046 q 508 983 542 1019 q 442 910 474 947 q 394 842 411 874 l 269 842 z "},"Ț":{"ha":772,"x_min":14,"x_max":757,"o":"m 449 0 l 324 0 l 324 882 l 14 882 l 14 992 l 757 992 l 757 882 l 449 882 l 449 0 m 475 -97 q 452 -160 469 -122 q 412 -237 435 -199 q 364 -307 389 -276 l 297 -307 l 297 -290 q 320 -230 308 -267 q 342 -153 332 -193 q 354 -85 351 -114 l 475 -85 l 475 -97 z "},"ț":{"ha":501,"x_min":22,"x_max":471,"o":"m 367 86 q 424 91 394 86 q 471 101 453 96 l 471 8 q 415 -8 451 -1 q 346 -14 379 -14 q 238 6 288 -14 q 158 76 189 26 q 128 217 128 126 l 128 650 l 22 650 l 22 708 l 129 757 l 178 915 l 250 915 l 250 744 l 465 744 l 465 650 l 250 650 l 250 219 q 283 119 250 151 q 367 86 315 86 m 386 -97 q 363 -160 381 -122 q 323 -237 346 -199 q 275 -307 300 -276 l 208 -307 l 208 -290 q 231 -230 219 -267 q 253 -153 243 -193 q 265 -85 263 -114 l 386 -85 l 386 -97 z "},"Ť":{"ha":772,"x_min":14,"x_max":757,"o":"m 449 0 l 324 0 l 324 882 l 14 882 l 14 992 l 757 992 l 757 882 l 449 882 l 449 0 m 322 1089 q 274 1158 304 1121 q 210 1231 243 1194 q 151 1293 176 1267 l 151 1311 l 235 1311 q 310 1254 271 1288 q 383 1183 349 1221 q 460 1254 421 1221 q 535 1311 499 1288 l 621 1311 l 621 1293 q 560 1231 594 1267 q 495 1158 526 1194 q 447 1089 464 1121 l 322 1089 z "},"ť":{"ha":501,"x_min":22,"x_max":653,"o":"m 653 1043 q 631 981 647 1018 q 594 903 615 943 q 553 833 574 864 l 486 833 l 486 850 q 505 913 496 876 q 522 988 514 950 q 532 1056 529 1026 l 653 1056 l 653 1043 m 367 86 q 424 91 394 86 q 471 101 453 96 l 471 8 q 415 -8 451 -1 q 346 -14 379 -14 q 238 6 288 -14 q 158 76 189 26 q 128 217 128 126 l 128 650 l 22 650 l 22 708 l 129 757 l 178 915 l 250 915 l 250 744 l 465 744 l 465 650 l 250 650 l 250 219 q 283 119 250 151 q 367 86 315 86 z "},"Ŧ":{"ha":772,"x_min":14,"x_max":757,"o":"m 322 0 l 322 451 l 115 451 l 115 554 l 322 554 l 322 881 l 14 881 l 14 992 l 757 992 l 757 881 l 447 881 l 447 554 l 653 554 l 653 451 l 447 451 l 447 0 l 322 0 z "},"ŧ":{"ha":501,"x_min":22,"x_max":471,"o":"m 367 86 q 424 91 394 86 q 471 101 453 96 l 471 8 q 415 -8 451 -1 q 346 -14 379 -14 q 238 6 288 -14 q 158 76 189 26 q 128 217 128 126 l 128 389 l 33 389 l 33 481 l 128 481 l 128 650 l 22 650 l 22 708 l 129 757 l 178 915 l 250 915 l 250 744 l 465 744 l 465 650 l 250 650 l 250 481 l 453 481 l 453 389 l 250 389 l 250 219 q 283 119 250 151 q 367 86 315 86 z "},"Ũ":{"ha":1015,"x_min":125,"x_max":889,"o":"m 889 350 q 847 165 889 247 q 720 34 806 82 q 503 -14 635 -14 q 222 87 318 -14 q 125 353 125 188 l 125 992 l 250 992 l 250 349 q 315 161 250 228 q 510 94 379 94 q 705 166 644 94 q 765 350 765 238 l 765 992 l 889 992 l 889 350 m 254 1089 q 302 1219 263 1171 q 407 1267 342 1267 q 485 1247 449 1267 q 556 1207 522 1226 q 618 1188 589 1188 q 667 1208 650 1188 q 694 1268 685 1228 l 764 1268 q 717 1139 756 1188 q 613 1090 678 1090 q 537 1110 574 1090 q 466 1149 500 1129 q 401 1169 432 1169 q 351 1149 368 1169 q 325 1089 335 1129 l 254 1089 z "},"ũ":{"ha":858,"x_min":110,"x_max":740,"o":"m 740 744 l 740 0 l 640 0 l 622 99 l 617 99 q 517 13 581 40 q 381 -14 453 -14 q 178 51 246 -14 q 110 257 110 115 l 110 744 l 233 744 l 233 265 q 399 88 233 88 q 570 157 522 88 q 618 357 618 226 l 618 744 l 740 744 m 175 842 q 223 972 183 924 q 328 1019 263 1019 q 406 999 369 1019 q 476 960 443 979 q 539 940 510 940 q 588 960 571 940 q 615 1021 606 981 l 685 1021 q 638 892 676 940 q 533 843 599 843 q 458 863 494 843 q 387 902 421 882 q 322 922 353 922 q 272 902 289 922 q 246 842 256 882 l 175 842 z "},"Ū":{"ha":1015,"x_min":125,"x_max":889,"o":"m 889 350 q 847 165 889 247 q 720 34 806 82 q 503 -14 635 -14 q 222 87 318 -14 q 125 353 125 188 l 125 992 l 250 992 l 250 349 q 315 161 250 228 q 510 94 379 94 q 705 166 644 94 q 765 350 765 238 l 765 992 l 889 992 l 889 350 m 714 1188 l 714 1089 l 301 1089 l 301 1188 l 714 1188 z "},"ū":{"ha":858,"x_min":110,"x_max":740,"o":"m 740 744 l 740 0 l 640 0 l 622 99 l 617 99 q 517 13 581 40 q 381 -14 453 -14 q 178 51 246 -14 q 110 257 110 115 l 110 744 l 233 744 l 233 265 q 399 88 233 88 q 570 157 522 88 q 618 357 618 226 l 618 744 l 740 744 m 635 940 l 635 842 l 222 842 l 222 940 l 635 940 z "},"Ŭ":{"ha":1015,"x_min":125,"x_max":889,"o":"m 889 350 q 847 165 889 247 q 720 34 806 82 q 503 -14 635 -14 q 222 87 318 -14 q 125 353 125 188 l 125 992 l 250 992 l 250 349 q 315 161 250 228 q 510 94 379 94 q 705 166 644 94 q 765 350 765 238 l 765 992 l 889 992 l 889 350 m 724 1275 q 660 1140 717 1192 q 504 1089 604 1089 q 349 1140 401 1089 q 292 1275 297 1190 l 367 1275 q 408 1203 374 1218 q 507 1188 443 1188 q 601 1204 561 1188 q 647 1275 640 1221 l 724 1275 z "},"ŭ":{"ha":858,"x_min":110,"x_max":740,"o":"m 740 744 l 740 0 l 640 0 l 622 99 l 617 99 q 517 13 581 40 q 381 -14 453 -14 q 178 51 246 -14 q 110 257 110 115 l 110 744 l 233 744 l 233 265 q 399 88 233 88 q 570 157 522 88 q 618 357 618 226 l 618 744 l 740 744 m 644 1028 q 581 893 638 944 q 425 842 525 842 q 270 892 322 842 q 213 1028 218 943 l 288 1028 q 329 956 294 971 q 428 940 364 940 q 522 957 482 940 q 568 1028 561 974 l 644 1028 z "},"Ů":{"ha":1015,"x_min":125,"x_max":889,"o":"m 889 350 q 847 165 889 247 q 720 34 806 82 q 503 -14 635 -14 q 222 87 318 -14 q 125 353 125 188 l 125 992 l 250 992 l 250 349 q 315 161 250 228 q 510 94 379 94 q 705 166 644 94 q 765 350 765 238 l 765 992 l 889 992 l 889 350 m 507 1089 q 397 1128 439 1089 q 356 1236 356 1167 q 397 1344 356 1306 q 507 1382 439 1382 q 617 1344 572 1382 q 661 1238 661 1306 q 617 1128 661 1167 q 507 1089 574 1089 m 507 1158 q 563 1179 542 1158 q 585 1236 585 1200 q 563 1293 585 1272 q 507 1314 540 1314 q 451 1293 474 1314 q 429 1236 429 1272 q 449 1179 429 1200 q 507 1158 469 1158 z "},"ů":{"ha":858,"x_min":110,"x_max":740,"o":"m 740 744 l 740 0 l 640 0 l 622 99 l 617 99 q 517 13 581 40 q 381 -14 453 -14 q 178 51 246 -14 q 110 257 110 115 l 110 744 l 233 744 l 233 265 q 399 88 233 88 q 570 157 522 88 q 618 357 618 226 l 618 744 l 740 744 m 428 842 q 318 881 360 842 q 276 989 276 919 q 318 1097 276 1058 q 428 1135 360 1135 q 538 1097 493 1135 q 582 990 582 1058 q 538 881 582 919 q 428 842 494 842 m 428 911 q 484 932 463 911 q 506 989 506 953 q 483 1046 506 1025 q 428 1067 461 1067 q 372 1046 394 1067 q 350 989 350 1025 q 370 932 350 953 q 428 911 390 911 z "},"Ű":{"ha":1015,"x_min":125,"x_max":889,"o":"m 889 350 q 847 165 889 247 q 720 34 806 82 q 503 -14 635 -14 q 222 87 318 -14 q 125 353 125 188 l 125 992 l 250 992 l 250 349 q 315 161 250 228 q 510 94 379 94 q 705 166 644 94 q 765 350 765 238 l 765 992 l 889 992 l 889 350 m 757 1297 q 711 1233 743 1274 q 642 1153 679 1193 q 572 1089 604 1114 l 503 1089 l 503 1106 q 544 1168 522 1132 q 588 1242 567 1204 q 624 1311 610 1281 l 757 1311 l 757 1297 m 513 1297 q 467 1233 499 1274 q 397 1153 435 1193 q 328 1089 360 1114 l 258 1089 l 258 1106 q 322 1205 288 1146 q 379 1311 357 1264 l 513 1311 l 513 1297 z "},"ű":{"ha":858,"x_min":110,"x_max":740,"o":"m 740 744 l 740 0 l 640 0 l 622 99 l 617 99 q 517 13 581 40 q 381 -14 453 -14 q 178 51 246 -14 q 110 257 110 115 l 110 744 l 233 744 l 233 265 q 399 88 233 88 q 570 157 522 88 q 618 357 618 226 l 618 744 l 740 744 m 678 1050 q 632 986 664 1026 q 563 906 600 946 q 493 842 525 867 l 424 842 l 424 858 q 465 921 443 885 q 509 995 488 957 q 544 1064 531 1033 l 678 1064 l 678 1050 m 433 1050 q 388 986 419 1026 q 318 906 356 946 q 249 842 281 867 l 179 842 l 179 858 q 243 958 208 899 q 300 1064 278 1017 l 433 1064 l 433 1050 z "},"Ų":{"ha":1015,"x_min":125,"x_max":889,"o":"m 647 -149 q 664 -206 647 -189 q 710 -224 681 -224 q 749 -220 733 -224 q 776 -215 765 -217 l 776 -293 q 738 -302 757 -299 q 690 -306 718 -306 q 582 -269 617 -306 q 547 -162 547 -233 q 569 -77 547 -119 q 621 -1 592 -35 q 503 -14 567 -14 q 222 87 318 -14 q 125 353 125 188 l 125 992 l 250 992 l 250 349 q 315 161 250 228 q 510 94 379 94 q 705 166 644 94 q 765 350 765 238 l 765 992 l 889 992 l 889 350 q 858 189 889 263 q 767 65 828 115 q 676 -52 706 -4 q 647 -149 647 -100 z "},"ų":{"ha":858,"x_min":110,"x_max":751,"o":"m 740 744 l 740 0 l 640 0 l 622 99 l 617 99 q 517 13 581 40 q 381 -14 453 -14 q 178 51 246 -14 q 110 257 110 115 l 110 744 l 233 744 l 233 265 q 399 88 233 88 q 570 157 522 88 q 618 357 618 226 l 618 744 l 740 744 m 622 -161 q 685 -224 622 -224 q 724 -220 708 -224 q 751 -215 740 -217 l 751 -293 q 713 -302 732 -299 q 665 -306 693 -306 q 557 -271 592 -306 q 522 -175 522 -236 q 542 -97 522 -135 q 592 -29 563 -60 q 650 21 622 1 l 717 0 q 646 -81 669 -44 q 622 -161 622 -118 z "},"Ŵ":{"ha":1292,"x_min":17,"x_max":1274,"o":"m 1274 992 l 1010 0 l 883 0 l 690 650 q 668 731 679 690 q 650 802 657 771 q 640 846 643 833 q 626 769 639 828 q 593 646 613 710 l 406 0 l 279 0 l 17 992 l 147 992 l 301 386 q 330 263 318 322 q 349 150 342 203 q 369 268 356 204 q 401 393 383 332 l 576 992 l 706 992 l 888 389 q 921 262 907 325 q 942 150 935 199 q 961 262 949 201 q 990 388 974 322 l 1143 992 l 1274 992 m 707 1311 q 755 1242 724 1281 q 820 1167 786 1204 q 881 1104 854 1131 l 881 1089 l 794 1089 q 719 1144 758 1111 q 643 1214 681 1176 q 568 1144 606 1176 q 494 1089 531 1113 l 411 1089 l 411 1104 q 470 1168 438 1132 q 533 1242 503 1204 q 582 1311 564 1281 l 707 1311 z "},"ŵ":{"ha":1092,"x_min":15,"x_max":1076,"o":"m 599 421 q 567 533 581 478 q 547 618 554 588 l 542 618 q 524 533 536 588 q 492 419 511 478 l 358 1 l 219 1 l 15 746 l 142 746 l 244 349 q 274 228 260 289 q 293 126 288 167 l 299 126 q 312 185 304 150 q 329 258 319 219 q 349 326 339 296 l 481 746 l 614 746 l 742 326 q 772 224 757 279 q 792 128 786 168 l 797 128 q 816 224 801 163 q 847 349 831 285 l 951 746 l 1076 746 l 869 1 l 726 1 l 599 421 m 607 1064 q 655 995 624 1033 q 720 920 686 957 q 781 857 754 883 l 781 842 l 694 842 q 619 897 658 864 q 543 967 581 929 q 468 897 506 929 q 394 842 431 865 l 311 842 l 311 857 q 370 921 338 885 q 433 995 403 957 q 482 1064 464 1033 l 607 1064 z "},"Ŷ":{"ha":786,"x_min":0,"x_max":786,"o":"m 393 504 l 651 992 l 786 992 l 456 385 l 456 0 l 331 0 l 331 379 l 0 992 l 136 992 l 393 504 m 454 1311 q 502 1242 471 1281 q 567 1167 533 1204 q 628 1104 601 1131 l 628 1089 l 542 1089 q 467 1144 506 1111 q 390 1214 428 1176 q 315 1144 353 1176 q 242 1089 278 1113 l 158 1089 l 158 1104 q 217 1168 185 1132 q 281 1242 250 1204 q 329 1311 311 1281 l 454 1311 z "},"ŷ":{"ha":708,"x_min":1,"x_max":708,"o":"m 1 744 l 132 744 l 293 321 q 331 215 314 265 q 356 118 347 164 l 361 118 q 388 209 369 153 q 425 322 406 265 l 576 744 l 708 744 l 388 -103 q 287 -271 349 -208 q 117 -333 225 -333 q 58 -330 83 -333 q 15 -322 33 -326 l 15 -225 q 52 -231 31 -228 q 97 -233 74 -233 q 201 -197 161 -233 q 263 -101 240 -161 l 301 -3 l 1 744 m 415 1064 q 463 995 432 1033 q 528 920 494 957 q 589 857 563 883 l 589 842 l 503 842 q 428 897 467 864 q 351 967 389 929 q 276 897 314 929 q 203 842 239 865 l 119 842 l 119 857 q 178 921 146 885 q 242 995 211 957 q 290 1064 272 1033 l 415 1064 z "},"Ÿ":{"ha":786,"x_min":0,"x_max":786,"o":"m 393 504 l 651 992 l 786 992 l 456 385 l 456 0 l 331 0 l 331 379 l 0 992 l 136 992 l 393 504 m 199 1193 q 218 1245 199 1229 q 264 1261 238 1261 q 310 1245 290 1261 q 329 1193 329 1229 q 310 1141 329 1158 q 264 1124 290 1124 q 218 1141 238 1124 q 199 1193 199 1158 m 460 1193 q 478 1245 460 1229 q 524 1261 497 1261 q 569 1245 550 1261 q 589 1193 589 1229 q 569 1141 589 1158 q 524 1124 550 1124 q 478 1141 497 1124 q 460 1193 460 1158 z "},"Ź":{"ha":794,"x_min":53,"x_max":740,"o":"m 740 0 l 53 0 l 53 94 l 575 881 l 69 881 l 69 992 l 726 992 l 726 897 l 204 111 l 740 111 l 740 0 m 608 1297 q 557 1233 592 1272 q 483 1153 522 1193 q 410 1089 443 1114 l 329 1089 l 329 1106 q 374 1168 350 1132 q 422 1242 399 1204 q 461 1311 446 1281 l 608 1311 l 608 1297 z "},"ź":{"ha":653,"x_min":54,"x_max":599,"o":"m 599 0 l 54 0 l 54 81 l 454 650 l 78 650 l 78 744 l 589 744 l 589 653 l 194 94 l 599 94 l 599 0 m 532 1050 q 481 985 515 1025 q 406 906 446 946 q 333 842 367 867 l 253 842 l 253 858 q 298 921 274 885 q 346 995 322 957 q 385 1064 369 1033 l 532 1064 l 532 1050 z "},"Ż":{"ha":794,"x_min":53,"x_max":740,"o":"m 740 0 l 53 0 l 53 94 l 575 881 l 69 881 l 69 992 l 726 992 l 726 897 l 204 111 l 740 111 l 740 0 m 404 1271 q 453 1252 432 1271 q 475 1193 475 1233 q 453 1135 475 1154 q 404 1115 432 1115 q 353 1135 374 1115 q 332 1193 332 1154 q 353 1252 332 1233 q 404 1271 374 1271 z "},"ż":{"ha":653,"x_min":54,"x_max":599,"o":"m 599 0 l 54 0 l 54 81 l 454 650 l 78 650 l 78 744 l 589 744 l 589 653 l 194 94 l 599 94 l 599 0 m 328 1024 q 377 1005 356 1024 q 399 946 399 986 q 377 888 399 907 q 328 868 356 868 q 276 888 297 868 q 256 946 256 907 q 276 1005 256 986 q 328 1024 297 1024 z "},"Ž":{"ha":794,"x_min":53,"x_max":740,"o":"m 740 0 l 53 0 l 53 94 l 575 881 l 69 881 l 69 992 l 726 992 l 726 897 l 204 111 l 740 111 l 740 0 m 339 1089 q 290 1158 321 1121 q 226 1231 260 1194 q 168 1293 193 1267 l 168 1311 l 251 1311 q 326 1254 288 1288 q 400 1183 365 1221 q 476 1254 438 1221 q 551 1311 515 1288 l 638 1311 l 638 1293 q 577 1231 611 1267 q 512 1158 543 1194 q 464 1089 481 1121 l 339 1089 z "},"ž":{"ha":653,"x_min":54,"x_max":599,"o":"m 599 0 l 54 0 l 54 81 l 454 650 l 78 650 l 78 744 l 589 744 l 589 653 l 194 94 l 599 94 l 599 0 m 263 842 q 214 910 244 874 q 150 983 183 947 q 92 1046 117 1019 l 92 1064 l 175 1064 q 250 1007 211 1040 q 324 936 289 974 q 400 1007 361 974 q 475 1064 439 1040 l 561 1064 l 561 1046 q 501 983 535 1019 q 435 910 467 947 q 388 842 404 874 l 263 842 z "},"ſ":{"ha":453,"x_min":118,"x_max":503,"o":"m 363 961 q 273 925 306 961 q 240 801 240 889 l 240 0 l 118 0 l 118 801 q 185 1003 118 944 q 364 1063 253 1063 q 442 1055 407 1063 q 503 1036 476 1047 l 471 940 q 419 954 449 947 q 363 961 390 961 z "},"ƒ":{"ha":575,"x_min":-18,"x_max":635,"o":"m 181 -336 q 37 -287 92 -336 q -18 -157 -18 -239 q -17 -128 -18 -143 q -11 -97 -15 -112 l 93 -119 q 91 -133 92 -125 q 90 -149 90 -140 q 113 -213 90 -192 q 167 -235 136 -235 q 227 -208 206 -235 q 249 -114 249 -182 l 249 650 l 118 650 l 118 707 l 249 749 l 249 792 q 313 999 249 936 q 490 1063 376 1063 q 572 1055 535 1063 q 635 1038 608 1047 l 603 942 q 551 956 581 949 q 492 963 522 963 q 401 922 431 963 q 371 793 371 881 l 371 744 l 558 744 l 558 650 l 371 650 l 371 -110 q 324 -276 371 -215 q 181 -336 278 -336 z "},"Ǻ":{"ha":889,"x_min":0,"x_max":889,"o":"m 376 1164 q 439 1244 406 1197 q 494 1331 472 1292 l 642 1331 l 642 1319 q 596 1268 628 1300 q 526 1204 564 1236 q 458 1151 489 1172 l 376 1151 l 376 1164 m 358 844 q 290 969 290 882 q 333 1078 290 1039 q 442 1117 375 1117 q 552 1078 507 1117 q 597 971 597 1040 q 579 896 597 928 q 531 846 561 864 l 889 0 l 760 0 l 646 267 l 236 267 l 128 0 l 0 0 l 358 844 m 442 892 q 498 912 476 892 q 519 969 519 932 q 498 1027 519 1007 q 442 1047 476 1047 q 386 1027 408 1047 q 364 969 364 1007 q 384 913 364 933 q 442 892 404 892 m 279 378 l 610 378 l 493 665 q 469 729 483 690 q 443 806 454 768 q 418 727 432 768 q 394 663 404 686 l 279 378 z "},"ǻ":{"ha":779,"x_min":64,"x_max":667,"o":"m 619 1322 q 567 1281 606 1307 q 483 1231 528 1256 q 407 1189 439 1206 l 319 1189 l 319 1200 q 382 1263 349 1226 q 438 1331 415 1300 l 619 1331 l 619 1322 m 396 1135 q 506 1097 461 1135 q 550 990 550 1058 q 506 881 550 919 q 396 842 463 842 q 286 881 328 842 q 244 989 244 919 q 286 1097 244 1058 q 396 1135 328 1135 m 396 1067 q 340 1046 363 1067 q 318 989 318 1025 q 338 932 318 953 q 396 911 358 911 q 452 932 431 911 q 474 989 474 953 q 451 1046 474 1025 q 396 1067 429 1067 m 400 757 q 601 697 536 757 q 667 507 667 638 l 667 0 l 578 0 l 554 106 l 549 106 q 447 15 500 44 q 299 -14 393 -14 q 131 40 197 -14 q 64 207 64 93 q 151 378 64 318 q 421 444 239 439 l 547 449 l 547 493 q 507 622 547 586 q 393 658 467 658 q 282 641 335 658 q 183 601 229 624 l 146 693 q 261 738 194 719 q 400 757 328 757 m 436 360 q 244 315 297 354 q 190 206 190 276 q 228 114 190 143 q 326 85 267 85 q 483 137 421 85 q 546 297 546 189 l 546 364 l 436 360 z "},"Ǽ":{"ha":1224,"x_min":-1,"x_max":1140,"o":"m 1140 0 l 624 0 l 624 307 l 276 307 l 128 0 l -1 0 l 469 992 l 1140 992 l 1140 882 l 749 882 l 749 572 l 1114 572 l 1114 464 l 749 464 l 749 110 l 1140 110 l 1140 0 m 325 418 l 624 418 l 624 881 l 543 881 l 325 418 m 890 1297 q 839 1233 874 1272 q 765 1153 804 1193 q 692 1089 725 1114 l 611 1089 l 611 1106 q 656 1168 632 1132 q 704 1242 681 1204 q 743 1311 728 1281 l 890 1311 l 890 1297 z "},"ǽ":{"ha":1200,"x_min":64,"x_max":1129,"o":"m 838 758 q 993 717 928 758 q 1094 600 1058 675 q 1129 425 1129 525 l 1129 350 l 653 350 q 710 153 656 217 q 868 90 765 90 q 990 103 938 90 q 1096 142 1043 117 l 1096 35 q 987 -2 1040 10 q 864 -14 933 -14 q 582 143 668 -14 q 471 28 535 71 q 300 -14 407 -14 q 131 40 199 -14 q 64 207 64 93 q 147 378 64 318 q 403 444 231 439 l 528 449 l 528 496 q 485 622 528 586 q 372 658 443 658 q 263 642 317 658 q 164 601 210 625 l 126 693 q 244 739 175 721 q 382 757 314 757 q 524 728 468 757 q 610 638 581 700 q 704 726 646 694 q 838 758 763 758 m 836 658 q 709 603 756 658 q 656 446 663 549 l 1000 446 q 960 600 1000 542 q 836 658 921 658 m 421 360 q 240 315 290 354 q 190 206 190 276 q 226 114 190 143 q 319 85 261 85 q 466 137 407 85 q 525 297 525 189 l 525 364 l 421 360 m 815 1050 q 764 985 799 1025 q 690 906 729 946 q 617 842 650 867 l 536 842 l 536 858 q 581 921 557 885 q 629 995 606 957 q 668 1064 653 1033 l 815 1064 l 815 1050 z "},"Ǿ":{"ha":1085,"x_min":85,"x_max":1000,"o":"m 1000 497 q 948 228 1000 343 q 794 50 896 114 q 543 -14 693 -14 q 286 51 388 -14 l 219 -43 l 135 13 l 207 115 q 115 281 146 183 q 85 499 85 378 q 135 765 85 651 q 287 943 185 879 q 544 1007 389 1007 q 678 990 617 1007 q 792 944 740 974 l 856 1036 l 940 979 l 869 881 q 1000 497 1000 743 m 217 497 q 233 343 217 413 q 282 222 249 274 l 725 849 q 544 897 653 897 q 297 791 376 897 q 217 497 217 685 m 868 497 q 797 778 868 676 l 353 147 q 437 108 389 122 q 543 94 485 94 q 790 202 713 94 q 868 497 868 310 m 750 1297 q 699 1233 733 1272 q 624 1153 664 1193 q 551 1089 585 1114 l 471 1089 l 471 1106 q 516 1168 492 1132 q 564 1242 540 1204 q 603 1311 588 1281 l 750 1311 l 750 1297 z "},"ǿ":{"ha":840,"x_min":76,"x_max":765,"o":"m 765 374 q 672 88 765 189 q 418 -14 578 -14 q 239 32 317 -14 l 183 -46 l 103 8 l 165 94 q 99 215 122 144 q 76 374 76 285 q 169 658 76 558 q 422 758 263 758 q 604 708 524 758 l 658 786 l 740 733 l 678 646 q 742 528 718 597 q 765 374 765 460 m 203 374 q 210 276 203 321 q 236 196 218 231 l 542 621 q 419 656 492 656 q 254 581 306 656 q 203 374 203 506 m 639 374 q 607 544 639 476 l 301 119 q 421 88 349 88 q 586 165 533 88 q 639 374 639 242 m 626 1050 q 575 985 610 1025 q 501 906 540 946 q 428 842 461 867 l 347 842 l 347 858 q 392 921 368 885 q 440 995 417 957 q 479 1064 464 1033 l 626 1064 l 626 1050 z "},"Ș":{"ha":763,"x_min":71,"x_max":697,"o":"m 697 265 q 601 60 697 133 q 343 -14 506 -14 q 189 -1 260 -14 q 71 33 118 11 l 71 153 q 195 113 121 131 q 349 94 269 94 q 516 138 460 94 q 572 254 572 181 q 551 336 572 303 q 480 398 531 369 q 339 458 429 426 q 148 571 213 504 q 83 753 83 638 q 124 888 83 832 q 235 975 164 944 q 400 1006 307 1006 q 550 990 482 1006 q 674 950 618 975 l 635 843 q 523 881 583 865 q 397 896 463 896 q 257 856 304 896 q 210 751 210 817 q 231 668 210 701 q 299 608 251 635 q 426 551 346 582 q 574 483 514 519 q 666 394 635 446 q 697 265 697 343 m 446 -97 q 423 -160 440 -122 q 383 -237 406 -199 q 335 -307 360 -276 l 268 -307 l 268 -290 q 291 -230 279 -267 q 313 -153 303 -193 q 325 -85 322 -114 l 446 -85 l 446 -97 z "},"ș":{"ha":665,"x_min":71,"x_max":603,"o":"m 603 206 q 522 42 603 97 q 306 -14 442 -14 q 172 -1 228 -14 q 72 33 115 11 l 72 144 q 180 103 117 122 q 308 85 243 85 q 443 115 401 85 q 485 194 485 144 q 469 244 485 222 q 415 289 454 267 q 301 339 375 311 q 178 394 229 367 q 99 461 126 422 q 71 561 71 500 q 148 707 71 656 q 350 758 225 758 q 477 745 418 758 q 588 708 536 732 l 546 611 q 447 644 499 631 q 342 658 396 658 q 227 634 267 658 q 188 568 188 610 q 206 516 188 538 q 266 474 224 494 q 379 426 308 454 q 500 372 450 400 q 576 305 550 344 q 603 206 603 265 m 422 -97 q 399 -160 417 -122 q 359 -237 382 -199 q 311 -307 336 -276 l 244 -307 l 244 -290 q 267 -230 256 -267 q 289 -153 279 -193 q 301 -85 299 -114 l 422 -85 l 422 -97 z "},"ˆ":{"ha":581,"x_min":56,"x_max":525,"o":"m 351 1064 q 399 995 368 1033 q 465 920 431 957 q 525 857 499 883 l 525 842 l 439 842 q 364 897 403 864 q 288 967 325 929 q 213 897 250 929 q 139 842 175 865 l 56 842 l 56 857 q 115 921 82 885 q 178 995 147 957 q 226 1064 208 1033 l 351 1064 z "},"ˇ":{"ha":581,"x_min":56,"x_max":525,"o":"m 226 842 q 178 910 208 874 q 114 983 147 947 q 56 1046 81 1019 l 56 1064 l 139 1064 q 214 1007 175 1040 q 288 936 253 974 q 364 1007 325 974 q 439 1064 403 1040 l 525 1064 l 525 1046 q 465 983 499 1019 q 399 910 431 947 q 351 842 368 874 l 226 842 z "},"ˉ":{"ha":524,"x_min":56,"x_max":468,"o":"m 468 940 l 468 842 l 56 842 l 56 940 l 468 940 z "},"˘":{"ha":543,"x_min":56,"x_max":488,"o":"m 488 1028 q 424 893 481 944 q 268 842 368 842 q 113 892 165 842 q 56 1028 61 943 l 131 1028 q 172 956 138 971 q 271 940 207 940 q 365 957 325 940 q 411 1028 404 974 l 488 1028 z "},"˙":{"ha":254,"x_min":56,"x_max":199,"o":"m 128 1024 q 177 1005 156 1024 q 199 946 199 986 q 177 888 199 907 q 128 868 156 868 q 76 888 97 868 q 56 946 56 907 q 76 1005 56 986 q 128 1024 97 1024 z "},"˚":{"ha":417,"x_min":56,"x_max":361,"o":"m 207 842 q 97 881 139 842 q 56 989 56 919 q 97 1097 56 1058 q 207 1135 139 1135 q 317 1097 272 1135 q 361 990 361 1058 q 317 881 361 919 q 207 842 274 842 m 207 911 q 263 932 242 911 q 285 989 285 953 q 263 1046 285 1025 q 207 1067 240 1067 q 151 1046 174 1067 q 129 989 129 1025 q 149 932 129 953 q 207 911 169 911 z "},"˛":{"ha":340,"x_min":56,"x_max":285,"o":"m 156 -161 q 218 -224 156 -224 q 258 -220 242 -224 q 285 -215 274 -217 l 285 -293 q 246 -302 265 -299 q 199 -306 226 -306 q 90 -271 125 -306 q 56 -175 56 -236 q 76 -97 56 -135 q 126 -29 96 -60 q 183 21 156 1 l 250 0 q 179 -81 203 -44 q 156 -161 156 -118 z "},"˜":{"ha":621,"x_min":56,"x_max":565,"o":"m 56 842 q 103 972 64 924 q 208 1019 143 1019 q 287 999 250 1019 q 357 960 324 979 q 419 940 390 940 q 469 960 451 940 q 496 1021 486 981 l 565 1021 q 518 892 557 940 q 414 843 479 843 q 338 863 375 843 q 267 902 301 882 q 203 922 233 922 q 153 902 169 922 q 126 842 136 882 l 56 842 z "},"˝":{"ha":610,"x_min":56,"x_max":554,"o":"m 554 1050 q 508 986 540 1026 q 439 906 476 946 q 369 842 401 867 l 300 842 l 300 858 q 342 921 319 885 q 385 995 364 957 q 421 1064 407 1033 l 554 1064 l 554 1050 m 310 1050 q 264 986 296 1026 q 194 906 232 946 q 125 842 157 867 l 56 842 l 56 858 q 119 958 85 899 q 176 1064 154 1017 l 310 1064 l 310 1050 z "},"΄":{"ha":325,"x_min":56,"x_max":269,"o":"m 56 842 l 56 858 l 122 1078 l 269 1078 l 269 1064 l 138 842 l 56 842 z "},"΅":{"ha":900,"x_min":207,"x_max":692,"o":"m 364 842 l 364 858 l 417 1078 l 564 1078 l 564 1064 l 446 842 l 364 842 m 272 876 q 226 894 246 876 q 207 946 207 911 q 226 998 207 982 q 272 1014 246 1014 q 318 998 299 1014 q 338 946 338 982 q 318 894 338 911 q 272 876 299 876 m 626 876 q 581 894 600 876 q 563 946 563 911 q 581 998 563 982 q 626 1014 600 1014 q 672 998 653 1014 q 692 946 692 982 q 672 894 692 911 q 626 876 653 876 z "},"Ά":{"ha":983,"x_min":14,"x_max":982,"o":"m 853 0 l 733 307 l 340 307 l 222 0 l 96 0 l 483 996 l 596 996 l 982 0 l 853 0 m 585 718 q 571 758 581 729 q 552 819 561 788 q 538 867 543 850 q 515 783 528 824 q 494 718 503 742 l 382 418 l 696 418 l 585 718 m 14 756 l 14 772 l 81 992 l 228 992 l 228 978 l 96 756 l 14 756 z "},"·":{"ha":372,"x_min":100,"x_max":272,"o":"m 100 671 q 125 743 100 722 q 185 764 150 764 q 247 743 221 764 q 272 671 272 722 q 247 599 272 621 q 185 576 221 576 q 125 599 150 576 q 100 671 100 621 z "},"Έ":{"ha":1000,"x_min":14,"x_max":917,"o":"m 917 0 l 363 0 l 363 992 l 917 992 l 917 882 l 488 882 l 488 572 l 892 572 l 892 464 l 488 464 l 488 110 l 917 110 l 917 0 m 14 756 l 14 772 l 81 992 l 228 992 l 228 978 l 96 756 l 14 756 z "},"Ή":{"ha":1257,"x_min":14,"x_max":1121,"o":"m 1121 0 l 996 0 l 996 463 l 488 463 l 488 0 l 363 0 l 363 992 l 488 992 l 488 572 l 996 572 l 996 992 l 1121 992 l 1121 0 m 14 756 l 14 772 l 81 992 l 228 992 l 228 978 l 96 756 l 14 756 z "},"Ί":{"ha":726,"x_min":14,"x_max":669,"o":"m 669 0 l 311 0 l 311 72 l 428 99 l 428 892 l 311 919 l 311 992 l 669 992 l 669 919 l 553 892 l 553 99 l 669 72 l 669 0 m 14 756 l 14 772 l 81 992 l 228 992 l 228 978 l 96 756 l 14 756 z "},"Ό":{"ha":1243,"x_min":14,"x_max":1158,"o":"m 1158 497 q 1106 228 1158 343 q 953 50 1054 114 q 701 -14 851 -14 q 445 50 547 -14 q 293 229 343 114 q 243 499 243 344 q 293 765 243 651 q 445 943 343 879 q 703 1007 547 1007 q 953 944 851 1007 q 1106 766 1054 881 q 1158 497 1158 651 m 375 497 q 454 202 375 310 q 701 94 533 94 q 949 202 871 94 q 1026 497 1026 310 q 949 791 1026 685 q 703 897 871 897 q 455 791 535 897 q 375 497 375 685 m 14 756 l 14 772 l 81 992 l 228 992 l 228 978 l 96 756 l 14 756 z "},"Ύ":{"ha":1083,"x_min":14,"x_max":1083,"o":"m 690 504 l 949 992 l 1083 992 l 753 385 l 753 0 l 628 0 l 628 379 l 297 992 l 433 992 l 690 504 m 14 756 l 14 772 l 81 992 l 228 992 l 228 978 l 96 756 l 14 756 z "},"Ώ":{"ha":1168,"x_min":14,"x_max":1133,"o":"m 207 0 l 207 110 l 426 110 q 326 208 375 149 q 247 349 278 267 q 215 533 215 431 q 268 776 215 669 q 422 945 321 883 q 669 1007 524 1007 q 918 946 817 1007 q 1072 778 1019 885 q 1125 535 1125 671 q 1094 349 1125 431 q 1016 208 1064 267 q 915 110 968 149 l 1133 110 l 1133 0 l 761 0 l 761 100 q 899 225 847 161 q 972 363 950 289 q 994 529 994 438 q 960 718 994 635 q 853 849 925 801 q 669 897 782 897 q 487 849 558 897 q 381 718 415 801 q 347 529 347 635 q 369 363 347 438 q 442 226 392 289 q 579 100 493 163 l 579 0 l 207 0 m 14 756 l 14 772 l 81 992 l 228 992 l 228 978 l 96 756 l 14 756 z "},"ΐ":{"ha":461,"x_min":-6,"x_max":479,"o":"m 324 -14 q 164 45 214 -14 q 114 208 114 104 l 114 744 l 236 744 l 236 204 q 265 112 236 136 q 339 88 294 88 q 388 92 367 88 q 431 101 410 96 l 431 3 q 386 -9 413 -4 q 324 -14 360 -14 m 151 842 l 151 858 l 204 1078 l 351 1078 l 351 1064 l 233 842 l 151 842 m 60 876 q 14 894 33 876 q -6 946 -6 911 q 14 998 -6 982 q 60 1014 33 1014 q 106 998 86 1014 q 125 946 125 982 q 106 894 125 911 q 60 876 86 876 m 414 876 q 369 894 388 876 q 350 946 350 911 q 369 998 350 982 q 414 1014 388 1014 q 460 998 440 1014 q 479 946 479 982 q 460 894 479 911 q 414 876 440 876 z "},"Α":{"ha":888,"x_min":0,"x_max":886,"o":"m 757 0 l 638 307 l 244 307 l 126 0 l 0 0 l 388 996 l 500 996 l 886 0 l 757 0 m 489 718 q 475 758 485 729 q 456 819 465 788 q 442 867 447 850 q 419 783 432 824 q 399 718 407 742 l 286 418 l 600 418 l 489 718 z "},"Β":{"ha":903,"x_min":135,"x_max":828,"o":"m 418 992 q 699 937 604 992 q 794 746 794 882 q 746 601 794 658 q 606 526 697 543 l 606 519 q 719 483 668 510 q 799 408 769 457 q 828 282 828 360 q 735 74 828 147 q 483 0 643 0 l 135 0 l 135 992 l 418 992 m 443 569 q 618 610 571 569 q 665 732 665 651 q 608 849 665 814 q 424 885 550 885 l 260 885 l 260 569 l 443 569 m 260 465 l 260 106 l 460 106 q 643 157 592 106 q 694 292 694 208 q 641 417 694 369 q 450 465 588 465 l 260 465 z "},"Γ":{"ha":693,"x_min":135,"x_max":661,"o":"m 135 0 l 135 992 l 661 992 l 661 882 l 260 882 l 260 0 l 135 0 z "},"Δ":{"ha":888,"x_min":14,"x_max":872,"o":"m 14 0 l 14 69 l 388 996 l 500 996 l 872 69 l 872 0 l 14 0 m 157 113 l 728 113 l 496 718 q 481 758 492 729 q 459 819 469 788 q 443 867 449 850 q 418 783 433 824 q 394 718 403 742 l 157 113 z "},"Ε":{"ha":772,"x_min":135,"x_max":689,"o":"m 689 0 l 135 0 l 135 992 l 689 992 l 689 882 l 260 882 l 260 572 l 664 572 l 664 464 l 260 464 l 260 110 l 689 110 l 689 0 z "},"Ζ":{"ha":794,"x_min":53,"x_max":740,"o":"m 740 0 l 53 0 l 53 94 l 575 881 l 69 881 l 69 992 l 726 992 l 726 897 l 204 111 l 740 111 l 740 0 z "},"Η":{"ha":1029,"x_min":135,"x_max":893,"o":"m 893 0 l 768 0 l 768 463 l 260 463 l 260 0 l 135 0 l 135 992 l 260 992 l 260 572 l 768 572 l 768 992 l 893 992 l 893 0 z "},"Θ":{"ha":1085,"x_min":85,"x_max":1000,"o":"m 1000 497 q 948 228 1000 343 q 794 50 896 114 q 543 -14 693 -14 q 287 50 389 -14 q 135 229 185 114 q 85 499 85 344 q 135 765 85 651 q 287 943 185 879 q 544 1007 389 1007 q 794 944 693 1007 q 948 766 896 881 q 1000 497 1000 651 m 217 497 q 296 202 217 310 q 543 94 375 94 q 790 202 713 94 q 868 497 868 310 q 790 791 868 685 q 544 897 713 897 q 297 791 376 897 q 217 497 217 685 m 333 450 l 333 558 l 753 558 l 753 450 l 333 450 z "},"Ι":{"ha":471,"x_min":56,"x_max":414,"o":"m 414 0 l 56 0 l 56 72 l 172 99 l 172 892 l 56 919 l 56 992 l 414 992 l 414 919 l 297 892 l 297 99 l 414 72 l 414 0 z "},"Κ":{"ha":860,"x_min":135,"x_max":860,"o":"m 860 0 l 713 0 l 361 474 l 260 385 l 260 0 l 135 0 l 135 992 l 260 992 l 260 503 q 344 597 301 550 q 431 692 388 644 l 699 992 l 844 992 l 451 560 l 860 0 z "},"Λ":{"ha":846,"x_min":0,"x_max":844,"o":"m 0 0 l 367 996 l 479 996 l 844 0 l 715 0 l 468 718 q 454 758 464 729 q 435 819 444 788 q 421 867 426 850 q 399 783 411 824 q 378 718 386 742 l 126 0 l 0 0 z "},"Μ":{"ha":1260,"x_min":135,"x_max":1125,"o":"m 572 0 l 246 869 l 240 869 q 247 753 244 826 q 250 601 250 681 l 250 0 l 135 0 l 135 992 l 319 992 l 625 179 l 631 179 l 942 992 l 1125 992 l 1125 0 l 1001 0 l 1001 610 q 1005 753 1001 682 q 1011 868 1008 824 l 1006 868 l 675 0 l 572 0 z "},"Ν":{"ha":1056,"x_min":135,"x_max":921,"o":"m 921 0 l 775 0 l 244 824 l 239 824 q 246 703 242 775 q 250 554 250 631 l 250 0 l 135 0 l 135 992 l 279 992 l 808 171 l 814 171 q 810 238 813 193 q 806 335 808 282 q 804 432 804 388 l 804 992 l 921 992 l 921 0 z "},"Ξ":{"ha":867,"x_min":83,"x_max":783,"o":"m 111 879 l 111 992 l 756 992 l 756 879 l 111 879 m 167 463 l 167 575 l 700 575 l 700 463 l 167 463 m 83 0 l 83 113 l 783 113 l 783 0 l 83 0 z "},"Ο":{"ha":1085,"x_min":85,"x_max":1000,"o":"m 1000 497 q 948 228 1000 343 q 794 50 896 114 q 543 -14 693 -14 q 287 50 389 -14 q 135 229 185 114 q 85 499 85 344 q 135 765 85 651 q 287 943 185 879 q 544 1007 389 1007 q 794 944 693 1007 q 948 766 896 881 q 1000 497 1000 651 m 217 497 q 296 202 217 310 q 543 94 375 94 q 790 202 713 94 q 868 497 868 310 q 790 791 868 685 q 544 897 713 897 q 297 791 376 897 q 217 497 217 685 z "},"Π":{"ha":1015,"x_min":135,"x_max":879,"o":"m 135 0 l 135 992 l 879 992 l 879 0 l 756 0 l 756 882 l 260 882 l 260 0 l 135 0 z "},"Ρ":{"ha":840,"x_min":135,"x_max":769,"o":"m 397 992 q 681 915 592 992 q 769 700 769 839 q 733 547 769 618 q 609 431 696 475 q 374 386 522 386 l 260 386 l 260 0 l 135 0 l 135 992 l 397 992 m 386 885 l 260 885 l 260 493 l 360 493 q 571 539 501 493 q 640 694 640 585 q 579 838 640 790 q 386 885 518 885 z "},"Σ":{"ha":794,"x_min":53,"x_max":740,"o":"m 53 0 l 53 103 l 381 513 l 67 888 l 67 992 l 724 992 l 724 881 l 367 881 q 292 881 336 881 q 226 882 249 881 l 511 544 l 511 507 l 196 111 q 298 112 249 111 q 403 113 347 113 l 740 113 l 740 0 l 53 0 z "},"Τ":{"ha":772,"x_min":14,"x_max":757,"o":"m 449 0 l 324 0 l 324 882 l 14 882 l 14 992 l 757 992 l 757 882 l 449 882 l 449 0 z "},"Υ":{"ha":786,"x_min":0,"x_max":786,"o":"m 393 504 l 651 992 l 786 992 l 456 385 l 456 0 l 331 0 l 331 379 l 0 992 l 136 992 l 393 504 z "},"Φ":{"ha":1171,"x_min":71,"x_max":1100,"o":"m 524 0 l 524 125 q 298 164 386 128 q 160 258 210 200 q 91 383 111 315 q 71 514 71 450 q 93 656 71 588 q 167 777 115 724 q 306 863 218 831 q 524 897 393 896 l 524 992 l 647 992 l 647 897 q 867 864 779 896 q 1005 779 954 832 q 1078 658 1056 726 q 1100 514 1100 589 q 1079 379 1100 447 q 1008 255 1058 311 q 869 163 957 199 q 647 125 781 128 l 647 0 l 524 0 m 524 228 l 524 792 q 327 752 399 789 q 226 654 256 715 q 197 515 197 593 q 230 369 197 433 q 334 269 263 306 q 524 228 406 232 m 647 228 q 840 270 768 232 q 942 372 911 308 q 974 515 974 436 q 944 656 974 594 q 844 753 915 717 q 647 792 774 789 l 647 228 z "},"Χ":{"ha":814,"x_min":6,"x_max":808,"o":"m 808 0 l 667 0 l 404 431 l 138 0 l 6 0 l 335 517 l 26 992 l 165 992 l 408 603 l 653 992 l 785 992 l 478 519 l 808 0 z "},"Ψ":{"ha":1140,"x_min":125,"x_max":1014,"o":"m 508 0 l 508 260 q 222 372 319 269 q 125 679 125 474 l 125 992 l 253 992 l 253 678 q 285 490 253 558 q 374 394 317 422 q 508 367 432 367 l 508 992 l 631 992 l 631 367 q 765 394 707 367 q 854 490 822 422 q 886 678 886 558 l 886 992 l 1014 992 l 1014 679 q 917 372 1014 474 q 631 260 821 269 l 631 0 l 508 0 z "},"Ω":{"ha":996,"x_min":35,"x_max":961,"o":"m 35 0 l 35 110 l 254 110 q 154 208 203 149 q 74 349 106 267 q 43 533 43 431 q 96 776 43 669 q 250 945 149 883 q 497 1007 351 1007 q 746 946 644 1007 q 900 778 847 885 q 953 535 953 671 q 922 349 953 431 q 844 208 892 267 q 743 110 796 149 l 961 110 l 961 0 l 589 0 l 589 100 q 726 225 675 161 q 800 363 778 289 q 822 529 822 438 q 788 718 822 635 q 681 849 753 801 q 497 897 610 897 q 315 849 386 897 q 209 718 243 801 q 175 529 175 635 q 197 363 175 438 q 270 226 219 289 q 407 100 321 163 l 407 0 l 35 0 z "},"Ϊ":{"ha":471,"x_min":42,"x_max":432,"o":"m 414 0 l 56 0 l 56 72 l 172 99 l 172 892 l 56 919 l 56 992 l 414 992 l 414 919 l 297 892 l 297 99 l 414 72 l 414 0 m 42 1193 q 61 1245 42 1229 q 107 1261 81 1261 q 153 1245 133 1261 q 172 1193 172 1229 q 153 1141 172 1158 q 107 1124 133 1124 q 61 1141 81 1124 q 42 1193 42 1158 m 303 1193 q 322 1245 303 1229 q 367 1261 340 1261 q 413 1245 393 1261 q 432 1193 432 1229 q 413 1141 432 1158 q 367 1124 393 1124 q 322 1141 340 1124 q 303 1193 303 1158 z "},"Ϋ":{"ha":786,"x_min":0,"x_max":786,"o":"m 393 504 l 651 992 l 786 992 l 456 385 l 456 0 l 331 0 l 331 379 l 0 992 l 136 992 l 393 504 m 199 1193 q 218 1245 199 1229 q 264 1261 238 1261 q 310 1245 290 1261 q 329 1193 329 1229 q 310 1141 329 1158 q 264 1124 290 1124 q 218 1141 238 1124 q 199 1193 199 1158 m 460 1193 q 478 1245 460 1229 q 524 1261 497 1261 q 569 1245 550 1261 q 589 1193 589 1229 q 569 1141 589 1158 q 524 1124 550 1124 q 478 1141 497 1124 q 460 1193 460 1158 z "},"ά":{"ha":865,"x_min":76,"x_max":835,"o":"m 379 -14 q 161 83 246 -14 q 76 369 76 179 q 159 658 76 558 q 385 758 242 758 q 521 726 463 758 q 615 643 579 694 l 621 643 l 639 744 l 736 744 l 736 164 q 753 103 736 121 q 793 86 769 86 q 817 89 804 86 q 835 93 829 92 l 835 4 q 803 -8 825 -1 q 757 -14 781 -14 q 672 11 706 -14 q 622 100 638 36 l 613 100 q 520 18 578 50 q 379 -14 463 -14 m 404 88 q 567 153 519 88 q 615 363 615 219 l 615 371 q 569 583 615 510 q 403 657 522 657 q 252 583 301 657 q 203 368 203 508 q 404 88 203 88 m 375 842 l 375 858 l 442 1078 l 589 1078 l 589 1064 l 457 842 l 375 842 z "},"έ":{"ha":653,"x_min":63,"x_max":607,"o":"m 372 -14 q 137 48 211 -14 q 63 203 63 110 q 109 326 63 286 q 219 385 156 367 l 219 392 q 124 452 160 411 q 88 560 88 493 q 160 706 88 654 q 363 758 232 758 q 503 742 440 758 q 607 704 567 726 l 568 603 q 473 642 524 628 q 363 657 422 657 q 244 628 279 657 q 208 551 208 600 q 259 462 208 488 q 376 436 310 436 l 472 436 l 472 342 l 376 342 q 237 308 285 342 q 189 210 189 274 q 237 120 189 150 q 372 90 285 90 q 498 101 444 90 q 594 135 551 113 l 594 26 q 494 -5 551 4 q 372 -14 438 -14 m 333 842 l 333 858 l 400 1078 l 547 1078 l 547 1064 l 415 842 l 333 842 z "},"ή":{"ha":844,"x_min":118,"x_max":732,"o":"m 611 -333 l 611 476 q 451 656 611 656 q 287 586 333 656 q 240 386 240 517 l 240 0 l 118 0 l 118 744 l 217 744 l 235 643 l 242 643 q 338 730 278 701 q 469 758 399 758 q 665 694 597 758 q 732 485 732 629 l 732 -333 l 611 -333 m 313 842 l 313 858 l 379 1078 l 526 1078 l 526 1064 l 394 842 l 313 842 z "},"ί":{"ha":461,"x_min":114,"x_max":431,"o":"m 324 -14 q 164 45 214 -14 q 114 208 114 104 l 114 744 l 236 744 l 236 204 q 265 112 236 136 q 339 88 294 88 q 388 92 367 88 q 431 101 410 96 l 431 3 q 386 -9 413 -4 q 324 -14 360 -14 m 157 842 l 157 858 l 224 1078 l 371 1078 l 371 1064 l 239 842 l 157 842 z "},"ΰ":{"ha":831,"x_min":110,"x_max":735,"o":"m 392 -14 q 242 10 299 -14 q 158 80 186 35 q 119 187 129 125 q 110 324 110 249 l 110 744 l 232 744 l 232 328 q 244 195 232 249 q 294 114 257 142 q 401 86 331 86 q 556 165 501 86 q 611 411 611 244 q 600 585 611 508 q 568 744 589 661 l 690 744 q 724 585 713 663 q 735 406 735 508 q 644 88 735 190 q 392 -14 554 -14 m 357 842 l 357 858 l 410 1078 l 557 1078 l 557 1064 l 439 842 l 357 842 m 265 876 q 219 894 239 876 q 200 946 200 911 q 219 998 200 982 q 265 1014 239 1014 q 311 998 292 1014 q 331 946 331 982 q 311 894 331 911 q 265 876 292 876 m 619 876 q 574 894 593 876 q 556 946 556 911 q 574 998 556 982 q 619 1014 593 1014 q 665 998 646 1014 q 685 946 685 982 q 665 894 685 911 q 619 876 646 876 z "},"α":{"ha":865,"x_min":76,"x_max":835,"o":"m 379 -14 q 161 83 246 -14 q 76 369 76 179 q 159 658 76 558 q 385 758 242 758 q 521 726 463 758 q 615 643 579 694 l 621 643 l 639 744 l 736 744 l 736 164 q 753 103 736 121 q 793 86 769 86 q 817 89 804 86 q 835 93 829 92 l 835 4 q 803 -8 825 -1 q 757 -14 781 -14 q 672 11 706 -14 q 622 100 638 36 l 613 100 q 520 18 578 50 q 379 -14 463 -14 m 404 88 q 567 153 519 88 q 615 363 615 219 l 615 371 q 569 583 615 510 q 403 657 522 657 q 252 583 301 657 q 203 368 203 508 q 404 88 203 88 z "},"β":{"ha":851,"x_min":118,"x_max":775,"o":"m 118 -333 l 118 735 q 160 926 118 854 q 275 1030 203 997 q 436 1063 347 1063 q 654 994 578 1063 q 731 797 731 925 q 673 639 731 697 q 533 564 615 581 l 533 558 q 707 476 639 544 q 775 282 775 408 q 733 121 775 188 q 617 20 690 54 q 453 -14 544 -14 q 331 -1 378 -14 q 240 33 285 11 l 240 -333 l 118 -333 m 442 86 q 596 140 539 86 q 653 290 653 193 q 624 412 653 364 q 549 484 596 460 q 450 508 503 508 l 335 508 l 335 603 l 436 603 q 560 655 515 603 q 606 792 606 707 q 555 919 606 878 q 433 961 504 961 q 340 942 385 961 q 268 874 296 924 q 240 729 240 824 l 240 143 q 333 102 289 118 q 442 86 378 86 z "},"γ":{"ha":717,"x_min":0,"x_max":675,"o":"m 268 -292 l 268 -10 l 0 744 l 126 744 l 261 343 q 289 264 272 310 q 320 174 306 218 q 342 103 335 131 l 347 103 q 510 388 465 233 q 554 744 554 543 l 675 744 q 650 476 675 601 q 563 233 625 350 q 390 -6 501 115 l 390 -292 l 268 -292 z "},"δ":{"ha":817,"x_min":63,"x_max":742,"o":"m 404 -14 q 228 26 306 -14 q 106 140 150 67 q 63 313 63 214 q 128 528 63 446 q 314 657 194 610 q 251 703 282 678 q 201 765 221 728 q 182 854 182 801 q 210 952 182 904 q 297 1031 238 1000 q 451 1063 357 1063 q 572 1047 521 1063 q 659 1012 624 1032 q 711 976 694 992 l 658 881 q 563 938 615 914 q 450 963 511 963 q 359 946 392 963 q 314 905 326 929 q 301 858 301 881 q 313 811 301 835 q 358 760 324 788 q 460 697 392 733 q 643 569 583 632 q 722 445 703 506 q 742 326 742 385 q 694 133 742 208 q 570 22 647 58 q 404 -14 493 -14 m 407 86 q 566 153 510 86 q 622 324 622 221 q 567 494 622 426 q 417 607 511 563 q 249 505 311 571 q 188 324 188 439 q 247 151 188 217 q 407 86 307 86 z "},"ε":{"ha":653,"x_min":63,"x_max":607,"o":"m 372 -14 q 137 48 211 -14 q 63 203 63 110 q 109 326 63 286 q 219 385 156 367 l 219 392 q 124 452 160 411 q 88 560 88 493 q 160 706 88 654 q 363 758 232 758 q 503 742 440 758 q 607 704 567 726 l 568 603 q 473 642 524 628 q 363 657 422 657 q 244 628 279 657 q 208 551 208 600 q 259 462 208 488 q 376 436 310 436 l 472 436 l 472 342 l 376 342 q 237 308 285 342 q 189 210 189 274 q 237 120 189 150 q 372 90 285 90 q 498 101 444 90 q 594 135 551 113 l 594 26 q 494 -5 551 4 q 372 -14 438 -14 z "},"ζ":{"ha":639,"x_min":76,"x_max":635,"o":"m 450 -281 q 491 -190 474 -236 q 508 -114 508 -144 q 501 -70 508 -87 q 467 -40 493 -53 q 389 -15 442 -26 q 201 49 269 11 q 105 141 133 88 q 76 265 76 194 q 110 422 76 344 q 206 585 144 500 q 344 772 267 671 l 496 968 q 458 967 490 968 q 378 964 425 965 q 285 963 332 963 l 118 963 l 118 1056 l 635 1056 l 635 982 l 426 706 q 297 524 346 597 q 225 394 247 450 q 203 282 203 338 q 219 200 203 235 q 285 139 236 165 q 435 89 335 113 q 587 28 543 64 q 631 -79 631 -7 q 613 -188 631 -140 q 571 -281 594 -236 l 450 -281 z "},"η":{"ha":844,"x_min":118,"x_max":732,"o":"m 611 -333 l 611 476 q 451 656 611 656 q 287 586 333 656 q 240 386 240 517 l 240 0 l 118 0 l 118 744 l 217 744 l 235 643 l 242 643 q 338 730 278 701 q 469 758 399 758 q 665 694 597 758 q 732 485 732 629 l 732 -333 l 611 -333 z "},"θ":{"ha":825,"x_min":76,"x_max":750,"o":"m 411 -14 q 158 129 239 -14 q 76 524 76 272 q 110 814 76 693 q 217 999 143 935 q 411 1063 292 1063 q 667 922 585 1063 q 750 524 750 781 q 716 235 750 356 q 608 51 682 115 q 411 -14 533 -14 m 200 586 l 625 586 q 568 867 618 775 q 411 960 518 960 q 256 867 306 960 q 200 586 207 775 m 411 88 q 571 183 519 88 q 626 492 622 278 l 200 492 q 252 183 203 279 q 411 88 301 88 z "},"ι":{"ha":461,"x_min":114,"x_max":431,"o":"m 324 -14 q 164 45 214 -14 q 114 208 114 104 l 114 744 l 236 744 l 236 204 q 265 112 236 136 q 339 88 294 88 q 388 92 367 88 q 431 101 410 96 l 431 3 q 386 -9 413 -4 q 324 -14 360 -14 z "},"κ":{"ha":742,"x_min":118,"x_max":729,"o":"m 707 744 l 425 415 l 729 0 l 583 0 l 339 336 l 247 261 l 247 0 l 118 0 l 118 744 l 247 744 l 247 551 q 244 443 247 496 q 239 363 242 390 l 242 363 q 269 399 254 381 q 296 433 283 418 l 560 744 l 707 744 z "},"λ":{"ha":721,"x_min":0,"x_max":721,"o":"m 642 -14 q 576 4 601 -14 q 532 74 550 22 l 422 383 q 395 463 411 417 q 365 553 379 508 q 344 626 351 597 l 339 626 q 309 511 329 576 q 271 390 289 446 l 143 0 l 13 0 l 285 747 l 249 840 q 185 932 226 901 q 78 963 144 963 q 34 960 53 963 q 0 954 15 957 l 0 1051 q 42 1060 19 1057 q 93 1063 65 1063 q 265 1009 200 1063 q 375 836 331 956 l 639 135 q 659 96 650 106 q 683 86 668 86 q 704 89 694 86 q 721 93 714 92 l 721 3 q 685 -9 706 -4 q 642 -14 665 -14 z "},"μ":{"ha":869,"x_min":118,"x_max":839,"o":"m 118 -333 l 118 744 l 240 744 l 240 264 q 410 88 240 88 q 571 157 524 88 q 618 357 618 226 l 618 744 l 740 744 l 740 164 q 757 103 740 121 q 797 86 774 86 q 821 89 808 86 q 839 93 833 92 l 839 4 q 807 -8 829 -1 q 761 -14 785 -14 q 676 11 710 -14 q 626 100 642 36 l 617 100 q 531 15 582 44 q 401 -14 479 -14 q 307 3 347 -14 q 239 49 267 21 l 233 49 q 238 -18 236 24 q 240 -117 240 -60 l 240 -333 l 118 -333 z "},"ν":{"ha":717,"x_min":0,"x_max":675,"o":"m 264 0 l 0 744 l 126 744 l 261 343 q 289 264 272 310 q 320 174 306 218 q 342 103 335 131 l 347 103 q 510 388 465 233 q 554 744 554 543 l 675 744 q 650 473 675 599 q 565 231 625 347 q 396 0 504 115 l 264 0 z "},"ξ":{"ha":681,"x_min":76,"x_max":635,"o":"m 450 -281 q 490 -192 472 -236 q 508 -110 508 -149 q 501 -72 508 -89 q 470 -41 494 -56 q 390 -15 446 -26 q 219 42 289 7 q 113 133 149 76 q 76 275 76 189 q 137 456 76 388 q 285 549 197 525 l 285 557 q 124 753 124 597 q 152 860 124 818 q 227 929 181 903 q 329 971 274 956 q 256 965 303 968 q 161 963 208 963 l 118 963 l 118 1056 l 635 1056 l 635 969 l 599 969 q 422 951 503 969 q 291 888 340 932 q 242 763 242 843 q 293 647 242 692 q 468 601 344 601 l 618 601 l 618 508 l 464 508 q 309 478 367 508 q 226 400 251 449 q 201 292 201 351 q 226 189 201 226 q 307 129 251 151 q 453 85 363 107 q 565 44 526 68 q 617 -10 603 21 q 631 -78 631 -40 q 613 -185 631 -139 q 571 -281 596 -232 l 450 -281 z "},"ο":{"ha":840,"x_min":76,"x_max":765,"o":"m 765 374 q 672 88 765 189 q 418 -14 578 -14 q 242 31 319 -14 q 121 163 165 76 q 76 374 76 250 q 169 658 76 558 q 422 758 263 758 q 601 713 524 758 q 722 583 678 668 q 765 374 765 497 m 203 374 q 255 165 203 242 q 421 88 307 88 q 586 165 533 88 q 639 374 639 242 q 586 581 639 506 q 419 656 533 656 q 254 581 306 656 q 203 374 203 506 z "},"π":{"ha":907,"x_min":22,"x_max":876,"o":"m 764 -14 q 610 164 610 -14 l 610 650 l 294 650 l 294 0 l 174 0 l 174 650 l 22 650 l 22 744 l 876 744 l 876 650 l 731 650 l 731 172 q 749 105 731 124 q 794 86 767 86 q 830 90 814 86 q 856 100 846 94 l 856 4 q 820 -8 844 -1 q 764 -14 796 -14 z "},"ρ":{"ha":833,"x_min":97,"x_max":757,"o":"m 97 -333 l 97 382 q 185 665 97 572 q 414 758 274 758 q 667 656 576 758 q 757 365 757 553 q 714 162 757 247 q 595 31 671 76 q 422 -14 519 -14 q 314 2 367 -14 q 221 49 261 18 l 214 49 q 218 -24 217 26 q 219 -136 219 -74 l 219 -333 l 97 -333 m 421 88 q 576 159 521 88 q 631 365 631 231 q 574 585 631 514 q 411 656 518 656 q 221 381 221 656 l 221 156 q 313 104 261 121 q 421 88 365 88 z "},"σ":{"ha":853,"x_min":76,"x_max":808,"o":"m 411 -14 q 168 81 260 -14 q 76 356 76 175 q 125 581 76 496 q 263 706 174 667 q 472 744 351 744 l 808 744 l 808 650 l 639 650 q 721 527 692 599 q 750 356 750 456 q 712 172 750 256 q 599 37 674 88 q 411 -14 524 -14 m 414 88 q 536 124 489 88 q 606 220 583 160 q 628 353 628 281 q 521 650 628 531 l 472 650 q 268 581 336 650 q 200 356 200 513 q 250 163 200 238 q 414 88 300 88 z "},"τ":{"ha":681,"x_min":22,"x_max":636,"o":"m 461 -15 q 343 3 397 -15 q 256 72 289 22 q 222 215 222 122 l 222 650 l 22 650 l 22 744 l 636 744 l 636 650 l 346 650 l 346 228 q 383 115 346 147 q 479 83 419 83 q 542 88 510 83 q 597 99 575 93 l 597 7 q 540 -8 578 -1 q 461 -15 501 -15 z "},"υ":{"ha":831,"x_min":110,"x_max":735,"o":"m 392 -14 q 242 10 299 -14 q 158 80 186 35 q 119 187 129 125 q 110 324 110 249 l 110 744 l 232 744 l 232 328 q 244 195 232 249 q 294 114 257 142 q 401 86 331 86 q 556 165 501 86 q 611 411 611 244 q 600 585 611 508 q 568 744 589 661 l 690 744 q 724 585 713 663 q 735 406 735 508 q 644 88 735 190 q 392 -14 554 -14 z "},"φ":{"ha":1007,"x_min":76,"x_max":932,"o":"m 444 -333 l 444 -11 q 251 47 335 -1 q 122 177 168 94 q 76 372 76 260 q 172 642 76 542 q 444 756 268 742 l 444 1056 l 564 1056 l 564 756 q 758 697 675 746 q 886 567 840 649 q 932 372 932 485 q 834 104 932 204 q 564 -11 736 4 l 564 -333 l 444 -333 m 444 86 l 444 657 q 260 572 317 644 q 204 372 204 500 q 261 172 204 244 q 444 86 318 99 m 564 86 q 747 173 689 100 q 806 372 806 246 q 564 656 806 629 l 564 86 z "},"χ":{"ha":825,"x_min":25,"x_max":814,"o":"m 25 -333 l 354 185 l 189 532 q 142 618 163 586 q 86 650 122 650 q 40 642 60 650 l 40 738 q 69 745 56 742 q 113 749 83 749 q 181 736 154 749 q 231 694 208 724 q 279 610 254 664 l 433 290 l 683 744 l 814 744 l 485 182 l 624 -106 q 677 -201 654 -168 q 751 -233 700 -233 q 785 -231 769 -233 q 814 -228 801 -229 l 814 -322 q 778 -330 799 -326 q 728 -333 757 -333 q 639 -317 674 -333 q 578 -267 604 -301 q 526 -176 553 -232 l 406 76 l 156 -333 l 25 -333 z "},"ψ":{"ha":1040,"x_min":110,"x_max":944,"o":"m 458 -333 l 458 -12 q 274 27 353 -8 q 153 143 196 63 q 110 361 110 224 l 110 744 l 231 744 l 231 357 q 260 196 231 253 q 342 117 290 139 q 458 89 394 94 l 458 1056 l 578 1056 l 578 90 q 760 172 696 101 q 825 389 825 242 q 814 566 825 485 q 781 744 803 647 l 901 744 q 934 568 924 651 q 944 393 944 485 q 897 163 944 250 q 766 35 849 76 q 578 -12 683 -6 l 578 -333 l 458 -333 z "},"ω":{"ha":1110,"x_min":90,"x_max":1021,"o":"m 356 -14 q 210 33 269 -14 q 121 165 151 81 q 90 361 90 250 q 126 589 90 493 q 214 744 163 685 l 339 744 q 250 590 288 685 q 213 360 213 496 q 254 156 213 225 q 364 88 296 88 q 465 139 433 88 q 497 268 497 190 l 497 492 l 614 492 l 614 268 q 649 135 614 182 q 746 88 683 88 q 857 156 815 88 q 899 360 899 225 q 865 584 899 492 q 772 744 831 676 l 897 744 q 987 585 953 681 q 1021 361 1021 490 q 990 165 1021 250 q 901 33 960 81 q 756 -14 842 -14 q 631 22 679 -14 q 558 139 582 57 l 551 139 q 481 22 529 57 q 356 -14 433 -14 z "},"ϊ":{"ha":461,"x_min":-8,"x_max":431,"o":"m 324 -14 q 164 45 214 -14 q 114 208 114 104 l 114 744 l 236 744 l 236 204 q 265 112 236 136 q 339 88 294 88 q 388 92 367 88 q 431 101 410 96 l 431 3 q 386 -9 413 -4 q 324 -14 360 -14 m -8 946 q 11 998 -8 982 q 57 1014 31 1014 q 103 998 83 1014 q 122 946 122 982 q 103 894 122 911 q 57 876 83 876 q 11 894 31 876 q -8 946 -8 911 m 253 946 q 272 998 253 982 q 317 1014 290 1014 q 363 998 343 1014 q 382 946 382 982 q 363 894 382 911 q 317 876 343 876 q 272 894 290 876 q 253 946 253 911 z "},"ϋ":{"ha":831,"x_min":110,"x_max":735,"o":"m 392 -14 q 242 10 299 -14 q 158 80 186 35 q 119 187 129 125 q 110 324 110 249 l 110 744 l 232 744 l 232 328 q 244 195 232 249 q 294 114 257 142 q 401 86 331 86 q 556 165 501 86 q 611 411 611 244 q 600 585 611 508 q 568 744 589 661 l 690 744 q 724 585 713 663 q 735 406 735 508 q 644 88 735 190 q 392 -14 554 -14 m 197 946 q 217 998 197 982 q 263 1014 236 1014 q 308 998 289 1014 q 328 946 328 982 q 308 894 328 911 q 263 876 289 876 q 217 894 236 876 q 197 946 197 911 m 458 946 q 477 998 458 982 q 522 1014 496 1014 q 568 998 549 1014 q 588 946 588 982 q 568 894 588 911 q 522 876 549 876 q 477 894 496 876 q 458 946 458 911 z "},"ό":{"ha":840,"x_min":76,"x_max":765,"o":"m 765 374 q 672 88 765 189 q 418 -14 578 -14 q 242 31 319 -14 q 121 163 165 76 q 76 374 76 250 q 169 658 76 558 q 422 758 263 758 q 601 713 524 758 q 722 583 678 668 q 765 374 765 497 m 203 374 q 255 165 203 242 q 421 88 307 88 q 586 165 533 88 q 639 374 639 242 q 586 581 639 506 q 419 656 533 656 q 254 581 306 656 q 203 374 203 506 m 392 842 l 392 858 l 458 1078 l 606 1078 l 606 1064 l 474 842 l 392 842 z "},"ύ":{"ha":831,"x_min":110,"x_max":735,"o":"m 392 -14 q 242 10 299 -14 q 158 80 186 35 q 119 187 129 125 q 110 324 110 249 l 110 744 l 232 744 l 232 328 q 244 195 232 249 q 294 114 257 142 q 401 86 331 86 q 556 165 501 86 q 611 411 611 244 q 600 585 611 508 q 568 744 589 661 l 690 744 q 724 585 713 663 q 735 406 735 508 q 644 88 735 190 q 392 -14 554 -14 m 363 842 l 363 858 l 429 1078 l 576 1078 l 576 1064 l 444 842 l 363 842 z "},"ώ":{"ha":1110,"x_min":90,"x_max":1021,"o":"m 356 -14 q 210 33 269 -14 q 121 165 151 81 q 90 361 90 250 q 126 589 90 493 q 214 744 163 685 l 339 744 q 250 590 288 685 q 213 360 213 496 q 254 156 213 225 q 364 88 296 88 q 465 139 433 88 q 497 268 497 190 l 497 492 l 614 492 l 614 268 q 649 135 614 182 q 746 88 683 88 q 857 156 815 88 q 899 360 899 225 q 865 584 899 492 q 772 744 831 676 l 897 744 q 987 585 953 681 q 1021 361 1021 490 q 990 165 1021 250 q 901 33 960 81 q 756 -14 842 -14 q 631 22 679 -14 q 558 139 582 57 l 551 139 q 481 22 529 57 q 356 -14 433 -14 m 526 842 l 526 858 l 593 1078 l 740 1078 l 740 1064 l 608 842 l 526 842 z "},"Ё":{"ha":772,"x_min":135,"x_max":689,"o":"m 689 0 l 135 0 l 135 992 l 689 992 l 689 882 l 260 882 l 260 572 l 664 572 l 664 464 l 260 464 l 260 110 l 689 110 l 689 0 m 228 1193 q 247 1245 228 1229 q 293 1261 267 1261 q 339 1245 319 1261 q 358 1193 358 1229 q 339 1141 358 1158 q 293 1124 319 1124 q 247 1141 267 1124 q 228 1193 228 1158 m 489 1193 q 508 1245 489 1229 q 553 1261 526 1261 q 599 1245 579 1261 q 618 1193 618 1229 q 599 1141 618 1158 q 553 1124 579 1124 q 508 1141 526 1124 q 489 1193 489 1158 z "},"Ђ":{"ha":1029,"x_min":14,"x_max":925,"o":"m 672 -14 q 567 3 604 -14 l 567 111 q 667 97 607 97 q 728 109 697 97 q 781 154 760 121 q 801 251 801 188 l 801 340 q 761 460 801 421 q 624 499 721 499 l 368 499 l 368 0 l 244 0 l 244 882 l 14 882 l 14 992 l 669 992 l 669 882 l 368 882 l 368 608 l 633 608 q 849 544 774 608 q 925 357 925 479 l 925 260 q 854 53 925 121 q 672 -14 783 -14 z "},"Ѓ":{"ha":728,"x_min":135,"x_max":694,"o":"m 694 992 l 694 881 l 260 881 l 260 0 l 135 0 l 135 992 l 694 992 m 619 1297 q 568 1233 603 1272 q 494 1153 533 1193 q 421 1089 454 1114 l 340 1089 l 340 1106 q 385 1168 361 1132 q 433 1242 410 1204 q 472 1311 457 1281 l 619 1311 l 619 1297 z "},"Є":{"ha":893,"x_min":85,"x_max":853,"o":"m 565 896 q 328 814 418 896 q 219 571 238 732 l 703 571 l 703 463 l 217 463 q 310 191 224 286 q 565 96 397 96 q 694 107 633 96 q 814 135 756 118 l 814 26 q 549 -14 706 -14 q 285 50 388 -14 q 133 228 182 114 q 85 497 85 343 q 140 765 85 650 q 303 943 196 879 q 568 1007 411 1007 q 727 990 658 1007 q 853 946 796 974 l 801 839 q 694 879 753 863 q 565 896 636 896 z "},"Ѕ":{"ha":763,"x_min":71,"x_max":697,"o":"m 697 265 q 601 60 697 133 q 343 -14 506 -14 q 189 -1 260 -14 q 71 33 118 11 l 71 153 q 195 113 121 131 q 349 94 269 94 q 516 138 460 94 q 572 254 572 181 q 551 336 572 303 q 480 398 531 369 q 339 458 429 426 q 148 571 213 504 q 83 753 83 638 q 124 888 83 832 q 235 975 164 944 q 400 1006 307 1006 q 550 990 482 1006 q 674 950 618 975 l 635 843 q 523 881 583 865 q 397 896 463 896 q 257 856 304 896 q 210 751 210 817 q 231 668 210 701 q 299 608 251 635 q 426 551 346 582 q 574 483 514 519 q 666 394 635 446 q 697 265 697 343 z "},"І":{"ha":471,"x_min":56,"x_max":414,"o":"m 414 0 l 56 0 l 56 72 l 172 99 l 172 892 l 56 919 l 56 992 l 414 992 l 414 919 l 297 892 l 297 99 l 414 72 l 414 0 z "},"Ї":{"ha":471,"x_min":42,"x_max":432,"o":"m 414 0 l 56 0 l 56 72 l 172 99 l 172 892 l 56 919 l 56 992 l 414 992 l 414 919 l 297 892 l 297 99 l 414 72 l 414 0 m 42 1193 q 61 1245 42 1229 q 107 1261 81 1261 q 153 1245 133 1261 q 172 1193 172 1229 q 153 1141 172 1158 q 107 1124 133 1124 q 61 1141 81 1124 q 42 1193 42 1158 m 303 1193 q 322 1245 303 1229 q 367 1261 340 1261 q 413 1245 393 1261 q 432 1193 432 1229 q 413 1141 432 1158 q 367 1124 393 1124 q 322 1141 340 1124 q 303 1193 303 1158 z "},"Ј":{"ha":379,"x_min":-108,"x_max":253,"o":"m -6 -264 q -64 -259 -39 -264 q -108 -246 -89 -254 l -108 -140 q -61 -150 -86 -146 q -8 -154 -36 -154 q 58 -140 26 -154 q 108 -92 89 -126 q 128 6 128 -57 l 128 992 l 253 992 l 253 15 q 182 -196 253 -128 q -6 -264 111 -264 z "},"Љ":{"ha":1300,"x_min":1,"x_max":1247,"o":"m 92 -15 q 44 -10 68 -15 q 1 1 21 -6 l 1 106 q 36 94 17 99 q 78 89 56 89 q 143 122 119 89 q 181 205 167 154 q 206 310 194 256 q 233 467 217 365 q 268 703 249 568 q 307 992 288 838 l 779 992 l 779 572 l 861 572 q 1092 535 1007 572 q 1212 433 1176 497 q 1247 290 1247 369 q 1160 80 1247 160 q 882 0 1072 0 l 654 0 l 654 882 l 413 882 q 383 666 399 779 q 351 450 367 553 q 321 275 336 347 q 276 117 303 182 q 206 18 250 51 q 92 -15 163 -15 m 867 107 q 1057 152 996 107 q 1118 290 1118 197 q 1051 425 1118 386 q 846 464 985 464 l 779 464 l 779 107 l 867 107 z "},"Њ":{"ha":1331,"x_min":135,"x_max":1278,"o":"m 135 0 l 135 992 l 260 992 l 260 572 l 685 572 l 685 992 l 811 992 l 811 572 l 892 572 q 1122 535 1038 572 q 1242 433 1207 497 q 1278 290 1278 369 q 1190 80 1278 160 q 914 0 1103 0 l 685 0 l 685 463 l 260 463 l 260 0 l 135 0 m 899 107 q 1088 152 1026 107 q 1149 290 1149 197 q 1082 425 1149 386 q 878 464 1015 464 l 811 464 l 811 107 l 899 107 z "},"Ћ":{"ha":1029,"x_min":14,"x_max":925,"o":"m 708 992 l 708 881 l 368 881 l 368 607 l 638 607 q 851 543 776 607 q 925 356 925 479 l 925 0 l 800 0 l 800 340 q 762 459 800 421 q 629 497 724 497 l 368 497 l 368 0 l 243 0 l 243 881 l 14 881 l 14 992 l 708 992 z "},"Ќ":{"ha":858,"x_min":135,"x_max":858,"o":"m 858 0 l 708 0 l 260 503 l 260 0 l 135 0 l 135 992 l 260 992 l 260 511 l 697 992 l 839 992 l 408 510 l 858 0 m 663 1297 q 611 1233 646 1272 q 537 1153 576 1193 q 464 1089 497 1114 l 383 1089 l 383 1106 q 428 1168 404 1132 q 476 1242 453 1204 q 515 1311 500 1281 l 663 1311 l 663 1297 z "},"Ў":{"ha":867,"x_min":15,"x_max":867,"o":"m 701 1300 q 631 1142 692 1196 q 439 1089 571 1089 q 247 1142 303 1089 q 183 1300 190 1194 l 297 1300 q 337 1199 304 1225 q 442 1174 369 1174 q 542 1201 506 1174 q 586 1300 579 1228 l 701 1300 m 550 282 q 460 117 506 183 q 354 19 415 51 q 199 -14 293 -14 q 126 -8 160 -14 q 64 7 92 -3 l 64 131 q 124 110 92 118 q 190 103 156 103 q 313 136 268 103 q 397 254 358 169 l 15 992 l 153 992 l 429 446 q 446 410 436 432 q 463 369 456 389 l 468 369 q 482 406 474 385 q 496 442 490 428 l 735 992 l 867 992 l 550 282 z "},"Џ":{"ha":1015,"x_min":135,"x_max":879,"o":"m 879 0 l 567 0 l 567 -261 l 439 -261 l 439 0 l 135 0 l 135 992 l 260 992 l 260 111 l 756 111 l 756 992 l 879 992 l 879 0 z "},"А":{"ha":888,"x_min":0,"x_max":886,"o":"m 757 0 l 638 307 l 244 307 l 126 0 l 0 0 l 388 996 l 500 996 l 886 0 l 757 0 m 489 718 q 475 758 485 729 q 456 819 465 788 q 442 867 447 850 q 419 783 432 824 q 399 718 407 742 l 286 418 l 600 418 l 489 718 z "},"Б":{"ha":854,"x_min":135,"x_max":783,"o":"m 135 0 l 135 992 l 724 992 l 724 882 l 260 882 l 260 572 l 407 572 q 638 535 556 572 q 751 435 719 499 q 783 290 783 372 q 701 77 783 154 q 425 0 619 0 l 135 0 m 413 107 q 600 152 546 107 q 654 290 654 197 q 594 425 654 386 q 392 464 535 464 l 260 464 l 260 107 l 413 107 z "},"В":{"ha":903,"x_min":135,"x_max":828,"o":"m 418 992 q 699 937 604 992 q 794 746 794 882 q 746 601 794 658 q 606 526 697 543 l 606 519 q 719 483 668 510 q 799 408 769 457 q 828 282 828 360 q 735 74 828 147 q 483 0 643 0 l 135 0 l 135 992 l 418 992 m 443 569 q 618 610 571 569 q 665 732 665 651 q 608 849 665 814 q 424 885 550 885 l 260 885 l 260 569 l 443 569 m 260 465 l 260 106 l 460 106 q 643 157 592 106 q 694 292 694 208 q 641 417 694 369 q 450 465 588 465 l 260 465 z "},"Г":{"ha":728,"x_min":135,"x_max":694,"o":"m 694 992 l 694 881 l 260 881 l 260 0 l 135 0 l 135 992 l 694 992 z "},"Д":{"ha":960,"x_min":8,"x_max":929,"o":"m 803 992 l 803 111 l 929 111 l 929 -261 l 810 -261 l 810 0 l 128 0 l 128 -261 l 8 -261 l 8 111 l 85 111 q 180 304 135 197 q 260 528 225 411 q 317 764 294 646 q 344 992 339 882 l 803 992 m 454 879 q 427 697 449 799 q 373 490 406 596 q 301 285 340 383 q 217 111 261 186 l 679 111 l 679 879 l 454 879 z "},"Е":{"ha":772,"x_min":135,"x_max":689,"o":"m 689 0 l 135 0 l 135 992 l 689 992 l 689 882 l 260 882 l 260 572 l 664 572 l 664 464 l 260 464 l 260 110 l 689 110 l 689 0 z "},"Ж":{"ha":1186,"x_min":1,"x_max":1183,"o":"m 400 510 l 15 992 l 154 992 l 533 511 l 533 992 l 653 992 l 653 511 l 1032 992 l 1171 992 l 786 511 l 1183 0 l 1040 0 l 653 503 l 653 0 l 533 0 l 533 503 l 144 0 l 1 0 l 400 510 z "},"З":{"ha":817,"x_min":53,"x_max":742,"o":"m 721 760 q 657 599 721 658 q 486 524 593 540 l 486 518 q 676 440 611 501 q 742 281 742 379 q 642 68 742 150 q 342 -14 542 -14 q 188 -2 261 -14 q 53 40 115 10 l 53 154 q 195 106 118 124 q 340 89 272 89 q 542 139 474 89 q 611 281 611 189 q 531 418 611 375 q 306 461 450 461 l 164 461 l 164 565 l 299 565 q 519 615 446 565 q 592 747 592 664 q 536 863 592 822 q 392 903 481 903 q 237 879 299 903 q 117 818 175 856 l 57 903 q 201 976 115 946 q 393 1006 286 1006 q 638 936 554 1006 q 721 760 721 867 z "},"И":{"ha":1067,"x_min":136,"x_max":933,"o":"m 136 992 l 253 992 l 253 447 q 251 344 253 401 q 248 240 250 288 q 243 171 246 193 l 249 171 l 794 992 l 933 992 l 933 0 l 817 0 l 817 539 q 819 649 817 590 q 824 756 821 707 q 828 825 826 804 l 822 825 l 275 0 l 136 0 l 136 992 z "},"Й":{"ha":1067,"x_min":136,"x_max":933,"o":"m 811 1300 q 741 1142 801 1196 q 549 1089 681 1089 q 356 1142 413 1089 q 293 1300 300 1194 l 407 1300 q 447 1199 414 1225 q 551 1174 479 1174 q 652 1201 615 1174 q 696 1300 689 1228 l 811 1300 m 136 992 l 253 992 l 253 447 q 251 344 253 401 q 248 240 250 288 q 243 171 246 193 l 249 171 l 794 992 l 933 992 l 933 0 l 817 0 l 817 539 q 819 649 817 590 q 824 756 821 707 q 828 825 826 804 l 822 825 l 275 0 l 136 0 l 136 992 z "},"К":{"ha":858,"x_min":135,"x_max":858,"o":"m 858 0 l 708 0 l 260 503 l 260 0 l 135 0 l 135 992 l 260 992 l 260 511 l 697 992 l 839 992 l 408 510 l 858 0 z "},"Л":{"ha":983,"x_min":1,"x_max":849,"o":"m 849 0 l 724 0 l 724 882 l 410 882 q 382 666 397 779 q 351 450 367 553 q 321 275 336 347 q 276 117 303 182 q 206 18 250 51 q 92 -15 163 -15 q 44 -10 68 -15 q 1 1 19 -6 l 1 106 q 36 94 17 99 q 78 89 56 89 q 144 123 119 89 q 182 208 168 157 q 206 308 196 258 q 233 463 217 361 q 267 701 249 565 q 306 992 286 838 l 849 992 l 849 0 z "},"М":{"ha":1260,"x_min":135,"x_max":1125,"o":"m 572 0 l 246 869 l 240 869 q 247 753 244 826 q 250 601 250 681 l 250 0 l 135 0 l 135 992 l 319 992 l 625 179 l 631 179 l 942 992 l 1125 992 l 1125 0 l 1001 0 l 1001 610 q 1005 753 1001 682 q 1011 868 1008 824 l 1006 868 l 675 0 l 572 0 z "},"Н":{"ha":1029,"x_min":135,"x_max":893,"o":"m 893 0 l 768 0 l 768 463 l 260 463 l 260 0 l 135 0 l 135 992 l 260 992 l 260 572 l 768 572 l 768 992 l 893 992 l 893 0 z "},"О":{"ha":1085,"x_min":85,"x_max":1000,"o":"m 1000 497 q 948 228 1000 343 q 794 50 896 114 q 543 -14 693 -14 q 287 50 389 -14 q 135 229 185 114 q 85 499 85 344 q 135 765 85 651 q 287 943 185 879 q 544 1007 389 1007 q 794 944 693 1007 q 948 766 896 881 q 1000 497 1000 651 m 217 497 q 296 202 217 310 q 543 94 375 94 q 790 202 713 94 q 868 497 868 310 q 790 791 868 685 q 544 897 713 897 q 297 791 376 897 q 217 497 217 685 z "},"П":{"ha":1015,"x_min":135,"x_max":879,"o":"m 135 0 l 135 992 l 879 992 l 879 0 l 756 0 l 756 882 l 260 882 l 260 0 l 135 0 z "},"Р":{"ha":840,"x_min":135,"x_max":769,"o":"m 397 992 q 681 915 592 992 q 769 700 769 839 q 733 547 769 618 q 609 431 696 475 q 374 386 522 386 l 260 386 l 260 0 l 135 0 l 135 992 l 397 992 m 386 885 l 260 885 l 260 493 l 360 493 q 571 539 501 493 q 640 694 640 585 q 579 838 640 790 q 386 885 518 885 z "},"С":{"ha":878,"x_min":85,"x_max":835,"o":"m 560 896 q 308 789 400 896 q 217 496 217 682 q 302 203 217 311 q 558 96 388 96 q 682 107 624 96 q 796 135 740 118 l 796 26 q 681 -4 740 6 q 540 -14 622 -14 q 288 49 389 -14 q 135 226 186 111 q 85 497 85 342 q 140 762 85 647 q 301 941 194 876 q 561 1006 408 1006 q 835 947 718 1006 l 785 842 q 683 879 739 863 q 560 896 626 896 z "},"Т":{"ha":772,"x_min":14,"x_max":757,"o":"m 449 0 l 324 0 l 324 882 l 14 882 l 14 992 l 757 992 l 757 882 l 449 882 l 449 0 z "},"У":{"ha":867,"x_min":15,"x_max":867,"o":"m 550 282 q 460 117 506 183 q 354 19 415 51 q 199 -14 293 -14 q 126 -8 160 -14 q 64 7 92 -3 l 64 131 q 124 110 92 118 q 190 103 156 103 q 313 136 268 103 q 397 254 358 169 l 15 992 l 153 992 l 429 446 q 446 410 436 432 q 463 369 456 389 l 468 369 q 482 406 474 385 q 496 442 490 428 l 735 992 l 867 992 l 550 282 z "},"Ф":{"ha":1117,"x_min":71,"x_max":1044,"o":"m 619 1006 l 619 883 q 874 831 781 881 q 1006 698 967 781 q 1044 514 1044 615 q 1024 381 1044 447 q 956 262 1004 315 q 825 175 907 208 q 619 139 743 142 l 619 -14 l 496 -14 l 496 139 q 287 176 369 142 q 157 265 204 210 q 90 385 110 319 q 71 514 71 450 q 110 695 71 613 q 243 829 150 778 q 496 883 336 881 l 496 1006 l 619 1006 m 496 778 q 319 742 385 775 q 225 651 253 708 q 197 515 197 593 q 269 320 197 393 q 496 242 340 247 l 496 778 m 619 242 q 849 322 781 247 q 918 515 918 396 q 890 652 918 594 q 797 742 863 710 q 619 778 732 775 l 619 242 z "},"Х":{"ha":814,"x_min":6,"x_max":808,"o":"m 808 0 l 667 0 l 404 431 l 138 0 l 6 0 l 335 517 l 26 992 l 165 992 l 408 603 l 653 992 l 785 992 l 478 519 l 808 0 z "},"Ц":{"ha":1029,"x_min":135,"x_max":1000,"o":"m 1000 110 l 1000 -261 l 881 -261 l 881 0 l 135 0 l 135 992 l 260 992 l 260 111 l 756 111 l 756 992 l 879 992 l 879 110 l 1000 110 z "},"Ч":{"ha":969,"x_min":111,"x_max":835,"o":"m 835 0 l 710 0 l 710 407 q 559 362 629 379 q 403 344 489 344 q 188 409 264 344 q 111 596 111 474 l 111 992 l 236 992 l 236 614 q 278 494 236 533 q 415 454 321 454 q 563 469 497 454 q 710 511 628 485 l 710 992 l 835 992 l 835 0 z "},"Ш":{"ha":1440,"x_min":135,"x_max":1304,"o":"m 1304 0 l 135 0 l 135 992 l 260 992 l 260 111 l 656 111 l 656 992 l 781 992 l 781 111 l 1178 111 l 1178 992 l 1304 992 l 1304 0 z "},"Щ":{"ha":1446,"x_min":135,"x_max":1404,"o":"m 1404 110 l 1404 -261 l 1285 -261 l 1285 0 l 135 0 l 135 992 l 260 992 l 260 111 l 646 111 l 646 992 l 772 992 l 772 111 l 1160 111 l 1160 992 l 1285 992 l 1285 110 l 1404 110 z "},"Ъ":{"ha":961,"x_min":11,"x_max":890,"o":"m 242 0 l 242 882 l 11 882 l 11 992 l 365 992 l 365 572 l 522 572 q 742 535 661 572 q 856 433 822 497 q 890 290 890 369 q 806 80 890 160 q 539 0 721 0 l 242 0 m 526 107 q 704 152 647 107 q 761 290 761 197 q 699 425 761 386 q 507 464 636 464 l 365 464 l 365 107 l 526 107 z "},"Ы":{"ha":1192,"x_min":135,"x_max":1057,"o":"m 135 0 l 135 992 l 260 992 l 260 572 l 413 572 q 631 535 551 572 q 745 433 711 497 q 779 290 779 369 q 695 80 779 160 q 428 0 611 0 l 135 0 m 932 0 l 932 992 l 1057 992 l 1057 0 l 932 0 m 417 106 q 593 151 536 106 q 650 290 650 197 q 588 424 650 386 q 399 463 526 463 l 260 463 l 260 106 l 417 106 z "},"Ь":{"ha":892,"x_min":135,"x_max":821,"o":"m 135 0 l 135 992 l 260 992 l 260 572 l 446 572 q 667 535 585 572 q 785 433 749 497 q 821 290 821 369 q 732 80 821 160 q 461 0 643 0 l 135 0 m 449 107 q 692 290 692 107 q 625 425 692 386 q 431 464 558 464 l 260 464 l 260 107 l 449 107 z "},"Э":{"ha":879,"x_min":42,"x_max":793,"o":"m 322 896 q 196 880 253 896 q 93 843 139 864 l 42 947 q 172 990 99 975 q 324 1006 246 1006 q 587 942 483 1006 q 742 766 690 878 q 793 513 793 654 q 740 232 793 350 q 581 50 688 114 q 314 -14 475 -14 q 168 -4 228 -14 q 50 26 108 6 l 50 135 q 168 108 108 119 q 294 96 228 96 q 565 191 474 96 q 661 464 656 286 l 179 464 l 179 574 l 660 574 q 556 811 646 726 q 322 896 467 896 z "},"Ю":{"ha":1461,"x_min":135,"x_max":1375,"o":"m 1375 497 q 1326 228 1375 343 q 1179 50 1276 114 q 938 -14 1082 -14 q 699 44 796 -14 q 551 210 603 103 q 494 463 500 317 l 260 463 l 260 0 l 135 0 l 135 992 l 260 992 l 260 572 l 497 572 q 558 802 507 704 q 704 953 610 900 q 935 1007 799 1007 q 1176 944 1078 1007 q 1324 766 1274 881 q 1375 497 1375 651 m 625 497 q 699 202 625 310 q 933 94 774 94 q 1170 202 1096 94 q 1244 497 1244 310 q 1171 791 1244 685 q 936 897 1097 897 q 700 790 775 897 q 625 497 625 683 z "},"Я":{"ha":888,"x_min":31,"x_max":753,"o":"m 433 411 l 176 0 l 31 0 l 308 433 q 209 483 256 451 q 133 571 163 515 q 104 714 104 626 q 197 920 104 849 q 475 992 290 992 l 753 992 l 753 0 l 628 0 l 628 411 l 433 411 m 478 885 q 297 844 360 885 q 233 708 233 803 q 294 567 233 617 q 483 517 356 517 l 628 517 l 628 885 l 478 885 z "},"а":{"ha":779,"x_min":64,"x_max":667,"o":"m 400 757 q 601 697 536 757 q 667 507 667 638 l 667 0 l 578 0 l 554 106 l 549 106 q 447 15 500 44 q 299 -14 393 -14 q 131 40 197 -14 q 64 207 64 93 q 151 378 64 318 q 421 444 239 439 l 547 449 l 547 493 q 507 622 547 586 q 393 658 467 658 q 282 641 335 658 q 183 601 229 624 l 146 693 q 261 738 194 719 q 400 757 328 757 m 436 360 q 244 315 297 354 q 190 206 190 276 q 228 114 190 143 q 326 85 267 85 q 483 137 421 85 q 546 297 546 189 l 546 364 l 436 360 z "},"б":{"ha":832,"x_min":79,"x_max":757,"o":"m 79 447 q 153 828 79 692 q 390 1000 226 965 q 567 1035 481 1019 q 728 1063 653 1050 l 749 956 q 639 938 700 949 q 518 917 578 928 q 415 897 458 907 q 272 803 325 878 q 213 572 219 729 l 221 572 q 274 626 240 599 q 356 674 308 654 q 465 693 404 693 q 683 600 610 693 q 757 358 757 507 q 714 151 757 235 q 594 27 671 68 q 417 -14 518 -14 q 171 104 263 -14 q 79 447 79 222 m 426 88 q 572 146 517 88 q 628 346 628 204 q 585 526 628 460 q 446 592 543 592 q 335 565 385 592 q 251 503 285 538 q 204 444 218 468 q 214 313 204 376 q 248 198 224 249 q 316 117 272 147 q 426 88 360 88 z "},"в":{"ha":800,"x_min":118,"x_max":740,"o":"m 717 557 q 675 449 717 488 q 568 396 633 410 l 568 390 q 689 341 638 381 q 740 218 740 301 q 670 62 740 124 q 439 0 600 0 l 118 0 l 118 744 l 438 744 q 580 727 517 744 q 680 669 643 710 q 717 557 717 628 m 593 542 q 555 619 593 594 q 431 643 517 643 l 240 643 l 240 439 l 408 439 q 593 542 593 439 m 614 218 q 565 310 614 282 q 422 338 517 338 l 240 338 l 240 99 l 425 99 q 565 126 517 99 q 614 218 614 153 z "},"г":{"ha":601,"x_min":118,"x_max":572,"o":"m 572 744 l 572 642 l 240 642 l 240 0 l 118 0 l 118 744 l 572 744 z "},"д":{"ha":807,"x_min":26,"x_max":779,"o":"m 671 744 l 671 103 l 779 103 l 779 -258 l 661 -258 l 661 0 l 143 0 l 143 -258 l 26 -258 l 26 103 l 86 103 q 230 403 182 235 q 279 744 278 572 l 671 744 m 388 649 q 358 453 382 554 q 298 261 335 353 q 213 103 261 169 l 553 103 l 553 649 l 388 649 z "},"е":{"ha":783,"x_min":76,"x_max":713,"o":"m 406 758 q 570 717 501 758 q 676 599 639 675 q 713 422 713 524 l 713 349 l 203 349 q 267 156 206 222 q 440 90 329 90 q 566 103 511 90 q 679 142 621 117 l 679 35 q 567 -2 622 10 q 435 -14 511 -14 q 248 29 329 -14 q 122 158 167 72 q 76 367 76 243 q 117 576 76 489 q 233 711 158 664 q 406 758 307 758 m 404 658 q 266 602 317 658 q 206 446 215 546 l 585 446 q 540 599 583 540 q 404 658 497 658 z "},"ж":{"ha":1042,"x_min":1,"x_max":1038,"o":"m 1011 744 l 704 383 l 1038 0 l 899 0 l 576 378 l 576 0 l 463 0 l 463 378 l 140 0 l 1 0 l 335 383 l 28 744 l 161 744 l 463 383 l 463 744 l 576 744 l 576 383 l 879 744 l 1011 744 z "},"з":{"ha":681,"x_min":46,"x_max":618,"o":"m 314 758 q 517 708 442 758 q 593 563 593 657 q 556 455 593 494 q 453 397 518 415 l 453 392 q 535 357 497 379 q 595 299 572 335 q 618 206 618 263 q 541 49 618 113 q 300 -14 464 -14 q 154 -1 219 -14 q 46 35 89 13 l 46 144 q 158 104 93 122 q 299 86 222 86 q 440 115 382 86 q 497 213 497 143 q 285 338 497 338 l 185 338 l 185 438 l 265 438 q 419 463 361 438 q 476 551 476 489 q 433 631 476 604 q 307 657 389 657 q 199 645 246 657 q 97 610 153 633 l 54 707 q 314 758 171 758 z "},"и":{"ha":893,"x_min":118,"x_max":774,"o":"m 233 290 q 232 240 233 274 q 228 174 231 207 q 225 121 226 140 l 624 744 l 774 744 l 774 0 l 660 0 l 660 439 q 660 497 660 461 q 663 569 661 533 q 665 622 664 604 l 269 0 l 118 0 l 118 744 l 233 744 l 233 290 z "},"й":{"ha":893,"x_min":118,"x_max":774,"o":"m 721 1053 q 651 895 711 949 q 458 842 590 842 q 266 894 322 842 q 203 1053 210 947 l 317 1053 q 356 952 324 978 q 461 926 389 926 q 562 953 525 926 q 606 1053 599 981 l 721 1053 m 233 290 q 232 240 233 274 q 228 174 231 207 q 225 121 226 140 l 624 744 l 774 744 l 774 0 l 660 0 l 660 439 q 660 497 660 461 q 663 569 661 533 q 665 622 664 604 l 269 0 l 118 0 l 118 744 l 233 744 l 233 290 z "},"к":{"ha":735,"x_min":118,"x_max":718,"o":"m 558 744 l 692 744 l 374 386 l 718 0 l 576 0 l 240 378 l 240 0 l 118 0 l 118 744 l 240 744 l 240 383 l 558 744 z "},"л":{"ha":803,"x_min":10,"x_max":685,"o":"m 685 0 l 561 0 l 561 643 l 342 643 q 292 265 324 408 q 207 56 260 121 q 74 -10 154 -10 q 38 -8 56 -10 q 10 0 21 -6 l 10 92 q 28 88 18 89 q 47 86 38 86 q 167 246 122 86 q 236 744 213 406 l 685 744 l 685 0 z "},"м":{"ha":1036,"x_min":118,"x_max":917,"o":"m 917 744 l 917 0 l 807 0 l 807 475 q 809 536 807 504 q 814 599 811 568 l 810 599 l 567 0 l 464 0 l 228 599 l 224 599 q 228 471 228 536 l 228 0 l 118 0 l 118 744 l 281 744 l 515 146 l 754 744 l 917 744 z "},"н":{"ha":885,"x_min":118,"x_max":767,"o":"m 240 744 l 240 435 l 644 435 l 644 744 l 767 744 l 767 0 l 644 0 l 644 332 l 240 332 l 240 0 l 118 0 l 118 744 l 240 744 z "},"о":{"ha":840,"x_min":76,"x_max":765,"o":"m 765 374 q 672 88 765 189 q 418 -14 578 -14 q 242 31 319 -14 q 121 163 165 76 q 76 374 76 250 q 169 658 76 558 q 422 758 263 758 q 601 713 524 758 q 722 583 678 668 q 765 374 765 497 m 203 374 q 255 165 203 242 q 421 88 307 88 q 586 165 533 88 q 639 374 639 242 q 586 581 639 506 q 419 656 533 656 q 254 581 306 656 q 203 374 203 506 z "},"п":{"ha":867,"x_min":118,"x_max":747,"o":"m 747 744 l 747 0 l 625 0 l 625 640 l 240 640 l 240 0 l 118 0 l 118 744 l 747 744 z "},"р":{"ha":854,"x_min":118,"x_max":778,"o":"m 472 758 q 694 663 610 758 q 778 374 778 567 q 694 85 778 183 q 471 -14 610 -14 q 328 19 385 -14 q 240 94 272 51 l 232 94 q 238 35 235 71 q 240 -28 240 -1 l 240 -333 l 118 -333 l 118 744 l 218 744 l 235 643 l 240 643 q 328 725 274 692 q 472 758 382 758 m 450 656 q 290 592 336 656 q 240 397 243 528 l 240 374 q 285 162 240 236 q 453 88 331 88 q 565 125 521 88 q 630 227 608 163 q 651 375 651 292 q 602 579 651 503 q 450 656 553 656 z "},"с":{"ha":667,"x_min":76,"x_max":621,"o":"m 417 -14 q 241 26 318 -14 q 120 151 164 67 q 76 368 76 236 q 122 592 76 506 q 247 718 168 678 q 425 758 325 758 q 535 747 482 758 q 621 718 588 735 l 583 617 q 506 640 550 629 q 422 651 461 651 q 203 369 203 651 q 256 163 203 235 q 415 92 310 92 q 523 104 476 92 q 608 135 569 117 l 608 26 q 526 -3 571 7 q 417 -14 481 -14 z "},"т":{"ha":661,"x_min":28,"x_max":632,"o":"m 632 642 l 389 642 l 389 0 l 268 0 l 268 642 l 28 642 l 28 744 l 632 744 l 632 642 z "},"у":{"ha":708,"x_min":1,"x_max":708,"o":"m 1 744 l 132 744 l 293 321 q 331 215 314 265 q 356 118 347 164 l 361 118 q 388 209 369 153 q 425 322 406 265 l 576 744 l 708 744 l 388 -103 q 287 -271 349 -208 q 117 -333 225 -333 q 58 -330 83 -333 q 15 -322 33 -326 l 15 -225 q 52 -231 31 -228 q 97 -233 74 -233 q 201 -197 161 -233 q 263 -101 240 -161 l 301 -3 l 1 744 z "},"ф":{"ha":1007,"x_min":75,"x_max":931,"o":"m 563 756 q 756 697 674 746 q 885 567 839 649 q 931 372 931 485 q 833 104 931 204 q 563 -11 735 4 l 563 -333 l 443 -333 l 443 -11 q 250 47 333 -1 q 121 177 167 94 q 75 372 75 260 q 173 642 75 542 q 447 756 271 742 l 447 1056 l 563 1056 l 563 756 m 447 654 q 261 570 319 642 q 203 372 203 499 q 262 174 203 246 q 447 89 321 101 l 447 654 m 563 89 q 746 175 688 103 q 804 372 804 247 q 745 568 804 497 q 563 653 686 639 l 563 89 z "},"х":{"ha":735,"x_min":25,"x_max":710,"o":"m 294 381 l 38 744 l 176 744 l 368 464 l 558 744 l 696 744 l 439 381 l 710 0 l 571 0 l 368 297 l 163 0 l 25 0 l 294 381 z "},"ц":{"ha":878,"x_min":118,"x_max":853,"o":"m 853 -258 l 733 -258 l 733 0 l 118 0 l 118 744 l 240 744 l 240 103 l 625 103 l 625 744 l 747 744 l 747 101 l 853 101 l 853 -258 z "},"ч":{"ha":851,"x_min":103,"x_max":733,"o":"m 225 474 q 368 346 225 346 q 494 367 438 346 q 611 425 551 389 l 611 744 l 733 744 l 733 0 l 611 0 l 611 332 q 488 269 549 292 q 343 246 428 246 q 166 306 229 246 q 103 465 103 365 l 103 744 l 225 744 l 225 474 z "},"ш":{"ha":1247,"x_min":118,"x_max":1128,"o":"m 1128 744 l 1128 0 l 118 0 l 118 744 l 240 744 l 240 103 l 561 103 l 561 744 l 683 744 l 683 103 l 1006 103 l 1006 744 l 1128 744 z "},"щ":{"ha":1258,"x_min":118,"x_max":1235,"o":"m 1126 744 l 1126 101 l 1235 101 l 1235 -257 l 1113 -257 l 1113 0 l 118 0 l 118 744 l 240 744 l 240 103 l 561 103 l 561 744 l 683 744 l 683 103 l 1006 103 l 1006 744 l 1126 744 z "},"ъ":{"ha":967,"x_min":25,"x_max":892,"o":"m 385 744 l 385 439 l 590 439 q 817 385 743 439 q 892 228 892 332 q 821 62 892 124 q 589 0 750 0 l 263 0 l 263 642 l 25 642 l 25 744 l 385 744 m 586 336 l 385 336 l 385 99 l 590 99 q 722 126 672 99 q 771 221 771 154 q 725 312 771 288 q 586 336 679 336 z "},"ы":{"ha":1081,"x_min":118,"x_max":963,"o":"m 118 0 l 118 744 l 240 744 l 240 439 l 433 439 q 647 386 578 439 q 717 228 717 333 q 649 62 717 124 q 428 0 581 0 l 118 0 m 840 0 l 840 744 l 963 744 l 963 0 l 840 0 m 417 99 q 546 126 496 99 q 596 221 596 153 q 550 313 596 289 q 418 338 504 338 l 240 338 l 240 99 l 417 99 z "},"ь":{"ha":825,"x_min":118,"x_max":751,"o":"m 461 439 q 751 228 751 439 q 681 62 751 124 q 456 0 610 0 l 118 0 l 118 744 l 240 744 l 240 439 l 461 439 m 629 221 q 581 313 629 289 q 447 338 533 338 l 240 338 l 240 99 l 450 99 q 578 126 528 99 q 629 221 629 154 z "},"э":{"ha":686,"x_min":40,"x_max":610,"o":"m 238 -14 q 127 -3 174 -14 q 40 26 81 7 l 40 132 q 131 103 82 115 q 240 90 179 90 q 413 149 349 90 q 483 333 476 207 l 117 333 l 117 433 l 482 433 q 417 600 472 547 q 257 653 363 653 q 169 642 217 653 q 83 617 121 631 l 49 715 q 144 746 89 733 q 256 758 200 758 q 440 719 360 758 q 565 596 519 681 q 610 372 610 511 q 562 154 610 240 q 430 27 514 68 q 238 -14 346 -14 z "}}}
